<?xml version="1.0" encoding="utf-8"?>
<!-- Generator: Adobe Illustrator 20.0.0, SVG Export Plug-In . SVG Version: 6.00 Build 0)  -->
<svg version="1.1" id="Capa_1" xmlns="http://www.w3.org/2000/svg" xmlns:xlink="http://www.w3.org/1999/xlink" x="0px" y="0px"
	 viewBox="0 0 49.7 49.7" style="enable-background:new 0 0 49.7 49.7;" xml:space="preserve">
<style type="text/css">
	.st0{fill:#FFFFFF;}
</style>
<path class="st0" d="M24.8,0C11.1,0,0,11.1,0,24.8c0,13.7,11.1,24.8,24.8,24.8c13.7,0,24.8-11.1,24.8-24.8C49.7,11.1,38.5,0,24.8,0z
	 M14,15.8h21.6c0.5,0,0.9,0.2,1.2,0.5l-12,10.3l-12-10.3C13.1,16,13.6,15.8,14,15.8z M12.2,17.4l8.7,7.6l-8.7,7.4V17.4z M35.6,33.8
	H14c-0.5,0-0.9-0.2-1.2-0.5l8.9-7.6l3.1,2.7l3.1-2.7l8.9,7.6C36.5,33.6,36.1,33.8,35.6,33.8z M37.4,32.4L28.7,25l8.7-7.6V32.4z"/>
</svg>
