<?xml version="1.0" encoding="utf-8"?>
<!-- Generator: Adobe Illustrator 20.0.0, SVG Export Plug-In . SVG Version: 6.00 Build 0)  -->
<svg version="1.1" id="Capa_1" xmlns="http://www.w3.org/2000/svg" xmlns:xlink="http://www.w3.org/1999/xlink" x="0px" y="0px"
	 viewBox="0 0 1040 242" style="enable-background:new 0 0 1040 242;" xml:space="preserve">
<style type="text/css">
	.st0{fill:#FFFFFF;}
	.st1{clip-path:url(#SVGID_2_);}
	.st2{clip-path:url(#SVGID_4_);}
	.st3{clip-path:url(#SVGID_6_);}
	.st4{opacity:0.68;}
	.st5{fill:#E0E0E0;}
	.st6{fill-rule:evenodd;clip-rule:evenodd;fill:#FFFFFF;}
	.st7{opacity:0.43;}
	.st8{opacity:0.35;}
	.st9{fill:#A5A5A5;}
</style>
<path class="st0" d="M520,96.2c-13.7,0-24.8,11.1-24.8,24.8s11.1,24.8,24.8,24.8s24.8-11.1,24.8-24.8
	C544.8,107.2,533.7,96.2,520,96.2z M509.1,111.9h21.6c0.5,0,0.9,0.2,1.2,0.5l-12,10.3l-12-10.3C508.2,112.2,508.8,111.9,509.1,111.9
	z M507.4,113.6l8.7,7.6l-8.7,7.4V113.6z M530.8,129.9h-21.6c-0.5,0-0.9-0.2-1.2-0.5l8.9-7.6l3.1,2.7l3.1-2.7l8.9,7.6
	C531.7,129.8,531.2,129.9,530.8,129.9z M532.5,128.6l-8.7-7.4l8.7-7.6V128.6z"/>
<g>
	<g>
		<path class="st0" d="M231.4,58c0-4,0-7.9,0-11.9c0-4.6,0-9.2,0-13.8c0-0.6,0.2-0.8,0.8-0.8c0.7,0,0.8,0.2,0.8,0.8
			c0,1.1,0,2.1,0,3.2c0.2,0.1,0.2-0.1,0.3-0.2c1.3-2.6,3.4-4,6.3-4.2c3.4-0.2,6.1,1,7.8,4c2.1,3.9,2.1,7.9,0.4,11.9
			c-1.1,2.5-3.2,3.9-5.9,4.3c-2.7,0.3-5.4,0.1-7.4-2.1c-0.5-0.5-0.8-1.1-1.3-1.9c0,3.7,0,7.2,0,10.7C232.4,58,231.9,58,231.4,58z
			 M232.9,41.5c-0.1,0.7,0.1,1.6,0.2,2.5c0.6,3.6,2.6,5.6,5.9,6c3.3,0.4,6.2-1.1,7.4-4.2c1.3-3.2,1.2-6.4-0.3-9.4
			c-1.3-2.8-3.7-4-6.8-3.8c-2.7,0.2-4.9,1.9-5.8,4.6C233.1,38.5,232.9,39.9,232.9,41.5z"/>
		<path class="st0" d="M194,39.7c0.4-0.7,0.4-1.4,0.6-2.1c1.7-5.9,8.5-8.4,13.2-4.8c2.8,2.1,3.5,5.1,3.5,8.4c0,0.6-0.4,0.5-0.8,0.5
			c-4.7,0-9.3,0-14,0c-0.8,0-1.1,0.1-1,1c0.2,1.7,0.6,3.4,1.7,4.8c1.7,2.2,4,2.9,6.7,2.6c2.8-0.4,4.5-2.1,5.4-4.6
			c0.1-0.3,0-0.9,0.6-0.9c1.1-0.2,1.2,0,0.9,1c-1.2,4.2-4.1,6.2-9,6c-3.7-0.1-6.6-2.8-7.5-6.7c-0.1-0.5-0.1-1-0.4-1.4
			c0-0.3,0-0.6,0-0.9c0.3-0.6,0.3-1.1,0-1.7C194,40.3,194,40,194,39.7z M202.7,40.2c2.1,0,4.3,0,6.4,0c0.3,0,0.7,0.2,0.6-0.4
			c-0.2-2.8-1.5-6-4.9-7c-4.4-1.3-8.7,1.5-9.2,7c0,0.6,0.4,0.4,0.6,0.4C198.4,40.2,200.5,40.2,202.7,40.2z"/>
		<path class="st0" d="M314.6,47.4c-1.1,2.5-3.2,3.6-5.8,3.9c-2.9,0.3-5.7,0.1-8-2.2c-1.1-1.1-1.6-2.5-1.7-4c0-0.3-0.1-0.7,0.3-0.6
			c0.4,0.1,1-0.4,1.2,0.4c1.3,4.8,6.6,6.8,10.8,4.1c2.4-1.6,2.3-4.7-0.2-6.1c-1.5-0.8-3.2-1.1-4.9-1.4c-1.7-0.3-3.3-0.8-4.8-1.7
			c-2.2-1.4-2.3-5.6-0.1-7.2c0.7-0.5,1.3-0.9,2.1-1.1c2.2-0.6,4.4-0.6,6.5,0c2.4,0.7,4.1,3,4,5.3c0,0.4-0.2,0.6-0.5,0.5
			c-0.3-0.1-0.9,0.3-0.9-0.4c-0.1-3.1-2.4-4.2-4.7-4.4c-1.5-0.1-2.9-0.1-4.3,0.5c-1.4,0.6-2.3,1.5-2.3,3.2c0,1.6,1,2.5,2.3,3
			c1.9,0.8,4,1,5.9,1.5c0.2,0,0.4,0.1,0.5,0.1c2.2,0.5,3.9,1.6,4.5,3.9C314.6,45.7,314.6,46.5,314.6,47.4z"/>
		<path class="st0" d="M194,40.6c0.3,0.6,0.3,1.1,0,1.7C194,41.8,194,41.2,194,40.6z"/>
		<path class="st0" d="M270.5,41.6c-2.4,0-4.7,0-7.1,0c-0.6,0-0.8,0.1-0.7,0.8c0.1,1,0.2,1.9,0.5,2.9c1,3.1,3.4,4.8,6.7,4.8
			c3.3,0,5.5-1.6,6.6-4.8c0.1-0.3,0-0.8,0.7-0.8c1,0,1.1,0,0.8,1c-1,3.7-3.7,5.9-7.4,6c-4.5,0.1-7.5-1.7-8.7-5.5
			c-1-3.1-1-6.2,0.2-9.2c1.5-3.9,4.6-5.8,8.9-5.5c3.5,0.2,6.3,2.9,7.1,6.7c0.2,1,0.3,1.9,0.3,2.9c0,0.7-0.2,0.9-0.8,0.8
			C275.2,41.5,272.9,41.6,270.5,41.6z M269.8,40.2c2.1,0,4.3,0,6.4,0c0.2,0,0.7,0.2,0.6-0.4c-0.2-2.6-1.3-5.7-4.5-6.9
			c-4.5-1.7-9.7,2.1-9.6,6.9c0,0.6,0.3,0.4,0.6,0.4C265.5,40.2,267.7,40.2,269.8,40.2z"/>
		<path class="st0" d="M289.6,51.4c-2.9,0-5.1-0.5-6.8-2.1c-1.1-1.1-1.7-2.5-1.8-4c0-0.3-0.2-0.7,0.4-0.6c0.4,0.1,1-0.4,1.1,0.4
			c0.4,3.3,3.4,5.4,7.4,5c1.2-0.1,2.3-0.3,3.3-1c2.5-1.5,2.4-4.8-0.2-6.1c-1.5-0.8-3.1-1.1-4.8-1.4c-1.7-0.3-3.4-0.8-4.9-1.8
			c-2.1-1.4-2.3-5.6-0.1-7.2c1-0.7,2-1.1,3.2-1.3c1.8-0.3,3.6-0.3,5.4,0.2c2.4,0.7,4.1,2.9,4,5.2c0,0.3,0,0.7-0.5,0.6
			c-0.4-0.1-0.9,0.3-1-0.4c-0.6-3-1.8-4.1-4.8-4.4c-1.5-0.2-3,0-4.4,0.7c-1.2,0.6-2,1.6-2,3c0,1.5,0.9,2.4,2.1,2.9
			c2,0.9,4.1,1,6.2,1.6c0.6,0.2,1.2,0.3,1.8,0.6c1.9,0.7,3,2.1,3.2,4.1c0.2,2.3-0.8,3.9-2.8,5C292.2,51.2,290.6,51.4,289.6,51.4z"/>
		<path class="st0" d="M228.5,31.7c-2.1,2.8-4.2,5.6-6.3,8.3c-0.5,0.6-0.5,1,0,1.7c2.4,3.1,4.7,6.2,7,9.3c-1.3,0.3-2.1,0.1-2.9-1.1
			c-1.8-2.7-3.7-5.2-5.7-7.9c-1.1,1.5-2.3,3-3.4,4.5c-0.8,1.1-1.7,2.1-2.4,3.3c-0.7,1-1.4,1.6-2.7,1.2c0-0.3,0.3-0.5,0.4-0.7
			c2.2-2.9,4.4-5.9,6.6-8.8c0.4-0.5,0.4-0.8,0-1.3c-2.2-2.8-4.3-5.6-6.5-8.5c1.4-0.4,1.9-0.3,2.8,0.9c1.7,2.3,3.5,4.6,5.3,7
			c1.2-1.6,2.3-3.1,3.4-4.5c0.6-0.8,1.3-1.5,1.7-2.4C226.3,31.6,227.2,31.3,228.5,31.7z"/>
		<path class="st0" d="M253.5,35.8c1.6-2.9,4-4.1,6.9-4.2c0.5,0,0.7,0.1,0.6,0.6c-0.1,0.4,0.2,0.9-0.6,0.9c-3.7-0.2-7,3-7,7.2
			c0,3.3,0,6.7,0,10c0,0.7-0.2,0.8-0.8,0.8c-0.7,0-0.7-0.3-0.7-0.8c0-6,0-11.9,0-17.9c0-0.6,0-0.8,0.7-0.8c0.7,0,0.8,0.2,0.8,0.9
			C253.5,33.4,253.5,34.5,253.5,35.8z"/>
	</g>
	<g id="g10_1_" transform="matrix(1.25,0,0,-1.25,0,143.2125)" inkscape:groupmode="layer" inkscape:label="ink_ext_XXXXXX">
		<g id="g12_1_" transform="scale(0.1,0.1)">
			<g id="g14_1_">
				<g>
					<defs>
						<path id="SVGID_1_" d="M1542.2-5.3l-8.1,2.7c0,0,1,40.8-13.7,43.6c-9.7,11.2,1.5,479.7,36.7,1.6c0,0-12.1-6.1-14.3-16.3
							C1540.6,16,1542.2-5.3,1542.2-5.3z"/>
					</defs>
					<use xlink:href="#SVGID_1_"  style="overflow:visible;fill:#FFFFFF;"/>
					<clipPath id="SVGID_2_">
						<use xlink:href="#SVGID_1_"  style="overflow:visible;"/>
					</clipPath>
					<g id="g16_1_" class="st1">
						<path id="path30_1_" inkscape:connector-curvature="0" class="st0" d="M1542.2-5.3l-8.1,2.7c0,0,1,40.8-13.7,43.6
							c-9.7,11.2,1.5,479.7,36.7,1.6c0,0-12.1-6.1-14.3-16.3C1540.6,16,1542.2-5.3,1542.2-5.3"/>
					</g>
				</g>
			</g>
			<g id="g32_1_">
				<g>
					<defs>
						<path id="SVGID_3_" d="M1546.5,34.1c0,0,70,46.1,53.6,141.8c-15.8,69.5-53.1,92.4-57.1,101.1c-4.4,6.2-8.9,17.1-8.9,17.1
							l3-193.7C1537.2,100.4,1531,41.2,1546.5,34.1L1546.5,34.1z"/>
					</defs>
					<use xlink:href="#SVGID_3_"  style="overflow:visible;fill:#FFFFFF;"/>
					<clipPath id="SVGID_4_">
						<use xlink:href="#SVGID_3_"  style="overflow:visible;"/>
					</clipPath>
					<g id="g34_1_" class="st2">
						<path id="path46_1_" inkscape:connector-curvature="0" class="st0" d="M1546.5,34.1c0,0,70,46.1,53.6,141.8
							c-15.8,69.5-53.1,92.4-57.1,101.1c-4.4,6.2-8.9,17.1-8.9,17.1l3-193.7C1537.2,100.4,1531,41.2,1546.5,34.1"/>
					</g>
				</g>
			</g>
			<g id="g48_1_">
				<g>
					<defs>
						<path id="SVGID_5_" d="M1530.1,31.5c0,0-65.6,44.8-61.9,123.8c3.8,79,50.1,117.8,59.2,124.9c5.8,6.2,6.1,8.6,6.5,14.8
							c4.1-8.8,3.4-131.3,3.8-145.6C1539.4,93.6,1534.7,42,1530.1,31.5z"/>
					</defs>
					<use xlink:href="#SVGID_5_"  style="overflow:visible;fill:#FFFFFF;"/>
					<clipPath id="SVGID_6_">
						<use xlink:href="#SVGID_5_"  style="overflow:visible;"/>
					</clipPath>
					<g id="g50_1_" class="st3">
						<path id="path62_1_" inkscape:connector-curvature="0" class="st0" d="M1530.1,31.5c0,0-65.6,44.8-61.9,123.8
							c3.8,79,50.1,117.8,59.2,124.9c5.8,6.2,6.1,8.6,6.5,14.8c4.1-8.8,3.4-131.3,3.8-145.6C1539.4,93.6,1534.7,42,1530.1,31.5"/>
					</g>
				</g>
			</g>
			<path id="path64_1_" inkscape:connector-curvature="0" class="st0" d="M2323.1,57c4.6-3.7,13.9-5.2,22.1-5.2
				c10.6,0,21,2,31.2,11.1c10.4,9.4,17.5,23.8,17.5,46.7c0,22.1-8.4,40-25.6,50.4c-9.7,6.1-22.3,8.5-36.7,8.5
				c-4.2,0-8.4-0.2-10.8-1.3c-0.7-0.4-2-2.2-2-3.1c-0.4-3.9-0.4-33.8-0.4-51.5c0-18.1,0-43.4,0.4-46.5
				C2318.9,63.6,2320.2,59,2323.1,57z M2279,178.4c3.8,0,18-0.7,24.7-0.7c12.4,0,21,0.7,44.2,0.7c19.5,0,35.8-5.2,47.5-15.3
				c14.1-12.2,21.7-29.3,21.7-50c0-29.5-13.5-46.5-27-56.1c-13.5-10-31-15.7-55.9-15.7c-13.3,0-36,0.4-55,0.7h-0.3
				c-0.9,1.7,1.6,8.6,3.2,8.7c5.1,0.6,6.5,0.8,8.9,1.8c4,1.7,5,3.7,5.4,10.9c0.7,13.5,0.4,29.7,0.4,48c0,13.1,0.2,38.6-0.2,46.7
				c-0.7,6.8-3.5,8.5-9.3,9.8c-2.9,0.7-6.9,1.3-12.4,2C2274.5,171.2,2277.9,177.1,2279,178.4"/>
			<path id="path66_1_" inkscape:connector-curvature="0" class="st0" d="M2475.6,167.7c-0.9-0.2-2-2.4-2-3.5
				c-0.2-7.9-0.4-28.4-0.4-42.6c0-0.4,0.7-1.1,1.1-1.1c2.9-0.2,9.9-0.4,15.9-0.4c8.4,0,13.3,1.1,15.9,2.4
				c7.1,3.5,10.4,11.1,10.4,19.4c0,19-13.3,26.2-32.9,26.2C2482.2,168.1,2478.5,168.1,2475.6,167.7L2475.6,167.7z M2525.8,80.4
				c0,19.2-14.1,30.1-40,30.1c-1.1,0-9.3,0.2-11.3-0.2c-0.7-0.2-1.3-0.7-1.3-1.1c0-13.8-0.2-35.8,0.4-44.5c0.4-3.7,3.1-9,6.4-10.5
				c3.5-2,11.5-2.4,17-2.4C2512.3,51.8,2525.8,60.3,2525.8,80.4L2525.8,80.4z M2435.7,178.4c2,0,7.9-0.7,22.9-0.7
				c14.1,0,25.6,0.4,39.3,0.4c17,0,40.5-6.1,40.5-31.4c0-12.4-8.8-22.5-20.3-27.3c-0.7-0.2-0.7-0.7,0-0.9
				c16.4-4.1,30.7-14.2,30.7-33.4c0-18.8-11.7-30.6-28.7-38c-10.4-4.6-23.2-6.1-36.3-6.1c-9.9,0-36.6,1.1-51.4,0.9
				c-1.6,0.7,1.4,7.6,2.7,8.7c3.5,0.2,6.3,0.5,10,1.6c5.3,1.3,5.9,3,6.6,10.9c0.4,6.8,0.4,31,0.4,48.2c0,23.6,0.2,39.5,0,47.4
				c-0.2,6.1-2.4,8.1-6.6,9.2c-3.3,0.7-8.8,1.3-13.3,2C2431.2,171,2434.6,177.5,2435.7,178.4"/>
			<path id="path68_1_" inkscape:connector-curvature="0" class="st0" d="M1644.8,41.4c-0.4,0.6-0.8,2.3-0.7,4.4
				c0.1,1.6,0.4,2.6,0.7,2.9c4.2,0.7,6.1,1.1,8.5,1.7c3.9,1,5.4,3.1,5.6,8.1c0.6,11.8,0.7,33.9,0.4,49.4l0,0.5c0,1.7,0,3.9-2,5.5
				c-3.1,2-6.9,3.7-11.7,5.1c-1.9,0.5-2.9,1.5-2.8,2.7c0.1,1.1,1.2,2.5,3.6,2.9c6.4,0.7,23.2,4.7,29.8,7.7c0.4-0.5,1-1.5,0.9-3.1
				c0-0.7-0.1-1.4-0.2-2.2c-0.2-2.2-0.4-4.7-0.4-7.2c0-0.7,0.8-1.4,1.6-1.4c0.4,0,0.8,0.2,1.1,0.5c12.6,9.8,23.8,13.3,29.6,13.3
				c9.5,0,16.9-4.5,22.6-13.9c0.3-0.5,0.8-0.8,1.3-0.8c0.5,0,0.9,0.2,1.2,0.6c11.5,8.7,23,14,30.6,14c18.1,0,28.9-13.5,28.9-36.2
				c0-6.5-0.1-14.8-0.1-22.5c-0.1-6.8-0.1-13.1-0.1-17.5c0-1.1,1.4-4,3.6-4.6c2.6-1.3,6.5-1.9,11.3-2.8l0.2,0
				c0.4-1.3-0.4-6.4-1.1-7.4c-1.2,0-2.9,0.1-4.9,0.2c-3.8,0.2-8.9,0.5-14.9,0.5c-12,0-18.3-0.2-24.3-0.6c-0.5,1.5-0.6,6.3-0.1,7.3
				c3.5,0.7,5.2,1.1,7.3,1.7c3.8,1.3,4.9,3,5.2,8.1c0.1,3.6,0.8,35.4-0.4,42.9c-1.1,7.8-7,17-19.9,17c-4.8,0-12.5-2-19.9-7.6
				c-0.5-0.4-0.7-1.3-0.7-1.9l0-0.1c0.9-4.1,0.9-8.8,0.9-16c0-4.1,0-8.4,0-12.8c-0.1-8.8-0.1-17,0-23.3c0-4.3,2.6-5.3,4.7-6.1
				c1.1-0.2,2-0.5,2.9-0.7c1.7-0.4,3.5-0.9,6.2-1.3c0.4-0.8,0.4-3.3-0.1-5.5c-0.3-1.2-0.6-1.7-0.8-1.9c-6.7,0.2-13.5,0.4-23.4,0.4
				c-3,0-7.9-0.1-12.2-0.2c-3.5-0.1-6.8-0.2-8.7-0.2c-0.3,0.4-0.7,1.8-0.7,3.8c0,1.9,0.3,3.2,0.7,3.6c0.9,0.2,1.8,0.3,2.7,0.5
				c2.3,0.4,4.3,0.8,6.3,1.2c3.3,1,4.5,2.8,4.7,7c0.6,9.7,1.1,37.7-0.2,44.7c-2.3,11.2-8.8,16.9-19.1,16.9c-6,0-13.7-2.9-19.9-7.6
				c-1-0.8-1.8-2.7-1.8-4.5c0-3.3,0-7.3,0-11.6c0-14.1-0.1-31.6,0.3-39.1c0.2-2.3,1-5.1,5.4-6.1c1-0.3,2.6-0.5,4.5-0.9
				c1.1-0.2,2.3-0.4,3.6-0.6c0.4-1.2,0.2-5.9-0.6-7.4c-1.9,0-4.3,0.1-7,0.2c-4.1,0.2-9.3,0.4-15.2,0.4c-6.9,0-11.7-0.2-15.6-0.4
				C1649.3,41.5,1647.1,41.4,1644.8,41.4L1644.8,41.4"/>
			<path id="path70_1_" inkscape:connector-curvature="0" class="st0" d="M1864.1,123c-4,0-7.8-1.1-10.6-3
				c-7.7-4.7-11.6-14-11.6-27.7c0-25.6,12.8-43.5,31.2-43.5c5.4,0,9.8,1.6,13.5,4.8c5.6,4.6,8.6,14,8.6,27.2
				C1895.4,106.1,1882.8,123,1864.1,123L1864.1,123L1864.1,123z M1867.7,39.4c-33.2,0-45,24.3-45,47.1c0,15.9,6.5,28.3,19.4,37
				c9.1,5.6,20,8.8,29.9,8.8c25.3,0,43.1-18.2,43.1-44.3c0-17.7-7.1-31.7-20.5-40.5C1888.1,43.7,1876.9,39.4,1867.7,39.4
				L1867.7,39.4"/>
			<path id="path72_1_" inkscape:connector-curvature="0" class="st0" d="M2208.1,123c-4,0-7.8-1.1-10.6-3
				c-7.7-4.7-11.6-14-11.6-27.7c0-25.6,12.8-43.5,31.2-43.5c5.4,0,9.8,1.6,13.5,4.8c5.6,4.6,8.6,14,8.6,27.2
				C2239.3,106.1,2226.8,123,2208.1,123L2208.1,123L2208.1,123z M2211.6,39.4c-33.2,0-45,24.3-45,47.1c0,15.9,6.5,28.3,19.4,37
				c9.1,5.6,20,8.8,29.9,8.8c25.3,0,43.1-18.2,43.1-44.3c0-17.7-7.1-31.7-20.5-40.4C2232,43.7,2220.9,39.4,2211.6,39.4L2211.6,39.4"
				/>
			<path id="path74_1_" inkscape:connector-curvature="0" class="st0" d="M2096.9,123.9c-10.2,0-16.9-8.1-16.9-20.6
				c0-12.6,5.7-27.3,21.7-27.3c2.8,0,7.7,1.2,10.2,3.9c3.7,3.4,6.2,10.5,6.2,17.9C2118.2,114.2,2110.2,123.9,2096.9,123.9
				L2096.9,123.9z M2095.6,37.7c-3.8,0-6.6-1.1-8.3-2.1c-8.1-5.2-11.9-10.4-11.9-16.3c0-5.6,2.2-10.1,6.9-14.1
				c5.7-4.8,13.4-7.2,23.5-7.2c19.9,0,28.8,10.7,28.8,21.2c0,7.4-3.7,12.3-11.3,15.1C2117.4,36.5,2107.6,37.7,2095.6,37.7
				L2095.6,37.7L2095.6,37.7z M2096.9-13c-11.9,0-20.5,2.5-27.9,8.2c-7.1,5.5-10.3,13.7-10.3,19.3c0,1.6,0.4,5.8,3.9,9.8
				c2.1,2.4,6.9,6.8,18,14.4c0.3,0.1,0.6,0.5,0.6,0.9c0,0.5-0.3,0.8-0.7,0.9c-9.2,3.5-11.9,9.3-12.8,12.4c0,0.1-0.1,0.3-0.1,0.5
				c-0.3,1.2-0.5,2.4,1.1,3.6c1.3,0.9,3.3,2.1,5.5,3.4c3.2,1.9,6.9,4.1,8.9,5.8c0.3,0.3,0.4,0.8,0.4,1.2c-0.1,0.5-0.3,0.8-0.7,1
				c-13.6,4.6-20.4,14.6-20.4,29.9c0,9.9,4.6,18.8,12.5,24.5c5.5,4.3,19.1,9.5,28,9.5l0.5,0c9.1-0.2,14.3-2.1,21.4-4.8
				c3.9-1.4,7.5-2,12.6-2c7.6,0,10.8,2.4,13.7,5.1c0.2-0.3,0.5-1.4,0.7-3.9c0.2-2.5-0.5-6.3-2.5-9c-1.5-2.1-5.1-3.7-8.5-3.7
				c-0.3,0-0.7,0-1,0c-3.5,0.3-5.1,0.8-5.1,0.9l-0.9-0.3c-0.3-0.4-0.1-0.8,0.1-1.4c0.1-0.1,0.1-0.3,0.1-0.3c0.4-1.8,1.2-6.9,1.2-8.4
				c0-16.1-6.3-23.1-13.2-28.3c-6.5-4.9-14.2-7.9-22.8-8.8h0c-0.2,0-1-0.1-2.6-0.2c-1.1-0.1-2.4-0.2-2.6-0.2l-0.2,0
				c-1.5-0.4-5.4-2.3-5.4-5.7c0-2.9,1.8-6.4,10.2-7c1.7-0.1,3.5-0.3,5.4-0.4c11.1-0.8,25-1.7,31.5-3.9c9-3.3,14.6-11.3,14.6-20.9
				c0-14.4-10.3-28-27.5-36.3C2114.6-11.1,2106.1-13,2096.9-13L2096.9-13"/>
			<path id="path76_1_" inkscape:connector-curvature="0" class="st0" d="M2042.4,49.1c-4.9,0.7-8.4,1.3-12.6,3.3
				c-0.7,0.4-1.6,2.4-1.6,3.1c-0.4,6.8-0.4,26.4-0.4,39.3c0,10.5-1.8,19.6-6.2,26.2c-5.3,7.4-12.8,11.8-22.5,11.8
				c-8.6,0-20.1-5.9-29.6-14c-0.2-0.2-1.7-1.6-1.7,0.5c0,2.1,0.4,6.5,0.6,9.3c0.2,2.8-1.4,4-1.4,4c-6.2-3.1-23.6-7.2-30.1-7.9
				c-4.7-0.9-5.9-5.4-0.9-7v0c0,0,0,0,0.1,0c5.2-1.6,8.8-3.3,11.4-5c2-1.5,1.8-3.7,1.8-5.5c0.2-14.6,0.2-37.1-0.4-49.3
				c-0.2-4.8-1.5-6.5-5.1-7.4l0.3,0.1c-2.7-0.7-4.9-1.1-8.2-1.5c-1.1-1.1-1.1-7.4,0-8.7c2.2,0,13.5,0.7,22.8,0.7
				c12.8,0,19.5-0.7,22.8-0.7c1.3,1.5,1.8,7.4,0.9,8.7c-3.8,0.2-6.4,0.7-9.1,1.3c-3.5,0.9-4.4,2.6-4.6,6.5
				c-0.4,10.3-0.4,32.1-0.4,46.9c0,4.1,1.1,6.1,2.4,7.2c4.4,3.9,11.7,6.5,18.1,6.5c6.2,0,10.4-2,13.5-4.6c4.2-3.5,5.7-8.5,6.2-12.2
				c0.9-8.3,0.7-24.9,0.7-39.3c0-7.9-0.7-9.8-3.5-10.7c-1.3-0.7-4.9-1.3-9.1-1.7c-1.3-1.3-0.9-7.4,0-8.7c5.7,0,12.4,0.7,22.1,0.7
				c12.2,0,19.9-0.7,23-0.7C2042.8,41.9,2043.3,47.5,2042.4,49.1"/>
			<path id="path78_1_" inkscape:connector-curvature="0" class="st0" d="M2579.9,59.8h3.7c3,0,4.2,1.1,4.2,3.8
				c0,2.8-1.1,3.7-4.5,3.7h-3.4V59.8z M2587.8,48.1l-4.4,9.5h-3.6v-9.5h-2.6v21.6h6.4c4.7,0,6.7-2.1,6.7-6c0-3.2-1.5-5.2-4.3-5.8
				l4.6-9.8L2587.8,48.1L2587.8,48.1z M2583.7,74.4c-8.7,0-15.6-6.9-15.6-15.6c0-8.6,6.9-15.5,15.5-15.5c8.6,0,15.5,6.9,15.5,15.5
				C2599.1,67.6,2592.4,74.4,2583.7,74.4z M2583.6,41.8c-9.6,0-17.1,7.5-17.1,17.1c0,9.6,7.5,17.1,17.1,17.1c9.4,0,17-7.5,17-16.8
				C2600.7,49.4,2593.2,41.8,2583.6,41.8"/>
		</g>
	</g>
	<g id="Page_1_2_">
		<g id="Group_2_">
			<path class="st0" d="M972.5,25.6l6.2,69.5l27.8,7.7l27.9-7.7l6.2-69.5H972.5z M1027.7,42.1l-0.4,4.3l-0.2,1.9h0h-20.5h0h-12
				l0.8,8.7h11.3h0h17.5h2.3l-0.2,2.3l-2,22.5l-0.1,1.4l-17.5,4.8v0l0,0l-17.5-4.9l-1.2-13.4h3.9h4.6l0.6,6.8l9.5,2.6l0,0v0l9.5-2.6
				l1-11.1h-10.5h0h-19.1l-2.1-23.5l-0.2-2.3h21.4h0h21.3L1027.7,42.1z"/>
			<path id="Shape_23_" class="st0" d="M978.9,6.7h4.3V11h4V6.7h4.3v13h-4.3v-4.3h-4v4.3h-4.3V6.7L978.9,6.7z"/>
			<path id="Shape_22_" class="st0" d="M997.2,11h-3.8V6.7h12V11h-3.8v8.7h-4.3L997.2,11L997.2,11L997.2,11z"/>
			<path id="Shape_21_" class="st0" d="M1007.3,6.7h4.5l2.8,4.6l2.8-4.6h4.5v13h-4.3v-6.4l-3,4.6h-0.1l-3-4.6v6.4h-4.2L1007.3,6.7
				L1007.3,6.7z"/>
			<path id="Shape_20_" class="st0" d="M1024,6.7h4.3v8.7h6.1v4.3H1024L1024,6.7L1024,6.7z"/>
			<g class="st4">
				<polygon class="st5" points="1017.1,65.6 1006.6,65.6 1006.6,79.2 1016.1,76.7 				"/>
				<polygon class="st5" points="1006.6,31.3 1006.6,39.8 1027.9,39.8 1027.7,42.1 1027.3,46.4 1027.2,48.3 1027.1,48.3 
					1006.6,48.3 1006.6,57.1 1024.1,57.1 1026.4,57.1 1026.2,59.4 1024.2,81.8 1024.1,83.3 1006.6,88.1 1006.6,88.1 1006.6,97 
					1029.1,90.7 1034.5,31.3 				"/>
			</g>
		</g>
	</g>
	<g>
		<path class="st6" d="M613.1,56.8c0-0.4-0.2-0.9-0.6-1.1l-10.2-5.9c-0.2-0.1-0.4-0.2-0.6-0.2c0,0-0.1,0-0.1,0
			c-0.2,0-0.4,0.1-0.6,0.2l-10.2,5.9c-0.4,0.2-0.6,0.6-0.6,1.1l0,15.8c0,0.2,0.1,0.4,0.3,0.5c0.2,0.1,0.4,0.1,0.6,0l6.1-3.5
			c0.4-0.2,0.6-0.6,0.6-1.1v-7.4c0-0.4,0.2-0.8,0.6-1.1l2.6-1.5c0.2-0.1,0.4-0.2,0.6-0.2c0.2,0,0.4,0.1,0.6,0.2l2.6,1.5
			c0.4,0.2,0.6,0.6,0.6,1.1v7.4c0,0.4,0.2,0.8,0.6,1.1l6.1,3.5c0.2,0.1,0.4,0.1,0.6,0c0.2-0.1,0.3-0.3,0.3-0.5L613.1,56.8z"/>
		<path class="st6" d="M667.7,35c-0.2-0.1-0.4-0.1-0.6,0c-0.2,0.1-0.3,0.3-0.3,0.5v15.7c0,0.2-0.1,0.3-0.2,0.4
			c-0.1,0.1-0.3,0.1-0.4,0l-2.6-1.5c-0.4-0.2-0.9-0.2-1.2,0L652.1,56c-0.4,0.2-0.6,0.6-0.6,1.1v11.8c0,0.4,0.2,0.8,0.6,1.1l10.2,5.9
			c0.4,0.2,0.9,0.2,1.2,0l10.2-5.9c0.4-0.2,0.6-0.6,0.6-1.1V39.5c0-0.4-0.2-0.9-0.6-1.1L667.7,35z M666.8,65c0,0.1-0.1,0.2-0.2,0.3
			l-3.5,2c-0.1,0.1-0.2,0.1-0.3,0l-3.5-2c-0.1-0.1-0.2-0.2-0.2-0.3V61c0-0.1,0.1-0.2,0.2-0.3l3.5-2c0.1-0.1,0.2-0.1,0.3,0l3.5,2
			c0.1,0.1,0.2,0.2,0.2,0.3V65z"/>
		<path class="st6" d="M704.3,60.9c0.4-0.2,0.6-0.6,0.6-1.1V57c0-0.4-0.2-0.8-0.6-1.1L694.1,50c-0.4-0.2-0.9-0.2-1.2,0l-10.2,5.9
			c-0.4,0.2-0.6,0.6-0.6,1.1v11.8c0,0.4,0.2,0.9,0.6,1.1l10.2,5.8c0.4,0.2,0.8,0.2,1.2,0l6.1-3.4c0.2-0.1,0.3-0.3,0.3-0.5
			c0-0.2-0.1-0.4-0.3-0.5l-10.3-5.9c-0.2-0.1-0.3-0.3-0.3-0.5V61c0-0.2,0.1-0.4,0.3-0.5l3.2-1.8c0.2-0.1,0.4-0.1,0.6,0l3.2,1.8
			c0.2,0.1,0.3,0.3,0.3,0.5v2.9c0,0.2,0.1,0.4,0.3,0.5c0.2,0.1,0.4,0.1,0.6,0L704.3,60.9z"/>
		<path class="st6" d="M631.7,49.9c0.4-0.2,0.9-0.2,1.2,0l10.2,5.9c0.4,0.2,0.6,0.6,0.6,1.1v11.8c0,0.4-0.2,0.8-0.6,1.1l-10.2,5.9
			c-0.4,0.2-0.9,0.2-1.2,0l-10.2-5.9c-0.4-0.2-0.6-0.6-0.6-1.1V56.9c0-0.4,0.2-0.8,0.6-1.1L631.7,49.9z"/>
		<path class="st0" d="M724.2,75.9c-0.4,0-0.7-0.1-1-0.3l-3.2-1.9c-0.5-0.3-0.2-0.4-0.1-0.4c0.6-0.2,0.8-0.3,1.5-0.7
			c0.1,0,0.2,0,0.2,0l2.5,1.5c0.1,0,0.2,0,0.3,0l9.6-5.6c0.1-0.1,0.1-0.2,0.1-0.3V57.1c0-0.1-0.1-0.2-0.1-0.3l-9.6-5.6
			c-0.1-0.1-0.2-0.1-0.3,0l-9.6,5.6c-0.1,0.1-0.2,0.2-0.2,0.3v11.1c0,0.1,0.1,0.2,0.2,0.3L717,70c1.4,0.7,2.3-0.1,2.3-1v-11
			c0-0.2,0.1-0.3,0.3-0.3h1.2c0.2,0,0.3,0.1,0.3,0.3v11c0,1.9-1,3-2.9,3c-0.6,0-1,0-2.2-0.6l-2.5-1.5c-0.6-0.4-1-1-1-1.8V57.1
			c0-0.7,0.4-1.4,1-1.8l9.6-5.6c0.6-0.3,1.4-0.3,2,0l9.6,5.6c0.6,0.4,1,1,1,1.8v11.1c0,0.7-0.4,1.4-1,1.8l-9.6,5.6
			C724.9,75.8,724.5,75.9,724.2,75.9z"/>
		<path class="st0" d="M727.1,68.2c-4.2,0-5.1-1.9-5.1-3.6c0-0.2,0.1-0.3,0.3-0.3h1.2c0.1,0,0.3,0.1,0.3,0.2
			c0.2,1.3,0.7,1.9,3.3,1.9c2,0,2.9-0.5,2.9-1.5c0-0.6-0.2-1.1-3.4-1.4c-2.6-0.3-4.3-0.8-4.3-3c0-1.9,1.6-3.1,4.4-3.1
			c3.1,0,4.6,1.1,4.8,3.4c0,0.1,0,0.2-0.1,0.2c-0.1,0.1-0.1,0.1-0.2,0.1H730c-0.1,0-0.2-0.1-0.3-0.2c-0.3-1.3-1-1.8-3-1.8
			c-2.2,0-2.5,0.8-2.5,1.4c0,0.7,0.3,0.9,3.3,1.3c3,0.4,4.4,0.9,4.4,3C732,67,730.2,68.2,727.1,68.2z"/>
		<path class="st6" d="M693.4,60.3c0.1,0,0.2,0,0.2,0l2,1.1c0.1,0,0.1,0.1,0.1,0.2v2.3c0,0.1,0,0.2-0.1,0.2l-2,1.1
			c-0.1,0-0.2,0-0.2,0l-2-1.1c-0.1,0-0.1-0.1-0.1-0.2v-2.3c0-0.1,0-0.2,0.1-0.2L693.4,60.3z"/>
		<g>
			<path class="st0" d="M742.5,52.8c0,1-0.8,1.9-1.9,1.9c-1,0-1.9-0.8-1.9-1.9c0-1.1,0.9-1.9,1.9-1.9
				C741.7,50.9,742.5,51.8,742.5,52.8z M739.1,52.8c0,0.9,0.7,1.6,1.6,1.6c0.9,0,1.6-0.7,1.6-1.6c0-0.9-0.7-1.6-1.6-1.6
				C739.8,51.2,739.1,51.9,739.1,52.8z M740,51.8h0.7c0.2,0,0.7,0,0.7,0.6c0,0.4-0.2,0.5-0.4,0.5c0.3,0,0.3,0.2,0.3,0.5
				c0,0.2,0,0.5,0.1,0.6H741c0-0.1-0.1-0.6-0.1-0.7c0-0.1-0.1-0.2-0.2-0.2h-0.4v0.8H740V51.8z M740.4,52.7h0.3
				c0.3,0,0.3-0.2,0.3-0.3c0-0.3-0.2-0.3-0.3-0.3h-0.3V52.7z"/>
		</g>
	</g>
	<g>
		<path class="st0" d="M498.2,131.2c-3.5,0-6.5,0.9-9,2.1c-0.9-1.8-1.8-3.5-2-4.7c-0.2-1.4-0.4-2.2-0.2-3.9c0.2-1.7,1.2-4,1.2-4.2
			s-0.2-1-2.2-1.1s-3.7,0.4-3.9,0.9c-0.2,0.5-0.6,1.7-0.8,3c-0.3,1.8-4,8.3-6.1,11.7c-0.7-1.3-1.3-2.5-1.4-3.4
			c-0.2-1.4-0.4-2.2-0.2-3.9c0.2-1.7,1.2-4,1.2-4.2c0-0.2-0.2-1-2.2-1.1s-3.7,0.4-3.9,0.9c-0.2,0.5-0.4,1.8-0.8,3
			c-0.4,1.2-5.3,12-6.5,14.8c-0.7,1.4-1.2,2.6-1.6,3.4l0,0c0,0,0,0.1-0.1,0.1c-0.3,0.7-0.5,1-0.5,1s0,0,0,0
			c-0.3,0.5-0.6,0.9-0.7,0.9c-0.1,0-0.3-1.3,0-3.1c0.7-3.8,2.4-9.6,2.4-9.8c0-0.1,0.3-1.1-1.1-1.6c-1.4-0.5-1.9,0.3-2,0.3
			c-0.1,0-0.2,0.3-0.2,0.3s1.6-6.6-3-6.6c-2.9,0-6.8,3.1-8.8,6c-1.2,0.7-3.9,2.1-6.7,3.6c-1.1,0.6-2.2,1.2-3.2,1.8
			c-0.1-0.1-0.1-0.2-0.2-0.2c-5.5-5.9-15.8-10.1-15.4-18.1c0.2-2.9,1.2-10.5,19.7-19.8c15.3-7.5,27.4-5.4,29.5-0.8
			c3,6.6-6.5,18.9-22.3,20.6c-6,0.7-9.2-1.6-10-2.5c-0.8-0.9-1-1-1.3-0.8c-0.5,0.3-0.2,1.1,0,1.6c0.5,1.2,2.4,3.4,5.7,4.5
			c2.9,0.9,10,1.5,18.5-1.8c9.6-3.7,17-14,14.8-22.6c-2.2-8.7-16.7-11.6-30.4-6.7c-8.2,2.9-17,7.5-23.4,13.4
			c-7.6,7.1-8.8,13.2-8.3,15.8c1.8,9.1,14.4,15.1,19.4,19.5c-0.3,0.1-0.5,0.3-0.7,0.4c-2.5,1.3-12.1,6.3-14.5,11.6
			c-2.7,6,0.4,10.3,2.5,10.9c6.5,1.8,13.1-1.4,16.7-6.8s3.1-12.3,1.5-15.4c0,0,0-0.1-0.1-0.1c0.7-0.4,1.3-0.8,2-1.2
			c1.3-0.8,2.6-1.5,3.6-2c-0.6,1.7-1.1,3.7-1.3,6.6c-0.3,3.4,1.1,7.8,3,9.6c0.8,0.8,1.8,0.8,2.4,0.8c2.1,0,3.1-1.8,4.2-3.9
			c1.3-2.6,2.5-5.6,2.5-5.6s-1.5,8.1,2.5,8.1c1.5,0,2.9-1.9,3.6-2.8v0c0,0,0-0.1,0.1-0.2c0.1-0.2,0.2-0.4,0.2-0.4v0
			c0.6-1,1.9-3.3,3.8-7.1c2.5-4.9,4.9-11.1,4.9-11.1s0.2,1.5,1,4c0.4,1.5,1.3,3.1,2.1,4.6c-0.6,0.8-0.9,1.3-0.9,1.3s0,0,0,0
			c-0.5,0.6-1,1.3-1.5,1.9c-2,2.4-4.3,5.1-4.7,5.8c-0.4,0.9-0.3,1.6,0.4,2.1c0.5,0.4,1.5,0.5,2.4,0.4c1.8-0.1,3-0.6,3.6-0.8
			c1-0.3,2.1-0.9,3.1-1.6c1.9-1.4,3.1-3.5,3-6.2c-0.1-1.5-0.5-3-1.1-4.4c0.2-0.3,0.3-0.5,0.5-0.8c3.1-4.5,5.4-9.4,5.4-9.4
			s0.2,1.5,1,4c0.4,1.3,1.1,2.6,1.8,4c-2.9,2.3-4.7,5.1-5.3,6.8c-1.1,3.3-0.3,4.8,1.4,5.1c0.8,0.2,1.8-0.2,2.6-0.5
			c1-0.3,2.2-0.9,3.4-1.7c1.9-1.4,3.8-3.4,3.7-6.1c-0.1-1.2-0.4-2.4-0.8-3.6c2.4-1,5.6-1.6,9.6-1.1c8.6,1,10.3,6.4,10,8.7
			s-2.1,3.5-2.7,3.9s-0.8,0.5-0.7,0.8c0.1,0.4,0.4,0.4,0.9,0.3c0.7-0.1,4.5-1.8,4.7-6C512.2,136.9,507.2,131.1,498.2,131.2
			L498.2,131.2z M431.6,153.6c-2.9,3.1-6.9,4.3-8.6,3.3c-1.8-1.1-1.1-5.7,2.4-9c2.1-2,4.9-3.9,6.7-5c0.4-0.3,1-0.6,1.8-1.1
			c0.1-0.1,0.2-0.1,0.2-0.1l0,0c0.1-0.1,0.3-0.2,0.4-0.3C435.9,146.2,434.6,150.3,431.6,153.6L431.6,153.6z M452.5,139.4
			c-1,2.4-3.1,8.6-4.4,8.3c-1.1-0.3-1.8-5-0.2-9.7c0.8-2.3,2.4-5.1,3.4-6.2c1.6-1.7,3.3-2.3,3.7-1.6
			C455.5,131.2,453.1,137.9,452.5,139.4L452.5,139.4z M469.7,147.7c-0.4,0.2-0.8,0.4-1,0.3c-0.1-0.1,0.2-0.4,0.2-0.4s2.2-2.3,3-3.4
			c0.5-0.6,1.1-1.3,1.7-2.2v0.2C473.6,145,470.9,146.9,469.7,147.7L469.7,147.7z M483,144.6c-0.3-0.2-0.3-0.9,0.8-3.2
			c0.4-0.9,1.3-2.4,3-3.8c0.2,0.6,0.3,1.1,0.3,1.7C487,142.8,484.5,144.1,483,144.6L483,144.6z"/>
	</g>
	<g>
		<g>
			<path class="st0" d="M79,145.5c1.5-0.8,3.3-0.9,4.9-0.9c1.8,0,3.8,0.2,5.2,1.3c0.9,0.7,1.3,1.9,1.3,3c-0.6,0-1.1,0-1.7,0
				c-0.2-1.1-0.7-2.3-1.8-2.7c-1.9-0.7-4.1-0.7-6.1-0.1c-1.6,0.4-2.2,2.7-0.9,3.8c0.9,0.7,2,0.8,3.1,1c2.1,0.5,4.4,0.5,6.4,1.5
				c2.1,1.1,2.1,4.5,0.2,5.8c-1.6,1.1-3.5,1.2-5.4,1.2c-2,0-4.2-0.2-5.8-1.5c-1-0.8-1.4-2.2-1.4-3.5c0.6,0,1.2,0,1.8,0
				c0.1,1.3,0.8,2.7,2.1,3.3c2.1,0.8,4.5,0.8,6.7,0.2c1.5-0.4,2.1-2.3,1.4-3.6c-0.3-0.6-1-0.9-1.6-1.1c-2.6-0.7-5.4-0.7-7.9-1.7
				C76.9,150.5,76.8,146.7,79,145.5z"/>
			<g>
				<path class="st0" d="M95.2,145.7c2-1,4.3-1.2,6.5-1c2.1,0.2,4.2,0.9,5.6,2.5c1.8,1.9,2.1,4.7,1.4,7.1c-0.4,1.3-1.3,2.4-2.3,3.3
					c0.8,0.6,1.6,1.1,2.4,1.7c-0.4,0.3-0.7,0.7-1.1,1c-0.8-0.5-1.6-1.2-2.5-1.7c-0.7,0-1.3,0.4-2,0.5c-1.9,0.3-3.8,0.4-5.7,0
					c-2-0.4-4-1.6-5.1-3.4c-1.1-1.8-1.2-4-0.7-6C92.2,148,93.6,146.5,95.2,145.7z M98,146c-1.9,0.5-3.8,1.8-4.4,3.8
					c-0.7,2.1-0.4,4.6,1.1,6.3c1.3,1.5,3.4,2.2,5.4,2.2c2.2,0.1,4.6-0.6,6-2.3c2-2.5,1.7-6.8-0.9-8.8
					C103.2,145.6,100.4,145.5,98,146z"/>
			</g>
			<path class="st0" d="M110.2,145c0.6,0,1.1,0,1.7,0c0,4.3,0,8.6,0,13c3.5,0.1,7,0,10.5,0c0,0.4,0,0.8,0,1.2c-4.1,0-8.1,0-12.2,0
				C110.2,154.4,110.2,149.7,110.2,145z"/>
			<path class="st0" d="M67.4,174.1c3.8-0.8,8-0.7,11.6,0.7c2.6,1,4.8,2.7,6.5,4.8c0.8,1,0.9,2.4,1,3.6c0,3-0.6,5.9-1.3,8.8
				c-1.5,5.3-3.7,10.4-6.5,15.2c-0.3,0.5-0.6,0.9-0.9,1.3c0-0.1-0.1-0.4-0.1-0.5c0.3-0.9,0.9-1.8,1.1-2.7c0.7-2.7,0.1-5.6-0.1-8.3
				c-0.3-2.6,0.6-5.1,0.6-7.7c0.1-1.3-0.4-2.5-0.9-3.6c-1.8-4-4.6-7.5-8.2-9.9C69.3,175.1,68.3,174.7,67.4,174.1z"/>
			<path class="st0" d="M56.8,174.4c4.7-0.6,9.7,0.7,13.4,3.7c3.1,2.4,5.5,5.8,6.9,9.5c-2.2-0.1-4.7-0.2-6.5,1.4
				c-1.6,1.4-1.8,3.7-1.5,5.6c0.8,4.6,3.6,8.6,5.6,12.7c0.5,1,1.3,1.8,1.9,2.7c-0.8,0.4-1.7,0.8-2.2,1.6c-0.8,1.3-0.5,2.9-0.7,4.3
				c-0.5,4.1-0.9,8.1-1.6,12.2c-0.3,1.9-1.1,4-3,5c-1.9,1-4,1.5-6.2,1.2c-2-0.4-3.3-2.2-3.8-4c-0.4-1.5-0.5-3.1-0.6-4.7
				c-0.2-3.8-0.2-7.6-0.1-11.4c0.1-1.5-0.7-3-2-3.7c-0.6-0.4-1.4-0.4-2.1-0.5c0.6-2.8,2.3-5.2,2.8-8c0.8-3.4,0.3-7-0.4-10.4
				c-0.4-1.7-1.7-3.2-3.4-3.6c-2.6-0.7-5.3,0.4-7.7,1.5c0.3-3.8,1.3-7.8,3.7-10.9C51.2,176.4,53.9,174.8,56.8,174.4z"/>
			<path class="st0" d="M36.7,174.8c4.2-0.8,8.5,0,12.5,1.3c-1.8,2-3.2,4.3-4,6.8c-1.1,3.4-1.6,7-1.3,10.5c0.2,2.5,0.1,5-0.3,7.5
				c-0.4,3.2,0.9,6.6,3.3,8.7c-1.6,1.9-3.4,3.7-4.9,5.7c-0.7,0.8-1.6,1.8-2.8,1.6c-1.4-0.4-2.3-1.7-3.1-2.8
				c-2.1-3.4-3.4-7.1-4.5-10.9c-1.3-4.4-2.4-9-3-13.6c-0.3-3.5-0.1-7.2,1.7-10.4C31.5,176.7,34,175.2,36.7,174.8z"/>
			<g>
				<path class="st0" d="M72,190.3c1.5-1.1,3.6-0.9,5.4-0.7c-0.1,2.5-0.8,4.9-0.6,7.4c0.2,3.1,1.1,6.4-0.3,9.3
					c-1.9-3.9-4.5-7.6-5.3-11.9C70.8,193,70.8,191.3,72,190.3z M72.6,190.9c-0.5,0.4,0,1.1,0.5,1.3c1.1,0.6,2.5-0.3,2.6-1.5
					C74.7,190.2,73.4,190.3,72.6,190.9z"/>
			</g>
			<g>
				<path class="st0" d="M45.8,191.9c1.9-1.3,4.2-2.2,6.6-2.1c1.2,0.1,2.3,0.9,2.6,2.1c1.1,4.2,1.4,9-0.6,13
					c-0.7,1.6-1.3,3.2-1.8,4.8c-3.4,0-6.3-2.8-6.9-6.1c-0.4-1.8,0.1-3.7,0.2-5.5C46,196,45.8,194,45.8,191.9z M51.2,191
					c-0.3,0.1-0.6,0.3-0.5,0.7c0.2,1.2,1.9,2,2.9,1.2c0.5-0.3,0.9-1,0.4-1.4C53.2,190.8,52.1,190.7,51.2,191z"/>
			</g>
			<path class="st0" d="M76.4,212.3c0.5-0.4,1.2-0.7,1.8-0.3c2.5,1.3,5.3,0.7,8,0.3c-1.6,1.6-3.8,2.3-6,2.5c-1.4,0.2-3,0.2-4.4-0.3
				C75.8,213.8,75.8,212.9,76.4,212.3z"/>
			<path class="st0" d="M51.5,215.3c1.4-0.8,2-2.4,3.3-3.3c1.4-0.2,2.5,1.9,1.4,3c-2.1,2.9-6.4,3.4-9.5,1.9
				C48.2,216.1,50,216.2,51.5,215.3z"/>
		</g>
		<g>
			<g>
				<path class="st0" d="M2,145c2.6,0,5.3,0,7.9,0c1.2,0,2.6,0.2,3.5,1.1c1.3,1.1,1.5,3.1,1,4.6c-0.7,1.7-2.5,2.4-4.2,2.5
					c-2.3,0-4.5,0-6.8,0c0,2,0,4,0,6c-0.5,0-0.9,0-1.4,0C2,154.4,2,149.7,2,145z M3.5,146.1c0,2,0,3.9,0,5.9c2.1,0,4.2,0,6.3,0
					c1.2,0,2.5-0.4,3-1.6c0.4-1.1,0.3-2.4-0.4-3.3c-0.7-0.8-1.9-1-2.9-1C7.5,146.1,5.5,146.1,3.5,146.1z"/>
			</g>
			<path class="st0" d="M39.8,146.8c0.5,0,1,0,1.5,0c0,1,0,2,0,3c0.8,0,1.7,0,2.5,0c0,0.3,0,0.7,0,1c-0.8,0-1.7,0-2.5,0
				c0,2,0,4,0,5.9c0,0.5,0,1,0.4,1.3c0.6,0.3,1.4,0.2,2.1,0.2c0,0.3,0,0.6,0,0.9c-1.1,0.1-2.2,0.2-3.2-0.3c-0.6-0.3-0.8-1-0.8-1.6
				c0-2.1,0-4.3,0-6.4c-0.6,0-1.2,0-1.9,0c0-0.3,0-0.6,0-1c0.6,0,1.2,0,1.8,0C39.8,148.8,39.8,147.8,39.8,146.8z"/>
			<g>
				<path class="st0" d="M18.5,149.6c1.8-0.3,3.9-0.2,5.5,0.7c2.5,1.4,2.8,5.2,1.1,7.3c-1.5,1.7-3.9,1.9-6,1.7
					c-1.7-0.1-3.4-0.9-4.2-2.5c-0.7-1.4-0.7-3.2-0.1-4.7C15.5,150.7,17,149.9,18.5,149.6z M19.2,150.6c-1.4,0.2-2.7,1-3.1,2.4
					c-0.5,1.5-0.3,3.4,0.9,4.5c1,0.9,2.3,1.1,3.6,1c1.1,0,2.3-0.3,3.2-1.2c0.9-0.9,1-2.2,0.9-3.4c-0.1-1-0.6-2.1-1.5-2.6
					C22,150.5,20.5,150.4,19.2,150.6z"/>
			</g>
			<path class="st0" d="M28.2,150.3c1-0.6,2.1-0.7,3.2-0.8c1.6,0,3.3,0,4.6,0.9c0.8,0.5,1,1.4,1.1,2.2c-0.5,0-1,0-1.5,0
				c-0.1-0.7-0.4-1.4-1.1-1.7c-1.2-0.6-2.7-0.5-4-0.3c-0.8,0.1-1.8,0.6-1.9,1.5c-0.1,0.7,0.6,1.2,1.1,1.3c1.8,0.4,3.6,0.4,5.4,0.8
				c0.8,0.2,1.6,0.5,2.1,1.2c0.6,1,0.2,2.5-0.8,3.2c-1.3,0.8-2.8,0.8-4.3,0.8c-1.4-0.1-3-0.1-4.2-0.9c-0.7-0.5-1-1.4-1.1-2.3
				c0.5,0,1.1,0,1.6,0c0,1.1,1,2,2.1,2.1c1.6,0.2,3.3,0.4,4.8-0.4c1-0.5,0.9-2.2-0.2-2.5c-2.2-0.6-4.6-0.4-6.7-1.2
				C26.9,153.6,26.8,151.2,28.2,150.3z"/>
			<g>
				<path class="st0" d="M48.1,149.8c1.5-0.3,3.1-0.4,4.6,0.1c0.8,0.2,1.4,0.9,2.1,1.5c0-0.5,0-1,0.1-1.5c0.5,0,0.9,0,1.4,0
					c0.1,2.9,0,5.7,0.1,8.6c0,1.2-0.2,2.5-1.1,3.3c-1.2,1.1-2.9,1.3-4.5,1.3c-1.4,0-2.9-0.1-4.1-0.7c-0.9-0.5-1.3-1.4-1.5-2.3
					c0.5,0,0.9,0,1.4,0c0.3,0.6,0.5,1.4,1.2,1.7c1,0.5,2.1,0.5,3.2,0.5c1.2,0,2.6-0.3,3.3-1.3c0.7-1,0.6-2.3,0.6-3.5
					c-1.5,1.5-3.8,1.8-5.8,1.6c-1.3-0.1-2.6-0.6-3.4-1.6c-1-1.2-1.1-3-0.8-4.5C45.2,151.2,46.6,150.1,48.1,149.8z M49.3,150.6
					c-1,0.2-2.1,0.7-2.7,1.6c-0.7,1.1-0.7,2.5-0.2,3.7c0.5,1.2,1.8,1.8,3,2c1.6,0.2,3.4,0,4.5-1.2c1.3-1.5,1.1-4.2-0.6-5.4
					C52.2,150.5,50.7,150.4,49.3,150.6z"/>
			</g>
			<path class="st0" d="M60.7,149.9c1.1-0.5,2.2-0.4,3.4-0.4c0,0.4,0,0.8,0,1.2c-1.2,0-2.4-0.2-3.4,0.6c-1,0.7-1.3,1.9-1.3,3
				c0,1.6,0,3.2,0,4.8c-0.5,0-1,0-1.4,0c0-3.1-0.1-6.2,0-9.3c0.5,0,1,0,1.4,0c0,0.5,0,1.1,0,1.6C59.7,150.8,60.1,150.2,60.7,149.9z"
				/>
			<g>
				<path class="st0" d="M64.6,151.8c1-1.6,2.9-2.2,4.6-2.3c1.8-0.1,3.8,0.2,5.2,1.5c1,0.9,1.3,2.3,1.4,3.7c-3.4,0-6.9,0-10.3,0
					c0.1,0.9,0.4,1.9,1.1,2.5c1.3,1.2,3.4,1.3,5.1,1c1.1-0.2,2-1.1,2.4-2.2c0.5,0,1.1,0,1.6,0c-0.5,1.6-1.8,2.7-3.4,3.1
					c-2.1,0.5-4.6,0.4-6.4-0.9C63.8,156.8,63.4,153.8,64.6,151.8z M67.2,151.1c-1,0.5-1.5,1.7-1.8,2.8c2.9,0,5.9,0,8.8,0
					c-0.1-0.7-0.3-1.3-0.8-1.9C72,150.2,69.2,150,67.2,151.1z"/>
			</g>
			<g>
				<path class="st0" d="M64.2,171c4.1-1.1,8.5-1.5,12.7-0.7c3.8,0.7,7.5,2.5,10.2,5.2c1.2,1.2,2.5,2.6,2.9,4.3c0.8,3,0.5,6.1,0,9.1
					c-1.3,7.2-4.1,14-7.7,20.2c1.6,0,3.2-0.5,4.8-0.6c1.6-0.1,3.3,0.9,3.7,2.5c0.5,1.7-0.6,3.4-1.9,4.4c-3.2,2.8-7.6,3.8-11.8,3.5
					c-0.3,4.3-0.3,8.8-2.2,12.8c-0.8,1.8-2.1,3.4-3.8,4.4c-1.6,1-3.5,1.5-5.3,1.8c-2,0.4-4.2,0.2-6-1c-1.6-1-2.6-2.7-3.2-4.5
					c-1.4-3.7-1.3-7.8-1.5-11.7c-2.8,1.1-6.1,1.1-8.9,0.1c-1-0.4-1.9-1-2.7-1.7c-1.5,1.2-3.5,1.9-5.4,1.3c-2.4-0.7-4.1-2.7-5.4-4.7
					c-2.2-3.6-3.6-7.7-4.8-11.8c-1.4-4.7-2.5-9.5-3.1-14.3c-0.3-4.3,0-8.9,2.4-12.7c1.9-3.1,5.2-5.1,8.7-5.8c5-1,10.1,0,14.9,1.5
					c1.5-0.7,3.1-1.5,4.8-1.7C58.3,170.3,61.3,170.6,64.2,171z M64.1,172.9c-0.4,0.1-0.7-0.1-1.1-0.1c-4.1-0.8-8.6-0.5-12.1,1.9
					c-4.2-1.5-8.8-2.4-13.3-2c-3.4,0.3-6.7,1.9-8.6,4.8c-2.4,3.6-2.8,8.1-2.4,12.3c0.8,5.5,2.1,11,3.9,16.3c1.1,3.3,2.4,6.7,4.4,9.6
					c1,1.4,2.4,2.9,4.2,3.1c1.6,0.2,3.1-0.8,4.1-2c1.7-2.1,3.5-4.1,5.3-6.1c1.2,0.6,2.5,0.9,3.8,1c-0.7,0.9-1.3,2-2.5,2.3
					c-1.5,0.6-3.4,0.5-4.7,1.5c-0.8,0.6-0.8,1.8-0.1,2.4c1.3,1.2,3.2,1.5,4.9,1.7c2.4,0.2,4.9-0.6,6.7-2.2c0,3.8,0,7.7,0.4,11.5
					c0.2,2.2,1.2,4.5,2.9,6c1.6,1.4,3.9,1.7,5.9,1.3c2-0.4,4-1,5.6-2.3c1.7-1.5,2.4-3.7,2.7-5.8c0.6-3.8,1-7.6,1.5-11.4
					c4.3,0.7,9.1-0.1,12.3-3.2c0.7-0.6,1.3-1.8,0.7-2.6c-0.7-0.8-1.9-0.6-2.8-0.4c-2.2,0.4-4.6,0.8-6.7-0.1c3.8-6,6.8-12.5,8.4-19.4
					c0.6-2.6,1.1-5.3,1-8c-0.1-1.5-0.3-3.1-1.2-4.4c-2.3-3-5.6-5.2-9.2-6.2C73.5,171.2,68.6,171.5,64.1,172.9z"/>
			</g>
		</g>
	</g>
	<g>
		<path class="st0" d="M623.7,189.4c0-11.8,4.2-21.8,12.5-30.2c8.3-8.3,18.4-12.5,30.2-12.5c11.8,0,21.8,4.2,30.2,12.5
			c8.3,8.3,12.5,18.4,12.5,30.2c0,11.8-4.2,21.8-12.5,30.2c-8.3,8.3-18.4,12.5-30.2,12.5c-11.8,0-21.8-4.2-30.2-12.5
			C627.8,211.3,623.7,201.2,623.7,189.4L623.7,189.4z M628.3,189.4c0,10.4,3.7,19.4,11.2,26.8c7.4,7.4,16.4,11.2,26.8,11.2
			c10.4,0,19.4-3.7,26.8-11.2c7.4-7.4,11.2-16.4,11.2-26.8c0-10.4-3.7-19.4-11.2-26.8c-7.4-7.4-16.4-11.2-26.8-11.2
			c-10.4,0-19.4,3.7-26.8,11.2C632.1,170,628.3,179,628.3,189.4L628.3,189.4z M640.3,198.6c-0.2-0.2-0.2-0.4,0-0.7
			c0.4-0.4,1-0.6,1.7-0.5c0.7,0.1,1.1,0.2,1.2,0.3c0.8,0.3,1.6,1.1,2.6,2.3c0.9,1.2,1.7,2,2.3,2.4c2.7,2.2,5.4,2.4,8.2,0.5
			c0.2-0.8,0.6-1.4,1.1-2c0.5-0.6,1-0.9,1.4-1.2c0.4-0.2,1.2-0.6,2.3-1c-3.7-0.3-6.6-1-8.9-1.9c-2.3-0.9-4.1-2.1-5.4-3.6
			c-1.8-2-2.9-4.6-3.3-7.8c-0.4-3.2-0.1-6.2,0.8-8.8c0.7-1.7,1.6-3.2,2.8-4.5c-0.9-2.8-0.7-5.9,0.5-9.5c3.6,0.2,6.8,1.4,9.7,3.7
			c5.6-1.4,11.3-1.5,17.3-0.2c0.8-0.6,2-1.3,3.6-2.1c1.6-0.8,3.6-1.3,6.1-1.4c0.4,1.2,0.8,2.7,0.9,4.3s0.1,3.2-0.2,4.7
			c2.6,2.7,3.9,6.2,4,10.7c0,3.6-0.6,6.5-1.8,8.8s-3.4,4.3-6.5,5.8c-2.1,1-4.9,1.6-8.3,1.8c1.6,0.8,2.7,1.6,3.4,2.4s1.2,2.1,1.4,3.9
			v5.3c0,0,0.1,1.7,0.2,5.1c0.3,0.6,0.7,1,1.2,1.4c0.4,0.4,0.8,0.7,1.2,0.8c0.3,0.2,0.4,0.4,0.3,0.8c-0.1,0.3-0.6,0.5-1.3,0.5
			c-1.9,0-3.4-0.7-4.5-2c-0.3-0.6-0.5-1.2-0.5-2v-8c0-0.9-0.2-1.5-0.7-1.9c-0.4-0.4-0.9-0.6-1.3-0.8v10.5c0,1.9,0.2,3.1,0.7,3.7
			s0.7,1.1,0.8,1.7c0.1,0.1,0,0.2-0.2,0.3c-0.3,0.1-0.8,0-1.4-0.3c-1.4-0.3-2.4-1.1-3-2.3s-0.8-2.4-0.8-3.8v-10.3h-2.2v10.3
			c0,1.3-0.3,2.6-0.8,3.8c-0.8,1.6-2.2,2.4-4.3,2.5c-0.3-0.1-0.5-0.2-0.5-0.3c0.1-0.1,0.4-0.7,1-1.7c0.1-0.2,0.3-0.7,0.4-1.3
			c0.2-0.7,0.3-1.4,0.2-2.3v-10.5c-0.4,0.1-0.9,0.4-1.3,0.8c-0.4,0.4-0.6,1-0.6,1.9v8c0,0.8-0.2,1.4-0.5,2c-1,1.3-2.5,2-4.5,2
			c-0.8,0-1.2-0.2-1.3-0.5c-0.1-0.2-0.1-0.4,0.1-0.6c0.2-0.2,0.4-0.4,0.8-0.6c0.3-0.2,0.6-0.4,0.7-0.5c0.4-0.3,0.8-0.8,1-1.3
			c0.3-0.4,0.4-1.6,0.2-3.5c-0.2-1.9-0.2-3.1-0.1-3.7c-2.9,1-5.8,0.5-8.8-1.5c-0.9-0.9-1.8-2.2-2.7-3.8
			C643.7,201.7,642.3,200.3,640.3,198.6L640.3,198.6z"/>
	</g>
	<g>
		<g transform="translate(26.592321, 248.822656)">
			<path class="st0" d="M6.3-169v14.2h3.6v-3.7l3.3,3.3h5.5l-4.4-4.4c0,0,3.2-0.1,3.4-4.6c0-4.2-3.2-4.7-6.8-4.7H6.3L6.3-169z
				 M10.1-165.2h3.1v2.5h-3.1V-165.2L10.1-165.2z"/>
			<path class="st0" d="M25.7-169c-2,0-4.7,0.2-4.7,3.9v9.8h3.7v-2.4h3.6v2.3H32v-10.3c0-3.2-3.6-3.4-5.5-3.4
				C26.2-169,26-169,25.7-169L25.7-169z M24.7-165.4h3.5v3.9h-3.5V-165.4L24.7-165.4z"/>
			<rect x="35.7" y="-169" class="st0" width="3.8" height="13.5"/>
			<path class="st0" d="M43.6-168.8v13.5h9.2v-3.6h-5.5v-10L43.6-168.8z"/>
			<path class="st0" d="M65-168.9v3.7h-6.2v1.3h2.6c1.4,0,4.3-0.1,4.3,4.3s-2,4.6-6,4.6h-4.9v-3.3h5.6c1.7,0,1.8-0.5,1.8-1
				s-0.9-0.7-2.6-0.7c-1.7,0-5-0.9-5-4.2s1.7-4.6,5-4.6C63-169,65-168.9,65-168.9L65-168.9z"/>
		</g>
		<g transform="translate(14.055544, 16.892288)">
			<path class="st0" d="M22.2,58.9h31.9c0,0-7.1-16.1-5.3-30.8c1.8-14.7,13.4-21.5,20-22.2C75.4,5.2,79,9.3,79,9.3l1.4-2.2
				c0,0-9.5-9.6-21.5-8.5c-12,1.1-20.3,9-25.4,18.6c-5.2,9.6-8.1,16.3-10.2,26.4S22.2,58.9,22.2,58.9L22.2,58.9z"/>
			<path class="st0" d="M15.8,42.8l6.2,0.5L21,49.5l-5.9-0.7L15.8,42.8z"/>
			<path class="st0" d="M25.6,29.6l1.7-4.7l-5.5-2.2l-1.8,5L25.6,29.6z"/>
			<path class="st0" d="M33.4,13.6l3.2-3.8L32.5,7l-3.4,3.7L33.4,13.6z"/>
			<path class="st0" d="M41.9-1.3l2.9,3.5l4-2.3l-2.9-3.2L41.9-1.3z"/>
			<path class="st0" d="M56-5.2l0.7,3.5l4.9-0.1L61.1-5L56-5.2z"/>
			<path class="st0" d="M72.6-1.5l-0.1,2.2l3.4,1.8l0.7-1.1L72.6-1.5z"/>
			<path class="st0" d="M71.9,7.7v1.8l3.2,0.4V8.4L71.9,7.7z"/>
			<path class="st0" d="M61.6,9.3l1.6,2.9l2.3-1.8L65,8.4L61.6,9.3z"/>
			<path class="st0" d="M56.7,13l2.4,3.6l-1.4,2.5l-3.5-3.8L56.7,13z"/>
			<path class="st0" d="M51.9,22.9L50.3,26l4.1,3.5l1-4L51.9,22.9z"/>
			<path class="st0" d="M50.2,33.8L50,38l5,2.2l-0.2-4L50.2,33.8z"/>
			<path class="st0" d="M51.7,48.7l1.2,4.3l6.4,0.4l-2.3-4.7H51.7z"/>
		</g>
		<path class="st0" d="M26.8,101.9c0,0,0,0,0-0.3c0-0.3,0-0.3,0-0.8c0-0.8,0-1.8,0-2.9c0-3.1,0-6.6,0-10.4C27,76.8,27,66,27,55.9
			c0-5.2,0-9.8-0.1-16.2c-0.3-19.5-0.2-23.2,1.5-26.8C30,9.4,33,8.5,42.4,8.5h56.1l-0.9-0.9v64.8c0,2,0,3.7,0.1,6.6
			c0.2,11.1,0,14.3-1.8,17.2c-2.1,3.4-6.6,4.9-15.7,4.9c-5.1,0-11.2,0-18,0c-5.4,0-11.2,0-17.2-0.1c-4.8,0-9.3,0-13.6-0.1
			c-1.5,0-2.8,0-4,0c-0.4,0-0.6,0-1.1,0c-0.3,0-0.3,0-0.4,0L26.8,101.9L26.8,101.9z M25,102.8l0.9,0c0.1,0,0.1,0,0.4,0
			c0.4,0,0.7,0,1.1,0c1.2,0,2.5,0,4,0c4.3,0,8.8,0,13.6,0.1c5.9,0,11.7,0.1,17.2,0.1c6.8,0,12.8,0,18,0c9.7,0,14.8-1.7,17.3-5.8
			c2.1-3.4,2.3-6.6,2.1-18.2c-0.1-2.9-0.1-4.6-0.1-6.6V7.6V6.7h-0.9H42.4c-10.1,0-13.7,1.1-15.8,5.5c-1,2.2-1.5,5.3-1.7,10
			c-0.1,3.6-0.1,5.7,0.1,17.6c0.1,6.4,0.1,10.9,0.1,16.2c0,10.1,0,20.9-0.1,31.7c0,3.8,0,7.3,0,10.4c0,1.1,0,2.1,0,2.9
			c0,0.5,0,0.5,0,0.8C25,101.8,25,102.8,25,102.8z"/>
	</g>
	<g>
		<g>
			<path class="st0" d="M528.1,197.4l-8.6,12l-0.8-3.1H513c0,0,0.6,2.8,1,4.3c0.4,1.4,1.1,2.9,1.2,4.3c0,1.6-0.8,4.7-0.8,4.7l5.5,0
				c0,0,0.6-3,1.2-4.3c0.2-0.5,0.7-1,1-1.4c0.9-1.2,12.1-16.4,12.1-16.4L528.1,197.4z"/>
			<path class="st0" d="M516.7,200.6c-1.2-0.7-4.1-0.4-6.6-0.4h-3.8c-2.4,0-3.8-0.2-4,0.8c-0.7,2.9-3.9,18.6-3.9,18.6h5.1l3.3-14.5
				h2.7c3.2,0,9-0.1,9-0.1S517.8,201.3,516.7,200.6z"/>
			<path class="st0" d="M497.2,202.1c-1.1-1.5-3.2-2-4.7-2.2c-3.8-0.4-7,0.6-8.8,2c-0.5,0.4-1,0.7-1.4,1.2c-0.1,0.2-0.3,0.3-0.4,0.5
				c-0.1,0.2-0.2,0.3-0.4,0.4c-0.2,0.2-0.3,0.7-0.5,1.1c-0.2,0.3-0.3,0.7-0.4,1c-1.1,2.6-2.1,7.6-1.2,10.2c0.1,0.4,0.5,0.9,0.6,1
				c0.1,0.2,0.3,0.4,0.4,0.6c0.5,0.6,1.3,1,2.2,1.2c4.2,1,12.7,0.6,12.7,0.6l1-4.6c0,0-6,0.3-8.9-0.1c-0.4-0.1-1.6-0.1-2.2-0.7
				c-0.5-0.5-1.2-1.6-0.7-2.3c0.3-0.5,1.6-0.4,2.7-0.4c3.5-0.1,10,0,10,0s1.2-5.5,0.6-7.8C497.7,203.3,497.5,202.5,497.2,202.1z
				 M493,207.6l-7.6,0c0,0-0.1-3.3,4.3-3.1c1.6,0,2.1,0.3,2.7,1.2C493.2,206.7,493,207.6,493,207.6z"/>
			<path class="st0" d="M474.5,200.2l-3.5,14.7c0,0-1.9,0-2.5,0c-1.9,0-2.5-0.1-2.9-1c-0.5-0.9,0-2.1,0.2-3.3c0.6-3.5,2-10.4,2-10.4
				l-5.1,0c0,0-1,4.5-1.4,6.6c-0.7,3.1-2,7.6-0.6,10.4c1.5,2.8,5,2.3,9,2.3h5.7c1.4-6.4,4.1-19.4,4.1-19.4L474.5,200.2z"/>
			<path class="st0" d="M458.3,202.3c-0.3-2.2-1.7-4.6-3.3-5.6c-0.1,0-0.3-0.3-0.4-0.3c-1.2-0.7-3-1.2-4.3-1.4
				c-6.7-0.7-10.6,2.3-12.9,6.3c-0.9,1.6-1.5,3.3-2,5.1c-0.5,2-0.9,4.4-0.6,6.6c0.2,1.3,0.9,3.2,2,4.3c2.6,2.7,7.7,2.3,13.1,2.3
				c1.7,0,5.7,0,6.9-0.1c0.4,0,1.5-4.6,1.4-4.7c-0.1-0.1-1.4,0-2.9-0.1C456.7,210.9,458.8,206.4,458.3,202.3z M451.4,209.5
				c-0.5,1.7-1,3.5-1.6,5.1c-4,0-7.6,0.5-8.8-2c-0.7-1.4-0.4-3.3,0-5.1c0.5-2.4,1-4.2,2.3-5.7c1.1-1.2,3.8-2.6,6.6-1.6
				c1,0.3,2.4,1.9,2.5,3.7C452.7,205.7,452,207.7,451.4,209.5z"/>
			<path class="st0" d="M427.8,204.8h5.5c0.3-1.5,0.7-3.2,1-4.7c-1.9,0-3.6,0-5.3,0C428.5,201.6,428.2,203.2,427.8,204.8z"/>
			<path class="st0" d="M425.4,215.2c-0.8,3.8-0.9,7.7-5.1,7.2c-0.4,1.5-0.9,3.4-1.4,5.1c1.7,0,3.3,0.2,4.7,0
				c0.9-0.1,2.4-0.5,2.7-0.8c0.1-0.1,0.2-0.1,0.4-0.2c1.8-1.4,2.3-3.4,2.9-6.1c1.1-4.3,2.4-10.5,3.1-14.3h-5.3
				C427.3,207.1,425.9,213,425.4,215.2z"/>
		</g>
		<g>
			<path class="st0" d="M393.3,202.7l0.1-0.4c-0.1,0,0.5-0.9,0.4-0.9c-4.2,4.1-3.8,9.5-1.8,13.4c1.4,2.7,4,5.3,7,6.6
				c1.4,0.6,3.6,1.2,5.9,1.2c4.9-0.1,8.3-2.4,10.2-6.2l0.1-0.3c-1.7,1.7-4.5,2.9-6.6,3.1C399.6,220.2,390.3,212.1,393.3,202.7z"/>
			<path class="st0" d="M405.3,204.1c1.2,1.9,3.5,3.6,7,2.9c0.9-0.2,2.9-1.7,3.3-2.5c-3.1,2.1-4.9,1.4-5.8,1.1
				c-0.2-0.1-0.7-0.3-1.1-0.5c-0.9-0.6-1.4-0.8-2.2-1.9c-0.4-0.6-0.8-1.5-0.9-2.1c-0.2-0.9-0.2-2.2,0.3-3.4
				c-1.4,1.2-1.6,3.6-1.1,5.2C404.8,203,405.1,203.8,405.3,204.1z"/>
			<path class="st0" d="M406.3,214.2c4.8,0.6,8.3-1.4,9.6-4.5c-1.4,1.5-3.8,2.6-6.1,2.5c-5.1,0-10.8-4.6-10.2-10.9
				c0.1-0.5,0.3-1.4,0.9-2.5c-1.7,2.1-2.7,3.9-2.4,6.8C398.5,209.7,402.3,213.7,406.3,214.2z"/>
		</g>
	</g>
	<g>
		<path class="st0" d="M854.3,26h-35l6.6,71.2l28.5,8.1l28.5-8.1l6.6-71.2H854.3z M872.2,85.1l-17.9,5.1l-17.9-5.1l-1.3-13.6h8.9
			l0.6,6.8l9.8,2.8l9.6-2.8l1-11.3h-10.6h-19.5l-0.1,0.2l2.5-26.7h17.1h18.3l1.9,14h-8.9l-0.3-5.1h-11h-9.9l-0.4,8.9h10.3h20.4
			L872.2,85.1z"/>
		<g class="st7">
			<polygon class="st5" points="864.9,67.1 854.3,67.1 854.3,81.1 863.9,78.3 			"/>
			<polygon class="st5" points="854.3,31.8 854.3,40.6 872.6,40.6 874.6,54.5 865.6,54.5 865.3,49.4 854.3,49.4 854.3,58.3 
				874.7,58.3 872.2,85.1 854.3,90.2 854.3,99.3 877.3,92.7 882.9,31.8 			"/>
		</g>
		<g>
			<polygon class="st0" points="847.5,15.5 841.2,15.5 841.2,20 847.5,20 850.8,20 851.9,20 851.9,6.7 847.5,6.7 			"/>
			<path class="st0" d="M867.3,6.8h-10.9c0,0,0,2.3,0,4.7c1.5,1.5,2.2,2.1,4.3,4.3c-1.2,0-4.3,0-4.3,0v4.2h10.9v-4.2l-4.3-4.3h4.3
				V6.8z"/>
		</g>
	</g>
	<g>
		<g>
			<path class="st0" d="M414.4,41.5c0.6-0.5,0.9-1.2,0.9-2.1c0-1-0.3-1.8-0.8-2.2c-0.5-0.4-1.3-0.6-2.2-0.6h-5.8v5.6h5.8
				C413.1,42.2,413.8,41.9,414.4,41.5z"/>
			<path class="st0" d="M412.7,44.8h-6.3v6.4h6.3c1.1,0,1.9-0.3,2.5-0.8c0.6-0.6,0.9-1.4,0.9-2.4c0-1-0.3-1.8-0.9-2.3
				C414.6,45,413.8,44.8,412.7,44.8z"/>
			<path class="st0" d="M422.5,26h-23.3c-3.2,0-5.8,2.6-5.8,5.8v23.3c0,3.2,2.6,5.8,5.8,5.8h23.3c3.2,0,5.8-2.6,5.8-5.8V31.9
				C428.3,28.7,425.7,26,422.5,26z M419.3,50.6c-0.3,0.7-0.7,1.3-1.3,1.8c-0.6,0.5-1.4,0.9-2.3,1.2c-1,0.3-2.1,0.4-3.4,0.4h-9.4
				V33.6h9.9c1.8,0,3.3,0.4,4.4,1.3s1.7,2.1,1.7,3.8c0,1-0.3,1.9-0.8,2.6c-0.5,0.7-1.2,1.3-2.2,1.7v0.1c1.3,0.3,2.2,0.9,2.9,1.8
				c0.6,0.9,1,2.1,1,3.5C419.7,49.2,419.6,49.9,419.3,50.6z"/>
		</g>
		<g>
			<path class="st0" d="M435.9,51.2V34.8h6.2c1.3,0,2.3,0.2,3,0.5c0.8,0.3,1.4,0.8,1.8,1.5c0.4,0.7,0.6,1.4,0.6,2.2
				c0,0.7-0.2,1.4-0.6,2c-0.4,0.6-1,1.1-1.7,1.5c1,0.3,1.8,0.8,2.3,1.5c0.5,0.7,0.8,1.5,0.8,2.5c0,0.8-0.2,1.5-0.5,2.1
				c-0.3,0.7-0.7,1.2-1.2,1.5c-0.5,0.4-1.1,0.6-1.8,0.8c-0.7,0.2-1.6,0.3-2.6,0.3H435.9z M438.1,41.7h3.5c1,0,1.7-0.1,2.1-0.2
				c0.6-0.2,1-0.4,1.2-0.8c0.3-0.4,0.4-0.9,0.4-1.4c0-0.5-0.1-1-0.4-1.4c-0.3-0.4-0.6-0.7-1.1-0.9c-0.5-0.2-1.3-0.2-2.5-0.2h-3.3
				V41.7z M438.1,49.3h4.1c0.7,0,1.2,0,1.5-0.1c0.5-0.1,0.9-0.2,1.3-0.4c0.3-0.2,0.6-0.5,0.8-0.9c0.2-0.4,0.3-0.9,0.3-1.4
				c0-0.6-0.2-1.1-0.5-1.6c-0.3-0.5-0.7-0.8-1.3-1c-0.6-0.2-1.4-0.3-2.4-0.3h-3.8V49.3z"/>
			<path class="st0" d="M450.3,45.3c0-2.2,0.6-3.8,1.8-4.9c1-0.9,2.3-1.3,3.7-1.3c1.6,0,3,0.5,4,1.6c1,1.1,1.6,2.5,1.6,4.4
				c0,1.5-0.2,2.7-0.7,3.6c-0.5,0.9-1.1,1.6-2,2c-0.9,0.5-1.8,0.7-2.9,0.7c-1.7,0-3-0.5-4-1.6C450.8,48.8,450.3,47.3,450.3,45.3z
				 M452.4,45.3c0,1.5,0.3,2.7,1,3.4c0.7,0.8,1.5,1.1,2.5,1.1c1,0,1.8-0.4,2.5-1.1c0.7-0.8,1-1.9,1-3.5c0-1.5-0.3-2.6-1-3.3
				c-0.7-0.8-1.5-1.1-2.5-1.1c-1,0-1.8,0.4-2.5,1.1C452.7,42.6,452.4,43.8,452.4,45.3z"/>
			<path class="st0" d="M463,45.3c0-2.2,0.6-3.8,1.8-4.9c1-0.9,2.3-1.3,3.7-1.3c1.6,0,3,0.5,4,1.6c1,1.1,1.6,2.5,1.6,4.4
				c0,1.5-0.2,2.7-0.7,3.6c-0.5,0.9-1.1,1.6-2,2c-0.9,0.5-1.8,0.7-2.9,0.7c-1.7,0-3-0.5-4-1.6C463.5,48.8,463,47.3,463,45.3z
				 M465.1,45.3c0,1.5,0.3,2.7,1,3.4c0.7,0.8,1.5,1.1,2.5,1.1c1,0,1.8-0.4,2.5-1.1c0.7-0.8,1-1.9,1-3.5c0-1.5-0.3-2.6-1-3.3
				c-0.7-0.8-1.5-1.1-2.5-1.1c-1,0-1.8,0.4-2.5,1.1C465.4,42.6,465.1,43.8,465.1,45.3z"/>
			<path class="st0" d="M480.9,49.4l0.3,1.8c-0.6,0.1-1.1,0.2-1.5,0.2c-0.7,0-1.3-0.1-1.7-0.3c-0.4-0.2-0.7-0.5-0.9-0.9
				c-0.2-0.4-0.2-1.2-0.2-2.4v-6.8h-1.5v-1.6h1.5v-2.9l2-1.2v4.2h2v1.6h-2v6.9c0,0.6,0,0.9,0.1,1.1c0.1,0.2,0.2,0.3,0.3,0.4
				c0.2,0.1,0.4,0.1,0.7,0.1C480.3,49.5,480.6,49.5,480.9,49.4z"/>
			<path class="st0" d="M482.1,47.7l2-0.3c0.1,0.8,0.4,1.4,0.9,1.8c0.5,0.4,1.2,0.6,2.1,0.6c0.9,0,1.6-0.2,2.1-0.6
				c0.4-0.4,0.7-0.8,0.7-1.3c0-0.5-0.2-0.8-0.6-1.1c-0.3-0.2-1-0.4-2.1-0.7c-1.5-0.4-2.5-0.7-3.1-1c-0.6-0.3-1-0.6-1.3-1.1
				c-0.3-0.5-0.4-1-0.4-1.6c0-0.5,0.1-1,0.4-1.5c0.2-0.5,0.6-0.8,1-1.1c0.3-0.2,0.7-0.4,1.3-0.6c0.5-0.2,1.1-0.2,1.7-0.2
				c0.9,0,1.8,0.1,2.5,0.4c0.7,0.3,1.2,0.6,1.6,1.1c0.3,0.5,0.6,1.1,0.7,1.8l-2,0.3c-0.1-0.6-0.3-1.1-0.8-1.4
				c-0.4-0.3-1-0.5-1.8-0.5c-0.9,0-1.6,0.2-2,0.5c-0.4,0.3-0.6,0.7-0.6,1.1c0,0.3,0.1,0.5,0.2,0.7c0.2,0.2,0.4,0.4,0.8,0.5
				c0.2,0.1,0.8,0.2,1.8,0.5c1.4,0.4,2.4,0.7,3,0.9c0.6,0.2,1,0.6,1.3,1.1c0.3,0.5,0.5,1,0.5,1.7c0,0.7-0.2,1.3-0.6,1.9
				c-0.4,0.6-1,1.1-1.7,1.4c-0.7,0.3-1.6,0.5-2.5,0.5c-1.5,0-2.7-0.3-3.5-1C482.8,49.9,482.3,49,482.1,47.7z"/>
			<path class="st0" d="M498.8,49.4l0.3,1.8c-0.6,0.1-1.1,0.2-1.5,0.2c-0.7,0-1.3-0.1-1.7-0.3c-0.4-0.2-0.7-0.5-0.9-0.9
				c-0.2-0.4-0.2-1.2-0.2-2.4v-6.8h-1.5v-1.6h1.5v-2.9l2-1.2v4.2h2v1.6h-2v6.9c0,0.6,0,0.9,0.1,1.1c0.1,0.2,0.2,0.3,0.3,0.4
				c0.2,0.1,0.4,0.1,0.7,0.1C498.1,49.5,498.4,49.5,498.8,49.4z"/>
			<path class="st0" d="M500.7,51.2V39.4h1.8v1.8c0.5-0.8,0.9-1.4,1.3-1.7c0.4-0.3,0.8-0.4,1.3-0.4c0.7,0,1.4,0.2,2.1,0.6l-0.7,1.9
				c-0.5-0.3-1-0.4-1.5-0.4c-0.4,0-0.8,0.1-1.2,0.4c-0.4,0.3-0.6,0.6-0.7,1.1c-0.2,0.7-0.3,1.5-0.3,2.3v6.2H500.7z"/>
			<path class="st0" d="M516.1,49.8c-0.7,0.6-1.5,1.1-2.2,1.3s-1.4,0.4-2.2,0.4c-1.3,0-2.3-0.3-3-1c-0.7-0.6-1.1-1.5-1.1-2.4
				c0-0.6,0.1-1.1,0.4-1.6c0.3-0.5,0.6-0.9,1-1.2c0.4-0.3,0.9-0.5,1.4-0.7c0.4-0.1,1-0.2,1.8-0.3c1.6-0.2,2.8-0.4,3.6-0.7
				c0-0.3,0-0.5,0-0.5c0-0.8-0.2-1.4-0.6-1.7c-0.5-0.5-1.3-0.7-2.3-0.7c-0.9,0-1.6,0.2-2.1,0.5c-0.5,0.3-0.8,0.9-1,1.8l-2-0.3
				c0.2-0.8,0.5-1.5,0.9-2c0.4-0.5,1-0.9,1.8-1.2c0.8-0.3,1.7-0.4,2.7-0.4c1,0,1.8,0.1,2.5,0.4c0.6,0.2,1.1,0.5,1.4,0.9
				c0.3,0.4,0.5,0.8,0.6,1.4c0.1,0.3,0.1,1,0.1,1.9v2.7c0,1.9,0,3.1,0.1,3.6c0.1,0.5,0.3,1,0.5,1.4h-2.1
				C516.3,50.8,516.2,50.3,516.1,49.8z M515.9,45.3c-0.7,0.3-1.8,0.6-3.3,0.8c-0.8,0.1-1.4,0.3-1.8,0.4c-0.3,0.1-0.6,0.4-0.8,0.7
				c-0.2,0.3-0.3,0.6-0.3,1c0,0.5,0.2,1,0.6,1.3c0.4,0.4,1,0.5,1.8,0.5c0.8,0,1.5-0.2,2.1-0.5c0.6-0.3,1-0.8,1.3-1.4
				c0.2-0.5,0.3-1.1,0.3-2V45.3z"/>
			<path class="st0" d="M521.1,55.8V39.4h1.8v1.5c0.4-0.6,0.9-1.1,1.5-1.4c0.5-0.3,1.2-0.5,2-0.5c1,0,1.9,0.3,2.7,0.8
				c0.8,0.5,1.4,1.3,1.8,2.2c0.4,1,0.6,2,0.6,3.1c0,1.2-0.2,2.3-0.7,3.3c-0.4,1-1.1,1.7-1.9,2.2c-0.8,0.5-1.7,0.8-2.6,0.8
				c-0.7,0-1.3-0.1-1.8-0.4c-0.5-0.3-1-0.6-1.3-1.1v5.8H521.1z M522.9,45.4c0,1.5,0.3,2.7,0.9,3.4c0.6,0.7,1.4,1.1,2.2,1.1
				c0.9,0,1.7-0.4,2.3-1.1c0.6-0.8,1-1.9,1-3.5c0-1.5-0.3-2.6-0.9-3.4c-0.6-0.8-1.4-1.1-2.2-1.1c-0.9,0-1.6,0.4-2.3,1.2
				C523.3,42.7,522.9,43.8,522.9,45.4z"/>
		</g>
	</g>
	<g>
		<g>
			<g transform="translate(150.000000, 31.000000)">
				<path class="st0" d="M77.5,188.8v-16h2.1l9.8,12.9v-12.9h2v16h-2.1l-9.8-13v13H77.5L77.5,188.8z"/>
				<path class="st0" d="M107.2,188.2c-1.3,0.5-2.7,0.7-4.2,0.7c-5.8,0-8.7-2.8-8.7-8.3c0-5.3,2.8-7.9,8.4-7.9
					c1.6,0,3.1,0.2,4.5,0.7v1.8c-1.4-0.5-2.8-0.8-4.2-0.8c-4.4,0-6.6,2.1-6.6,6.2c0,4.5,2.2,6.7,6.5,6.7c0.7,0,1.4-0.1,2.3-0.3v-5.4
					h2.1V188.2L107.2,188.2z"/>
				<path class="st0" d="M110.6,182.6v-9.8h2.1v9.8c0,3.1,1.5,4.6,4.6,4.6c3.1,0,4.6-1.6,4.6-4.6v-9.8h2.1v9.8
					c0,4.2-2.2,6.3-6.7,6.3C112.8,188.9,110.6,186.8,110.6,182.6L110.6,182.6L110.6,182.6z"/>
				<path class="st0" d="M129.6,172.8v14.3h8.4v1.7h-10.5v-16H129.6L129.6,172.8z"/>
				<path class="st0" d="M141,188.8h-2.2l8-18.1l8,18.1h-2.3l-2.1-5h-5.3l0.6-1.7h4l-3-7.2L141,188.8L141,188.8z"/>
				<path class="st0" d="M157,188.8v-16h6.8c3.1,0,4.6,1.3,4.6,3.8c0,2.1-1.5,3.6-4.5,4.6l5.5,7.6h-2.7l-5.1-7.2v-1.3
					c3.1-0.5,4.6-1.7,4.6-3.5c0-1.5-0.8-2.2-2.5-2.2h-4.6v14.3H157L157,188.8z"/>
			</g>
			<g>
				<g>
					<polygon class="st0" points="205.6,212.3 205.8,212.3 209.1,212.3 205.6,205.1 202.6,212.3 					"/>
					<path class="st0" d="M205.6,193.7l-16.4,5.9l2.5,21.7l13.9,7.7l14.1-7.8l2.7-21.7L205.6,193.7z M212.6,220.5l-2.2-5.2h-4.8
						h-4.3l-2.1,5.1l-3.8,0.1l10.2-22.7l10.7,22.8L212.6,220.5z"/>
				</g>
				<g class="st8">
					<polygon class="st9" points="205.8,212.3 209.1,212.3 205.6,205.1 205.6,205.2 205.6,212.3 205.6,212.3 					"/>
					<polygon class="st9" points="205.6,193.7 205.6,197.8 205.6,197.8 216.3,220.6 212.6,220.5 210.4,215.3 205.6,215.3 
						205.6,215.3 205.6,228.9 219.7,221.1 222.4,199.4 					"/>
				</g>
			</g>
		</g>
	</g>
	<g>
		<g>
			<path class="st0" d="M879.8,196.4h7.7l2.1,6.9h6.5l-8.3-26.9h-8l-8.2,26.9h6.3L879.8,196.4z M883.5,181L883.5,181
				c0.5,1.6,3.1,10.9,3.1,10.9h-6C880.6,191.9,883.1,182.6,883.5,181z"/>
			<rect x="898.5" y="183.8" class="st0" width="6.1" height="19.5"/>
			<path class="st0" d="M901.5,181.4c2,0,3.3-1.4,3.3-3c0-1.8-1.3-3.1-3.2-3.1s-3.2,1.3-3.2,3.1
				C898.3,180.1,899.5,181.4,901.5,181.4z"/>
			<path class="st0" d="M860.8,162v54.7h54.7V162H860.8z M912.1,213.3h-48v-48h48V213.3z"/>
		</g>
		<g>
			<path class="st0" d="M829.3,199.2c-1.8,0-4.2-0.8-5.3-1.5l-1.1,4.4c1.5,0.8,3.8,1.4,6.4,1.4c5.7,0,8.6-2.7,8.6-6.4
				c0-2.9-1.6-4.8-5.4-6.1c-2.4-0.9-3.2-1.3-3.2-2.3c0-1,0.8-1.6,2.3-1.6c1.7,0,3.4,0.7,4.3,1.1l1.1-4.3c-1.2-0.6-3.3-1.1-5.6-1.1
				c-4.9,0-8.1,2.8-8.1,6.5c0,2.4,1.5,4.6,5.7,6c2.3,0.8,2.9,1.3,2.9,2.3C831.9,198.6,831.2,199.2,829.3,199.2z"/>
			<path class="st0" d="M809,193.3c0.6,0.1,1.3,0.1,2.1,0.1c3.7,0,6.8-0.9,8.9-2.9c1.6-1.5,2.5-3.8,2.5-6.5c0-2.7-1.2-5-2.9-6.3
				c-1.8-1.5-4.5-2.2-8.4-2.2c-3.8,0-6.5,0.2-8.4,0.6v27h6.1L809,193.3L809,193.3z M809,180.4c0.4-0.1,1.3-0.2,2.5-0.2
				c3.1,0,4.8,1.5,4.9,4c0,2.8-2,4.5-5.3,4.5c-0.9,0-1.5,0-2.1-0.2V180.4L809,180.4z"/>
			<path class="st0" d="M793,162.2v54.7h54.7v-54.7H793z M844.4,213.5h-48v-48h48V213.5z"/>
		</g>
	</g>
	<g id="Page_1_3_">
		<g id="Layer_1_2_">
			<path id="Shape_35_" class="st0" d="M1025.9,145.5h-5.7l5.9,6.4v3H1014v-3.6h5.9l-5.9-6.4v-3h11.9V145.5L1025.9,145.5z
				 M1011.6,145.5h-5.7l5.9,6.4v3h-12.1v-3.6h5.9l-5.9-6.4v-3h11.9V145.5L1011.6,145.5z M997.5,145.6h-6.1v5.6h6.1v3.7h-10.4v-13
				h10.4V145.6L997.5,145.6z"/>
			<path class="st0" d="M972.5,160.8l6.2,69.5l27.8,7.7l27.9-7.7l6.2-69.5H972.5z M1027.8,176.7l-2.1,23.1h0l0,0.3l0,0.1l-1.5,16.2
				l-0.1,1.4l-17.5,4.8v0l0,0l-17.5-4.9l-1.2-13.4h3.9h4.6l0.6,6.8l9.5,2.6l0,0v0l9.5-2.6l1-11.1h-10.5v0h-9.4h0l-0.2-1.9l-0.4-4.3
				l-0.2-2.3h10.1v0h11.3l0.8-8.7h-12h0h-20.5h0l-0.2-1.9l-0.4-4.3l-0.2-2.3h21.3h0h21.4L1027.8,176.7z"/>
			<g>
				<polygon class="st5" points="1018.7,183 1006.6,183 1006.6,183 1006.6,191.7 1017.9,191.7 				"/>
				<polygon class="st5" points="1006.6,213.9 1006.6,213.9 1016.1,211.3 1017.1,200.2 1006.6,200.2 1006.6,213.9 1006.6,213.9 				
					"/>
				<polygon class="st5" points="1006.6,166.5 1006.6,174.4 1006.6,174.4 1028,174.4 1027.8,176.7 1025.7,199.9 1025.7,199.9 
					1025.7,200.2 1025.7,200.2 1024.2,216.5 1024.1,217.9 1006.7,222.7 1006.7,222.7 1006.6,222.7 1006.6,222.7 1006.6,232.2 
					1029.1,225.9 1034.5,166.5 				"/>
			</g>
		</g>
	</g>
</g>
</svg>
