<?xml version="1.0" encoding="utf-8"?>
<!-- Generator: Adobe Illustrator 20.0.0, SVG Export Plug-In . SVG Version: 6.00 Build 0)  -->
<svg version="1.1" id="Layer_1" xmlns="http://www.w3.org/2000/svg" xmlns:xlink="http://www.w3.org/1999/xlink" x="0px" y="0px"
	 viewBox="0 0 1040 232" style="enable-background:new 0 0 1040 232;" xml:space="preserve">
<style type="text/css">
	.st0{fill:#FFFFFF;}
	.st1{clip-path:url(#SVGID_2_);}
	.st2{clip-path:url(#SVGID_4_);}
	.st3{clip-path:url(#SVGID_6_);}
	.st4{opacity:0.68;}
	.st5{fill:#E0E1E0;}
	.st6{fill-rule:evenodd;clip-rule:evenodd;fill:#FFFFFF;}
	.st7{opacity:0.43;}
	.st8{opacity:0.35;}
	.st9{fill:#A5A5A5;}
</style>
<g>
	<g>
		<path class="st0" d="M230.4,52c0-4,0-7.9,0-11.9c0-4.6,0-9.2,0-13.8c0-0.6,0.2-0.8,0.8-0.8c0.7,0,0.8,0.2,0.8,0.8
			c0,1.1,0,2.1,0,3.2c0.2,0.1,0.2-0.1,0.3-0.2c1.3-2.6,3.4-4,6.3-4.2c3.4-0.2,6.1,1,7.8,4c2.1,3.9,2.1,7.9,0.4,11.9
			c-1.1,2.5-3.2,3.9-5.9,4.3c-2.7,0.3-5.4,0.1-7.4-2.1c-0.5-0.5-0.8-1.1-1.3-1.9c0,3.7,0,7.2,0,10.7C231.4,52,230.9,52,230.4,52z
			 M231.9,35.5c-0.1,0.7,0.1,1.6,0.2,2.5c0.6,3.6,2.6,5.6,5.9,6c3.3,0.4,6.2-1.1,7.4-4.2c1.3-3.2,1.2-6.4-0.3-9.4
			c-1.3-2.8-3.7-4-6.8-3.8c-2.7,0.2-4.9,1.9-5.8,4.6C232.1,32.5,231.9,33.9,231.9,35.5z"/>
		<path class="st0" d="M193,33.7c0.4-0.7,0.4-1.4,0.6-2.1c1.7-5.9,8.5-8.4,13.2-4.8c2.8,2.1,3.5,5.1,3.5,8.4c0,0.6-0.4,0.5-0.8,0.5
			c-4.7,0-9.3,0-14,0c-0.8,0-1.1,0.1-1,1c0.2,1.7,0.6,3.4,1.7,4.8c1.7,2.2,4,2.9,6.7,2.6c2.8-0.4,4.5-2.1,5.4-4.6
			c0.1-0.3,0-0.9,0.6-0.9c1.1-0.2,1.2,0,0.9,1c-1.2,4.2-4.1,6.2-9,6c-3.7-0.1-6.6-2.8-7.5-6.7c-0.1-0.5-0.1-1-0.4-1.4
			c0-0.3,0-0.6,0-0.9c0.3-0.6,0.3-1.1,0-1.7C193,34.3,193,34,193,33.7z M201.7,34.2c2.1,0,4.3,0,6.4,0c0.3,0,0.7,0.2,0.6-0.4
			c-0.2-2.8-1.5-6-4.9-7c-4.4-1.3-8.7,1.5-9.2,7c0,0.6,0.4,0.4,0.6,0.4C197.4,34.2,199.5,34.2,201.7,34.2z"/>
		<path class="st0" d="M313.6,41.4c-1.1,2.5-3.2,3.6-5.8,3.9c-2.9,0.3-5.7,0.1-8-2.2c-1.1-1.1-1.6-2.5-1.7-4c0-0.3-0.1-0.7,0.3-0.6
			c0.4,0.1,1-0.4,1.2,0.4c1.3,4.8,6.6,6.8,10.8,4.1c2.4-1.6,2.3-4.7-0.2-6.1c-1.5-0.8-3.2-1.1-4.9-1.4c-1.7-0.3-3.3-0.8-4.8-1.7
			c-2.2-1.4-2.3-5.6-0.1-7.2c0.7-0.5,1.3-0.9,2.1-1.1c2.2-0.6,4.4-0.6,6.5,0c2.4,0.7,4.1,3,4,5.3c0,0.4-0.2,0.6-0.5,0.5
			c-0.3-0.1-0.9,0.3-0.9-0.4c-0.1-3.1-2.4-4.2-4.7-4.4c-1.5-0.1-2.9-0.1-4.3,0.5c-1.4,0.6-2.3,1.5-2.3,3.2c0,1.6,1,2.5,2.3,3
			c1.9,0.8,4,1,5.9,1.5c0.2,0,0.4,0.1,0.5,0.1c2.2,0.5,3.9,1.6,4.5,3.9C313.6,39.7,313.6,40.5,313.6,41.4z"/>
		<path class="st0" d="M193,34.6c0.3,0.6,0.3,1.1,0,1.7C193,35.8,193,35.2,193,34.6z"/>
		<path class="st0" d="M269.5,35.6c-2.4,0-4.7,0-7.1,0c-0.6,0-0.8,0.1-0.7,0.8c0.1,1,0.2,1.9,0.5,2.9c1,3.1,3.4,4.8,6.7,4.8
			c3.3,0,5.5-1.6,6.6-4.8c0.1-0.3,0-0.8,0.7-0.8c1,0,1.1,0,0.8,1c-1,3.7-3.7,5.9-7.4,6c-4.5,0.1-7.5-1.7-8.7-5.5
			c-1-3.1-1-6.2,0.2-9.2c1.5-3.9,4.6-5.8,8.9-5.5c3.5,0.2,6.3,2.9,7.1,6.7c0.2,1,0.3,1.9,0.3,2.9c0,0.7-0.2,0.9-0.8,0.8
			C274.2,35.5,271.9,35.6,269.5,35.6z M268.8,34.2c2.1,0,4.3,0,6.4,0c0.2,0,0.7,0.2,0.6-0.4c-0.2-2.6-1.3-5.7-4.5-6.9
			c-4.5-1.7-9.7,2.1-9.6,6.9c0,0.6,0.3,0.4,0.6,0.4C264.5,34.2,266.7,34.2,268.8,34.2z"/>
		<path class="st0" d="M288.6,45.4c-2.9,0-5.1-0.5-6.8-2.1c-1.1-1.1-1.7-2.5-1.8-4c0-0.3-0.2-0.7,0.4-0.6c0.4,0.1,1-0.4,1.1,0.4
			c0.4,3.3,3.4,5.4,7.4,5c1.2-0.1,2.3-0.3,3.3-1c2.5-1.5,2.4-4.8-0.2-6.1c-1.5-0.8-3.1-1.1-4.8-1.4c-1.7-0.3-3.4-0.8-4.9-1.8
			c-2.1-1.4-2.3-5.6-0.1-7.2c1-0.7,2-1.1,3.2-1.3c1.8-0.3,3.6-0.3,5.4,0.2c2.4,0.7,4.1,2.9,4,5.2c0,0.3,0,0.7-0.5,0.6
			c-0.4-0.1-0.9,0.3-1-0.4c-0.6-3-1.8-4.1-4.8-4.4c-1.5-0.2-3,0-4.4,0.7c-1.2,0.6-2,1.6-2,3c0,1.5,0.9,2.4,2.1,2.9
			c2,0.9,4.1,1,6.2,1.6c0.6,0.2,1.2,0.3,1.8,0.6c1.9,0.7,3,2.1,3.2,4.1c0.2,2.3-0.8,3.9-2.8,5C291.2,45.2,289.6,45.4,288.6,45.4z"/>
		<path class="st0" d="M227.5,25.7c-2.1,2.8-4.2,5.6-6.3,8.3c-0.5,0.6-0.5,1,0,1.7c2.4,3.1,4.7,6.2,7,9.3c-1.3,0.3-2.1,0.1-2.9-1.1
			c-1.8-2.7-3.7-5.2-5.7-7.9c-1.1,1.5-2.3,3-3.4,4.5c-0.8,1.1-1.7,2.1-2.4,3.3c-0.7,1-1.4,1.6-2.7,1.2c0-0.3,0.3-0.5,0.4-0.7
			c2.2-2.9,4.4-5.9,6.6-8.8c0.4-0.5,0.4-0.8,0-1.3c-2.2-2.8-4.3-5.6-6.5-8.5c1.4-0.4,1.9-0.3,2.8,0.9c1.7,2.3,3.5,4.6,5.3,7
			c1.2-1.6,2.3-3.1,3.4-4.5c0.6-0.8,1.3-1.5,1.7-2.4C225.3,25.6,226.2,25.3,227.5,25.7z"/>
		<path class="st0" d="M252.5,29.8c1.6-2.9,4-4.1,6.9-4.2c0.5,0,0.7,0.1,0.6,0.6c-0.1,0.4,0.2,0.9-0.6,0.9c-3.7-0.2-7,3-7,7.2
			c0,3.3,0,6.7,0,10c0,0.7-0.2,0.8-0.8,0.8c-0.7,0-0.7-0.3-0.7-0.8c0-6,0-11.9,0-17.9c0-0.6,0-0.8,0.7-0.8c0.7,0,0.8,0.2,0.8,0.9
			C252.5,27.4,252.5,28.5,252.5,29.8z"/>
	</g>
	<g id="g10_1_" transform="matrix(1.25,0,0,-1.25,0,143.2125)" inkscape:groupmode="layer" inkscape:label="ink_ext_XXXXXX">
		<g id="g12_1_" transform="scale(0.1,0.1)">
			<g id="g14_1_">
				<g>
					<defs>
						<path id="SVGID_1_" d="M1534.2,42.7l-8.1,2.7c0,0,1,40.8-13.7,43.6c-9.7,11.2,1.5,479.7,36.7,1.6c0,0-12.1-6.1-14.3-16.3
							C1532.6,64,1534.2,42.7,1534.2,42.7z"/>
					</defs>
					<use xlink:href="#SVGID_1_"  style="overflow:visible;fill:#FFFFFF;"/>
					<clipPath id="SVGID_2_">
						<use xlink:href="#SVGID_1_"  style="overflow:visible;"/>
					</clipPath>
					<g id="g16_1_" class="st1">
						<path id="path30_1_" inkscape:connector-curvature="0" class="st0" d="M1534.2,42.7l-8.1,2.7c0,0,1,40.8-13.7,43.6
							c-9.7,11.2,1.5,479.7,36.7,1.6c0,0-12.1-6.1-14.3-16.3C1532.6,64,1534.2,42.7,1534.2,42.7"/>
					</g>
				</g>
			</g>
			<g id="g32_1_">
				<g>
					<defs>
						<path id="SVGID_3_" d="M1538.5,82.1c0,0,70,46.1,53.6,141.8c-15.8,69.5-53.1,92.4-57.1,101.1c-4.4,6.2-8.9,17.1-8.9,17.1
							l3-193.7C1529.2,148.4,1523,89.2,1538.5,82.1L1538.5,82.1z"/>
					</defs>
					<use xlink:href="#SVGID_3_"  style="overflow:visible;fill:#FFFFFF;"/>
					<clipPath id="SVGID_4_">
						<use xlink:href="#SVGID_3_"  style="overflow:visible;"/>
					</clipPath>
					<g id="g34_1_" class="st2">
						<path id="path46_1_" inkscape:connector-curvature="0" class="st0" d="M1538.5,82.1c0,0,70,46.1,53.6,141.8
							c-15.8,69.5-53.1,92.4-57.1,101.1c-4.4,6.2-8.9,17.1-8.9,17.1l3-193.7C1529.2,148.4,1523,89.2,1538.5,82.1"/>
					</g>
				</g>
			</g>
			<g id="g48_1_">
				<g>
					<defs>
						<path id="SVGID_5_" d="M1522.1,79.5c0,0-65.6,44.8-61.9,123.8c3.8,79,50.1,117.8,59.2,124.9c5.8,6.2,6.1,8.6,6.5,14.8
							c4.1-8.8,3.4-131.3,3.8-145.6C1531.4,141.6,1526.7,90,1522.1,79.5z"/>
					</defs>
					<use xlink:href="#SVGID_5_"  style="overflow:visible;fill:#FFFFFF;"/>
					<clipPath id="SVGID_6_">
						<use xlink:href="#SVGID_5_"  style="overflow:visible;"/>
					</clipPath>
					<g id="g50_1_" class="st3">
						<path id="path62_1_" inkscape:connector-curvature="0" class="st0" d="M1522.1,79.5c0,0-65.6,44.8-61.9,123.8
							c3.8,79,50.1,117.8,59.2,124.9c5.8,6.2,6.1,8.6,6.5,14.8c4.1-8.8,3.4-131.3,3.8-145.6C1531.4,141.6,1526.7,90,1522.1,79.5"/>
					</g>
				</g>
			</g>
			<path id="path64_1_" inkscape:connector-curvature="0" class="st0" d="M2315.1,105c4.6-3.7,13.9-5.2,22.1-5.2
				c10.6,0,21,2,31.2,11.1c10.4,9.4,17.5,23.8,17.5,46.7c0,22.1-8.4,40-25.6,50.4c-9.7,6.1-22.3,8.5-36.7,8.5
				c-4.2,0-8.4-0.2-10.8-1.3c-0.7-0.4-2-2.2-2-3.1c-0.4-3.9-0.4-33.8-0.4-51.5c0-18.1,0-43.4,0.4-46.5
				C2310.9,111.6,2312.2,107,2315.1,105z M2271,226.4c3.8,0,18-0.7,24.7-0.7c12.4,0,21,0.7,44.2,0.7c19.5,0,35.8-5.2,47.5-15.3
				c14.1-12.2,21.7-29.3,21.7-50c0-29.5-13.5-46.5-27-56.1c-13.5-10-31-15.7-55.9-15.7c-13.3,0-36,0.4-55,0.7h-0.3
				c-0.9,1.7,1.6,8.6,3.2,8.7c5.1,0.6,6.5,0.8,8.9,1.8c4,1.7,5,3.7,5.4,10.9c0.7,13.5,0.4,29.7,0.4,48c0,13.1,0.2,38.6-0.2,46.7
				c-0.7,6.8-3.5,8.5-9.3,9.8c-2.9,0.7-6.9,1.3-12.4,2C2266.5,219.2,2269.9,225.1,2271,226.4"/>
			<path id="path66_1_" inkscape:connector-curvature="0" class="st0" d="M2467.6,215.7c-0.9-0.2-2-2.4-2-3.5
				c-0.2-7.9-0.4-28.4-0.4-42.6c0-0.4,0.7-1.1,1.1-1.1c2.9-0.2,9.9-0.4,15.9-0.4c8.4,0,13.3,1.1,15.9,2.4
				c7.1,3.5,10.4,11.1,10.4,19.4c0,19-13.3,26.2-32.9,26.2C2474.2,216.1,2470.5,216.1,2467.6,215.7L2467.6,215.7z M2517.8,128.4
				c0,19.2-14.1,30.1-40,30.1c-1.1,0-9.3,0.2-11.3-0.2c-0.7-0.2-1.3-0.7-1.3-1.1c0-13.8-0.2-35.8,0.4-44.5c0.4-3.7,3.1-9,6.4-10.5
				c3.5-2,11.5-2.4,17-2.4C2504.3,99.8,2517.8,108.3,2517.8,128.4L2517.8,128.4z M2427.7,226.4c2,0,7.9-0.7,22.9-0.7
				c14.1,0,25.6,0.4,39.3,0.4c17,0,40.5-6.1,40.5-31.4c0-12.4-8.8-22.5-20.3-27.3c-0.7-0.2-0.7-0.7,0-0.9
				c16.4-4.1,30.7-14.2,30.7-33.4c0-18.8-11.7-30.6-28.7-38c-10.4-4.6-23.2-6.1-36.3-6.1c-9.9,0-36.6,1.1-51.4,0.9
				c-1.6,0.7,1.4,7.6,2.7,8.7c3.5,0.2,6.3,0.5,10,1.6c5.3,1.3,5.9,3,6.6,10.9c0.4,6.8,0.4,31,0.4,48.2c0,23.6,0.2,39.5,0,47.4
				c-0.2,6.1-2.4,8.1-6.6,9.2c-3.3,0.7-8.8,1.3-13.3,2C2423.2,219,2426.6,225.5,2427.7,226.4"/>
			<path id="path68_1_" inkscape:connector-curvature="0" class="st0" d="M1636.8,89.4c-0.4,0.6-0.8,2.3-0.7,4.4
				c0.1,1.6,0.4,2.6,0.7,2.9c4.2,0.7,6.1,1.1,8.5,1.7c3.9,1,5.4,3.1,5.6,8.1c0.6,11.8,0.7,33.9,0.4,49.4l0,0.5c0,1.7,0,3.9-2,5.5
				c-3.1,2-6.9,3.7-11.7,5.1c-1.9,0.5-2.9,1.5-2.8,2.7c0.1,1.1,1.2,2.5,3.6,2.9c6.4,0.7,23.2,4.7,29.8,7.7c0.4-0.5,1-1.5,0.9-3.1
				c0-0.7-0.1-1.4-0.2-2.2c-0.2-2.2-0.4-4.7-0.4-7.2c0-0.7,0.8-1.4,1.6-1.4c0.4,0,0.8,0.2,1.1,0.5c12.6,9.8,23.8,13.3,29.6,13.3
				c9.5,0,16.9-4.5,22.6-13.9c0.3-0.5,0.8-0.8,1.3-0.8c0.5,0,0.9,0.2,1.2,0.6c11.5,8.7,23,14,30.6,14c18.1,0,28.9-13.5,28.9-36.2
				c0-6.5-0.1-14.8-0.1-22.5c-0.1-6.8-0.1-13.1-0.1-17.5c0-1.1,1.4-4,3.6-4.6c2.6-1.3,6.5-1.9,11.3-2.8l0.2,0
				c0.4-1.3-0.4-6.4-1.1-7.4c-1.2,0-2.9,0.1-4.9,0.2c-3.8,0.2-8.9,0.5-14.9,0.5c-12,0-18.3-0.2-24.3-0.6c-0.5,1.5-0.6,6.3-0.1,7.3
				c3.5,0.7,5.2,1.1,7.3,1.7c3.8,1.3,4.9,3,5.2,8.1c0.1,3.6,0.8,35.4-0.4,42.9c-1.1,7.8-7,17-19.9,17c-4.8,0-12.5-2-19.9-7.6
				c-0.5-0.4-0.7-1.3-0.7-1.9l0-0.1c0.9-4.1,0.9-8.8,0.9-16c0-4.1,0-8.4,0-12.8c-0.1-8.8-0.1-17,0-23.3c0-4.3,2.6-5.3,4.7-6.1
				c1.1-0.2,2-0.5,2.9-0.7c1.7-0.4,3.5-0.9,6.2-1.3c0.4-0.8,0.4-3.3-0.1-5.5c-0.3-1.2-0.6-1.7-0.8-1.9c-6.7,0.2-13.5,0.4-23.4,0.4
				c-3,0-7.9-0.1-12.2-0.2c-3.5-0.1-6.8-0.2-8.7-0.2c-0.3,0.4-0.7,1.8-0.7,3.8c0,1.9,0.3,3.2,0.7,3.6c0.9,0.2,1.8,0.3,2.7,0.5
				c2.3,0.4,4.3,0.8,6.3,1.2c3.3,1,4.5,2.8,4.7,7c0.6,9.7,1.1,37.7-0.2,44.7c-2.3,11.2-8.8,16.9-19.1,16.9c-6,0-13.7-2.9-19.9-7.6
				c-1-0.8-1.8-2.7-1.8-4.5c0-3.3,0-7.3,0-11.6c0-14.1-0.1-31.6,0.3-39.1c0.2-2.3,1-5.1,5.4-6.1c1-0.3,2.6-0.5,4.5-0.9
				c1.1-0.2,2.3-0.4,3.6-0.6c0.4-1.2,0.2-5.9-0.6-7.4c-1.9,0-4.3,0.1-7,0.2c-4.1,0.2-9.3,0.4-15.2,0.4c-6.9,0-11.7-0.2-15.6-0.4
				C1641.3,89.5,1639.1,89.4,1636.8,89.4L1636.8,89.4"/>
			<path id="path70_1_" inkscape:connector-curvature="0" class="st0" d="M1856.1,171c-4,0-7.8-1.1-10.6-3
				c-7.7-4.7-11.6-14-11.6-27.7c0-25.6,12.8-43.5,31.2-43.5c5.4,0,9.8,1.6,13.5,4.8c5.6,4.6,8.6,14,8.6,27.2
				C1887.4,154.1,1874.8,171,1856.1,171L1856.1,171L1856.1,171z M1859.7,87.4c-33.2,0-45,24.3-45,47.1c0,15.9,6.5,28.3,19.4,37
				c9.1,5.6,20,8.8,29.9,8.8c25.3,0,43.1-18.2,43.1-44.3c0-17.7-7.1-31.7-20.5-40.5C1880.1,91.7,1868.9,87.4,1859.7,87.4
				L1859.7,87.4"/>
			<path id="path72_1_" inkscape:connector-curvature="0" class="st0" d="M2200.1,171c-4,0-7.8-1.1-10.6-3
				c-7.7-4.7-11.6-14-11.6-27.7c0-25.6,12.8-43.5,31.2-43.5c5.4,0,9.8,1.6,13.5,4.8c5.6,4.6,8.6,14,8.6,27.2
				C2231.3,154.1,2218.8,171,2200.1,171L2200.1,171L2200.1,171z M2203.6,87.4c-33.2,0-45,24.3-45,47.1c0,15.9,6.5,28.3,19.4,37
				c9.1,5.6,20,8.8,29.9,8.8c25.3,0,43.1-18.2,43.1-44.3c0-17.7-7.1-31.7-20.5-40.4C2224,91.7,2212.9,87.4,2203.6,87.4L2203.6,87.4"
				/>
			<path id="path74_1_" inkscape:connector-curvature="0" class="st0" d="M2088.9,171.9c-10.2,0-16.9-8.1-16.9-20.6
				c0-12.6,5.7-27.3,21.7-27.3c2.8,0,7.7,1.2,10.2,3.9c3.7,3.4,6.2,10.5,6.2,17.9C2110.2,162.2,2102.2,171.9,2088.9,171.9
				L2088.9,171.9z M2087.6,85.7c-3.8,0-6.6-1.1-8.3-2.1c-8.1-5.2-11.9-10.4-11.9-16.3c0-5.6,2.2-10.1,6.9-14.1
				c5.7-4.8,13.4-7.2,23.5-7.2c19.9,0,28.8,10.7,28.8,21.2c0,7.4-3.7,12.3-11.3,15.1C2109.4,84.5,2099.6,85.7,2087.6,85.7
				L2087.6,85.7L2087.6,85.7z M2088.9,35c-11.9,0-20.5,2.5-27.9,8.2c-7.1,5.5-10.3,13.7-10.3,19.3c0,1.6,0.4,5.8,3.9,9.8
				c2.1,2.4,6.9,6.8,18,14.4c0.3,0.1,0.6,0.5,0.6,0.9c0,0.5-0.3,0.8-0.7,0.9c-9.2,3.5-11.9,9.3-12.8,12.4c0,0.1-0.1,0.3-0.1,0.5
				c-0.3,1.2-0.5,2.4,1.1,3.6c1.3,0.9,3.3,2.1,5.5,3.4c3.2,1.9,6.9,4.1,8.9,5.8c0.3,0.3,0.4,0.8,0.4,1.2c-0.1,0.5-0.3,0.8-0.7,1
				c-13.6,4.6-20.4,14.6-20.4,29.9c0,9.9,4.6,18.8,12.5,24.5c5.5,4.3,19.1,9.5,28,9.5l0.5,0c9.1-0.2,14.3-2.1,21.4-4.8
				c3.9-1.4,7.5-2,12.6-2c7.6,0,10.8,2.4,13.7,5.1c0.2-0.3,0.5-1.4,0.7-3.9c0.2-2.5-0.5-6.3-2.5-9c-1.5-2.1-5.1-3.7-8.5-3.7
				c-0.3,0-0.7,0-1,0c-3.5,0.3-5.1,0.8-5.1,0.9l-0.9-0.3c-0.3-0.4-0.1-0.8,0.1-1.4c0.1-0.1,0.1-0.3,0.1-0.3c0.4-1.8,1.2-6.9,1.2-8.4
				c0-16.1-6.3-23.1-13.2-28.3c-6.5-4.9-14.2-7.9-22.8-8.8h0c-0.2,0-1-0.1-2.6-0.2c-1.1-0.1-2.4-0.2-2.6-0.2l-0.2,0
				c-1.5-0.4-5.4-2.3-5.4-5.7c0-2.9,1.8-6.4,10.2-7c1.7-0.1,3.5-0.3,5.4-0.4c11.1-0.8,25-1.7,31.5-3.9c9-3.3,14.6-11.3,14.6-20.9
				c0-14.4-10.3-28-27.5-36.3C2106.6,36.9,2098.1,35,2088.9,35L2088.9,35"/>
			<path id="path76_1_" inkscape:connector-curvature="0" class="st0" d="M2034.4,97.1c-4.9,0.7-8.4,1.3-12.6,3.3
				c-0.7,0.4-1.6,2.4-1.6,3.1c-0.4,6.8-0.4,26.4-0.4,39.3c0,10.5-1.8,19.6-6.2,26.2c-5.3,7.4-12.8,11.8-22.5,11.8
				c-8.6,0-20.1-5.9-29.6-14c-0.2-0.2-1.7-1.6-1.7,0.5c0,2.1,0.4,6.5,0.6,9.3c0.2,2.8-1.4,4-1.4,4c-6.2-3.1-23.6-7.2-30.1-7.9
				c-4.7-0.9-5.9-5.4-0.9-7v0c0,0,0,0,0.1,0c5.2-1.6,8.8-3.3,11.4-5c2-1.5,1.8-3.7,1.8-5.5c0.2-14.6,0.2-37.1-0.4-49.3
				c-0.2-4.8-1.5-6.5-5.1-7.4l0.3,0.1c-2.7-0.7-4.9-1.1-8.2-1.5c-1.1-1.1-1.1-7.4,0-8.7c2.2,0,13.5,0.7,22.8,0.7
				c12.8,0,19.5-0.7,22.8-0.7c1.3,1.5,1.8,7.4,0.9,8.7c-3.8,0.2-6.4,0.7-9.1,1.3c-3.5,0.9-4.4,2.6-4.6,6.5
				c-0.4,10.3-0.4,32.1-0.4,46.9c0,4.1,1.1,6.1,2.4,7.2c4.4,3.9,11.7,6.5,18.1,6.5c6.2,0,10.4-2,13.5-4.6c4.2-3.5,5.7-8.5,6.2-12.2
				c0.9-8.3,0.7-24.9,0.7-39.3c0-7.9-0.7-9.8-3.5-10.7c-1.3-0.7-4.9-1.3-9.1-1.7c-1.3-1.3-0.9-7.4,0-8.7c5.7,0,12.4,0.7,22.1,0.7
				c12.2,0,19.9-0.7,23-0.7C2034.8,89.9,2035.3,95.5,2034.4,97.1"/>
			<path id="path78_1_" inkscape:connector-curvature="0" class="st0" d="M2571.9,107.8h3.7c3,0,4.2,1.1,4.2,3.8
				c0,2.8-1.1,3.7-4.5,3.7h-3.4V107.8z M2579.8,96.1l-4.4,9.5h-3.6v-9.5h-2.6v21.6h6.4c4.7,0,6.7-2.1,6.7-6c0-3.2-1.5-5.2-4.3-5.8
				l4.6-9.8L2579.8,96.1L2579.8,96.1z M2575.7,122.4c-8.7,0-15.6-6.9-15.6-15.6c0-8.6,6.9-15.5,15.5-15.5c8.6,0,15.5,6.9,15.5,15.5
				C2591.1,115.6,2584.4,122.4,2575.7,122.4z M2575.6,89.8c-9.6,0-17.1,7.5-17.1,17.1c0,9.6,7.5,17.1,17.1,17.1
				c9.4,0,17-7.5,17-16.8C2592.7,97.4,2585.2,89.8,2575.6,89.8"/>
		</g>
	</g>
	<g id="Page_1_2_">
		<g id="Group_2_">
			<path class="st0" d="M971.5,19.6l6.2,69.5l27.8,7.7l27.9-7.7l6.2-69.5H971.5z M1026.7,36.1l-0.4,4.3l-0.2,1.9h0h-20.5h0h-12
				l0.8,8.7h11.3h0h17.5h2.3l-0.2,2.3l-2,22.5l-0.1,1.4l-17.5,4.8v0l0,0l-17.5-4.9l-1.2-13.4h3.9h4.6l0.6,6.8l9.5,2.6l0,0v0l9.5-2.6
				l1-11.1h-10.5h0h-19.1l-2.1-23.5l-0.2-2.3h21.4h0h21.3L1026.7,36.1z"/>
			<path id="Shape_23_" class="st0" d="M977.9,0.7h4.3V5h4V0.7h4.3v13h-4.3V9.3h-4v4.3h-4.3V0.7L977.9,0.7z"/>
			<path id="Shape_22_" class="st0" d="M996.2,5h-3.8V0.7h12V5h-3.8v8.7h-4.3L996.2,5L996.2,5L996.2,5z"/>
			<path id="Shape_21_" class="st0" d="M1006.3,0.7h4.5l2.8,4.6l2.8-4.6h4.5v13h-4.3V7.2l-3,4.6h-0.1l-3-4.6v6.4h-4.2L1006.3,0.7
				L1006.3,0.7z"/>
			<path id="Shape_20_" class="st0" d="M1023,0.7h4.3v8.7h6.1v4.3H1023L1023,0.7L1023,0.7z"/>
			<g class="st4">
				<polygon class="st5" points="1016.1,59.6 1005.6,59.6 1005.6,73.2 1015.1,70.7 				"/>
				<polygon class="st5" points="1005.6,25.3 1005.6,33.8 1026.9,33.8 1026.7,36.1 1026.3,40.4 1026.2,42.3 1026.1,42.3 
					1005.6,42.3 1005.6,51.1 1023.1,51.1 1025.4,51.1 1025.2,53.4 1023.2,75.8 1023.1,77.3 1005.6,82.1 1005.6,82.1 1005.6,91 
					1028.1,84.7 1033.5,25.3 				"/>
			</g>
		</g>
	</g>
	<g>
		<path class="st6" d="M612.1,50.8c0-0.4-0.2-0.9-0.6-1.1l-10.2-5.9c-0.2-0.1-0.4-0.2-0.6-0.2c0,0-0.1,0-0.1,0
			c-0.2,0-0.4,0.1-0.6,0.2l-10.2,5.9c-0.4,0.2-0.6,0.6-0.6,1.1l0,15.8c0,0.2,0.1,0.4,0.3,0.5c0.2,0.1,0.4,0.1,0.6,0l6.1-3.5
			c0.4-0.2,0.6-0.6,0.6-1.1v-7.4c0-0.4,0.2-0.8,0.6-1.1l2.6-1.5c0.2-0.1,0.4-0.2,0.6-0.2c0.2,0,0.4,0.1,0.6,0.2l2.6,1.5
			c0.4,0.2,0.6,0.6,0.6,1.1v7.4c0,0.4,0.2,0.8,0.6,1.1l6.1,3.5c0.2,0.1,0.4,0.1,0.6,0c0.2-0.1,0.3-0.3,0.3-0.5L612.1,50.8z"/>
		<path class="st6" d="M666.7,29c-0.2-0.1-0.4-0.1-0.6,0c-0.2,0.1-0.3,0.3-0.3,0.5v15.7c0,0.2-0.1,0.3-0.2,0.4
			c-0.1,0.1-0.3,0.1-0.4,0l-2.6-1.5c-0.4-0.2-0.9-0.2-1.2,0L651.1,50c-0.4,0.2-0.6,0.6-0.6,1.1v11.8c0,0.4,0.2,0.8,0.6,1.1l10.2,5.9
			c0.4,0.2,0.9,0.2,1.2,0l10.2-5.9c0.4-0.2,0.6-0.6,0.6-1.1V33.5c0-0.4-0.2-0.9-0.6-1.1L666.7,29z M665.8,59c0,0.1-0.1,0.2-0.2,0.3
			l-3.5,2c-0.1,0.1-0.2,0.1-0.3,0l-3.5-2c-0.1-0.1-0.2-0.2-0.2-0.3V55c0-0.1,0.1-0.2,0.2-0.3l3.5-2c0.1-0.1,0.2-0.1,0.3,0l3.5,2
			c0.1,0.1,0.2,0.2,0.2,0.3V59z"/>
		<path class="st6" d="M703.3,54.9c0.4-0.2,0.6-0.6,0.6-1.1V51c0-0.4-0.2-0.8-0.6-1.1L693.1,44c-0.4-0.2-0.9-0.2-1.2,0l-10.2,5.9
			c-0.4,0.2-0.6,0.6-0.6,1.1v11.8c0,0.4,0.2,0.9,0.6,1.1l10.2,5.8c0.4,0.2,0.8,0.2,1.2,0l6.1-3.4c0.2-0.1,0.3-0.3,0.3-0.5
			c0-0.2-0.1-0.4-0.3-0.5l-10.3-5.9c-0.2-0.1-0.3-0.3-0.3-0.5V55c0-0.2,0.1-0.4,0.3-0.5l3.2-1.8c0.2-0.1,0.4-0.1,0.6,0l3.2,1.8
			c0.2,0.1,0.3,0.3,0.3,0.5v2.9c0,0.2,0.1,0.4,0.3,0.5c0.2,0.1,0.4,0.1,0.6,0L703.3,54.9z"/>
		<path class="st6" d="M630.7,43.9c0.4-0.2,0.9-0.2,1.2,0l10.2,5.9c0.4,0.2,0.6,0.6,0.6,1.1v11.8c0,0.4-0.2,0.8-0.6,1.1l-10.2,5.9
			c-0.4,0.2-0.9,0.2-1.2,0l-10.2-5.9c-0.4-0.2-0.6-0.6-0.6-1.1V50.9c0-0.4,0.2-0.8,0.6-1.1L630.7,43.9z"/>
		<path class="st0" d="M723.2,69.9c-0.4,0-0.7-0.1-1-0.3l-3.2-1.9c-0.5-0.3-0.2-0.4-0.1-0.4c0.6-0.2,0.8-0.3,1.5-0.7
			c0.1,0,0.2,0,0.2,0l2.5,1.5c0.1,0,0.2,0,0.3,0l9.6-5.6c0.1-0.1,0.1-0.2,0.1-0.3V51.1c0-0.1-0.1-0.2-0.1-0.3l-9.6-5.6
			c-0.1-0.1-0.2-0.1-0.3,0l-9.6,5.6c-0.1,0.1-0.2,0.2-0.2,0.3v11.1c0,0.1,0.1,0.2,0.2,0.3L716,64c1.4,0.7,2.3-0.1,2.3-1v-11
			c0-0.2,0.1-0.3,0.3-0.3h1.2c0.2,0,0.3,0.1,0.3,0.3v11c0,1.9-1,3-2.9,3c-0.6,0-1,0-2.2-0.6l-2.5-1.5c-0.6-0.4-1-1-1-1.8V51.1
			c0-0.7,0.4-1.4,1-1.8l9.6-5.6c0.6-0.3,1.4-0.3,2,0l9.6,5.6c0.6,0.4,1,1,1,1.8v11.1c0,0.7-0.4,1.4-1,1.8l-9.6,5.6
			C723.9,69.8,723.5,69.9,723.2,69.9z"/>
		<path class="st0" d="M726.1,62.2c-4.2,0-5.1-1.9-5.1-3.6c0-0.2,0.1-0.3,0.3-0.3h1.2c0.1,0,0.3,0.1,0.3,0.2
			c0.2,1.3,0.7,1.9,3.3,1.9c2,0,2.9-0.5,2.9-1.5c0-0.6-0.2-1.1-3.4-1.4c-2.6-0.3-4.3-0.8-4.3-3c0-1.9,1.6-3.1,4.4-3.1
			c3.1,0,4.6,1.1,4.8,3.4c0,0.1,0,0.2-0.1,0.2c-0.1,0.1-0.1,0.1-0.2,0.1H729c-0.1,0-0.2-0.1-0.3-0.2c-0.3-1.3-1-1.8-3-1.8
			c-2.2,0-2.5,0.8-2.5,1.4c0,0.7,0.3,0.9,3.3,1.3c3,0.4,4.4,0.9,4.4,3C731,61,729.2,62.2,726.1,62.2z"/>
		<path class="st6" d="M692.4,54.3c0.1,0,0.2,0,0.2,0l2,1.1c0.1,0,0.1,0.1,0.1,0.2v2.3c0,0.1,0,0.2-0.1,0.2l-2,1.1
			c-0.1,0-0.2,0-0.2,0l-2-1.1c-0.1,0-0.1-0.1-0.1-0.2v-2.3c0-0.1,0-0.2,0.1-0.2L692.4,54.3z"/>
		<g>
			<path class="st0" d="M741.5,46.8c0,1-0.8,1.9-1.9,1.9c-1,0-1.9-0.8-1.9-1.9c0-1.1,0.9-1.9,1.9-1.9
				C740.7,44.9,741.5,45.8,741.5,46.8z M738.1,46.8c0,0.9,0.7,1.6,1.6,1.6c0.9,0,1.6-0.7,1.6-1.6c0-0.9-0.7-1.6-1.6-1.6
				C738.8,45.2,738.1,45.9,738.1,46.8z M739,45.8h0.7c0.2,0,0.7,0,0.7,0.6c0,0.4-0.2,0.5-0.4,0.5c0.3,0,0.3,0.2,0.3,0.5
				c0,0.2,0,0.5,0.1,0.6H740c0-0.1-0.1-0.6-0.1-0.7c0-0.1-0.1-0.2-0.2-0.2h-0.4v0.8H739V45.8z M739.4,46.7h0.3
				c0.3,0,0.3-0.2,0.3-0.3c0-0.3-0.2-0.3-0.3-0.3h-0.3V46.7z"/>
		</g>
	</g>
	<g>
		<path class="st0" d="M497.2,125.2c-3.5,0-6.5,0.9-9,2.1c-0.9-1.8-1.8-3.5-2-4.7c-0.2-1.4-0.4-2.2-0.2-3.9c0.2-1.7,1.2-4,1.2-4.2
			s-0.2-1-2.2-1.1s-3.7,0.4-3.9,0.9c-0.2,0.5-0.6,1.7-0.8,3c-0.3,1.8-4,8.3-6.1,11.7c-0.7-1.3-1.3-2.5-1.4-3.4
			c-0.2-1.4-0.4-2.2-0.2-3.9s1.2-4,1.2-4.2c0-0.2-0.2-1-2.2-1.1s-3.7,0.4-3.9,0.9c-0.2,0.5-0.4,1.8-0.8,3c-0.4,1.2-5.3,12-6.5,14.8
			c-0.7,1.4-1.2,2.6-1.6,3.4l0,0c0,0,0,0.1-0.1,0.1c-0.3,0.7-0.5,1-0.5,1s0,0,0,0c-0.3,0.5-0.6,0.9-0.7,0.9c-0.1,0-0.3-1.3,0-3.1
			c0.7-3.8,2.4-9.6,2.4-9.8c0-0.1,0.3-1.1-1.1-1.6c-1.4-0.5-1.9,0.3-2,0.3c-0.1,0-0.2,0.3-0.2,0.3s1.6-6.6-3-6.6
			c-2.9,0-6.8,3.1-8.8,6c-1.2,0.7-3.9,2.1-6.7,3.6c-1.1,0.6-2.2,1.2-3.2,1.8c-0.1-0.1-0.1-0.2-0.2-0.2c-5.5-5.9-15.8-10.1-15.4-18.1
			c0.2-2.9,1.2-10.5,19.7-19.8c15.3-7.5,27.4-5.4,29.5-0.8c3,6.6-6.5,18.9-22.3,20.6c-6,0.7-9.2-1.6-10-2.5c-0.8-0.9-1-1-1.3-0.8
			c-0.5,0.3-0.2,1.1,0,1.6c0.5,1.2,2.4,3.4,5.7,4.5c2.9,0.9,10,1.5,18.5-1.8c9.6-3.7,17-14,14.8-22.6c-2.2-8.7-16.7-11.6-30.4-6.7
			c-8.2,2.9-17,7.5-23.4,13.4c-7.6,7.1-8.8,13.2-8.3,15.8c1.8,9.1,14.4,15.1,19.4,19.5c-0.3,0.1-0.5,0.3-0.7,0.4
			c-2.5,1.3-12.1,6.3-14.5,11.6c-2.7,6,0.4,10.3,2.5,10.9c6.5,1.8,13.1-1.4,16.7-6.8s3.1-12.3,1.5-15.4c0,0,0-0.1-0.1-0.1
			c0.7-0.4,1.3-0.8,2-1.2c1.3-0.8,2.6-1.5,3.6-2c-0.6,1.7-1.1,3.7-1.3,6.6c-0.3,3.4,1.1,7.8,3,9.6c0.8,0.8,1.8,0.8,2.4,0.8
			c2.1,0,3.1-1.8,4.2-3.9c1.3-2.6,2.5-5.6,2.5-5.6s-1.5,8.1,2.5,8.1c1.5,0,2.9-1.9,3.6-2.8v0c0,0,0-0.1,0.1-0.2
			c0.1-0.2,0.2-0.4,0.2-0.4v0c0.6-1,1.9-3.3,3.8-7.1c2.5-4.9,4.9-11.1,4.9-11.1s0.2,1.5,1,4c0.4,1.5,1.3,3.1,2.1,4.6
			c-0.6,0.8-0.9,1.3-0.9,1.3s0,0,0,0c-0.5,0.6-1,1.3-1.5,1.9c-2,2.4-4.3,5.1-4.7,5.8c-0.4,0.9-0.3,1.6,0.4,2.1
			c0.5,0.4,1.5,0.5,2.4,0.4c1.8-0.1,3-0.6,3.6-0.8c1-0.3,2.1-0.9,3.1-1.6c1.9-1.4,3.1-3.5,3-6.2c-0.1-1.5-0.5-3-1.1-4.4
			c0.2-0.3,0.3-0.5,0.5-0.8c3.1-4.5,5.4-9.4,5.4-9.4s0.2,1.5,1,4c0.4,1.3,1.1,2.6,1.8,4c-2.9,2.3-4.7,5.1-5.3,6.8
			c-1.1,3.3-0.3,4.8,1.4,5.1c0.8,0.2,1.8-0.2,2.6-0.5c1-0.3,2.2-0.9,3.4-1.7c1.9-1.4,3.8-3.4,3.7-6.1c-0.1-1.2-0.4-2.4-0.8-3.6
			c2.4-1,5.6-1.6,9.6-1.1c8.6,1,10.3,6.4,10,8.7s-2.1,3.5-2.7,3.9s-0.8,0.5-0.7,0.8c0.1,0.4,0.4,0.4,0.9,0.3c0.7-0.1,4.5-1.8,4.7-6
			C511.2,130.9,506.2,125.1,497.2,125.2L497.2,125.2z M430.6,147.6c-2.9,3.1-6.9,4.3-8.6,3.3c-1.8-1.1-1.1-5.7,2.4-9
			c2.1-2,4.9-3.9,6.7-5c0.4-0.3,1-0.6,1.8-1.1c0.1-0.1,0.2-0.1,0.2-0.1l0,0c0.1-0.1,0.3-0.2,0.4-0.3
			C434.9,140.2,433.6,144.3,430.6,147.6L430.6,147.6z M451.5,133.4c-1,2.4-3.1,8.6-4.4,8.3c-1.1-0.3-1.8-5-0.2-9.7
			c0.8-2.3,2.4-5.1,3.4-6.2c1.6-1.7,3.3-2.3,3.7-1.6C454.5,125.2,452.1,131.9,451.5,133.4L451.5,133.4z M468.7,141.7
			c-0.4,0.2-0.8,0.4-1,0.3c-0.1-0.1,0.2-0.4,0.2-0.4s2.2-2.3,3-3.4c0.5-0.6,1.1-1.3,1.7-2.2v0.2C472.6,139,469.9,140.9,468.7,141.7
			L468.7,141.7z M482,138.6c-0.3-0.2-0.3-0.9,0.8-3.2c0.4-0.9,1.3-2.4,3-3.8c0.2,0.6,0.3,1.1,0.3,1.7
			C486,136.8,483.5,138.1,482,138.6L482,138.6z"/>
	</g>
	<g>
		<g>
			<path class="st0" d="M78,139.5c1.5-0.8,3.3-0.9,4.9-0.9c1.8,0,3.8,0.2,5.2,1.3c0.9,0.7,1.3,1.9,1.3,3c-0.6,0-1.1,0-1.7,0
				c-0.2-1.1-0.7-2.3-1.8-2.7c-1.9-0.7-4.1-0.7-6.1-0.1c-1.6,0.4-2.2,2.7-0.9,3.8c0.9,0.7,2,0.8,3.1,1c2.1,0.5,4.4,0.5,6.4,1.5
				c2.1,1.1,2.1,4.5,0.2,5.8c-1.6,1.1-3.5,1.2-5.4,1.2c-2,0-4.2-0.2-5.8-1.5c-1-0.8-1.4-2.2-1.4-3.5c0.6,0,1.2,0,1.8,0
				c0.1,1.3,0.8,2.7,2.1,3.3c2.1,0.8,4.5,0.8,6.7,0.2c1.5-0.4,2.1-2.3,1.4-3.6c-0.3-0.6-1-0.9-1.6-1.1c-2.6-0.7-5.4-0.7-7.9-1.7
				C75.9,144.5,75.8,140.7,78,139.5z"/>
			<g>
				<path class="st0" d="M94.2,139.7c2-1,4.3-1.2,6.5-1c2.1,0.2,4.2,0.9,5.6,2.5c1.8,1.9,2.1,4.7,1.4,7.1c-0.4,1.3-1.3,2.4-2.3,3.3
					c0.8,0.6,1.6,1.1,2.4,1.7c-0.4,0.3-0.7,0.7-1.1,1c-0.8-0.5-1.6-1.2-2.5-1.7c-0.7,0-1.3,0.4-2,0.5c-1.9,0.3-3.8,0.4-5.7,0
					c-2-0.4-4-1.6-5.1-3.4c-1.1-1.8-1.2-4-0.7-6C91.2,142,92.6,140.5,94.2,139.7z M97,140c-1.9,0.5-3.8,1.8-4.4,3.8
					c-0.7,2.1-0.4,4.6,1.1,6.3c1.3,1.5,3.4,2.2,5.4,2.2c2.2,0.1,4.6-0.6,6-2.3c2-2.5,1.7-6.8-0.9-8.8C102.2,139.6,99.4,139.5,97,140
					z"/>
			</g>
			<path class="st0" d="M109.2,139c0.6,0,1.1,0,1.7,0c0,4.3,0,8.6,0,13c3.5,0.1,7,0,10.5,0c0,0.4,0,0.8,0,1.2c-4.1,0-8.1,0-12.2,0
				C109.2,148.4,109.2,143.7,109.2,139z"/>
			<path class="st0" d="M66.4,168.1c3.8-0.8,8-0.7,11.6,0.7c2.6,1,4.8,2.7,6.5,4.8c0.8,1,0.9,2.4,1,3.6c0,3-0.6,5.9-1.3,8.8
				c-1.5,5.3-3.7,10.4-6.5,15.2c-0.3,0.5-0.6,0.9-0.9,1.3c0-0.1-0.1-0.4-0.1-0.5c0.3-0.9,0.9-1.8,1.1-2.7c0.7-2.7,0.1-5.6-0.1-8.3
				c-0.3-2.6,0.6-5.1,0.6-7.7c0.1-1.3-0.4-2.5-0.9-3.6c-1.8-4-4.6-7.5-8.2-9.9C68.3,169.1,67.3,168.7,66.4,168.1z"/>
			<path class="st0" d="M55.8,168.4c4.7-0.6,9.7,0.7,13.4,3.7c3.1,2.4,5.5,5.8,6.9,9.5c-2.2-0.1-4.7-0.2-6.5,1.4
				c-1.6,1.4-1.8,3.7-1.5,5.6c0.8,4.6,3.6,8.6,5.6,12.7c0.5,1,1.3,1.8,1.9,2.7c-0.8,0.4-1.7,0.8-2.2,1.6c-0.8,1.3-0.5,2.9-0.7,4.3
				c-0.5,4.1-0.9,8.1-1.6,12.2c-0.3,1.9-1.1,4-3,5c-1.9,1-4,1.5-6.2,1.2c-2-0.4-3.3-2.2-3.8-4c-0.4-1.5-0.5-3.1-0.6-4.7
				c-0.2-3.8-0.2-7.6-0.1-11.4c0.1-1.5-0.7-3-2-3.7c-0.6-0.4-1.4-0.4-2.1-0.5c0.6-2.8,2.3-5.2,2.8-8c0.8-3.4,0.3-7-0.4-10.4
				c-0.4-1.7-1.7-3.2-3.4-3.6c-2.6-0.7-5.3,0.4-7.7,1.5c0.3-3.8,1.3-7.8,3.7-10.9C50.2,170.4,52.9,168.8,55.8,168.4z"/>
			<path class="st0" d="M35.7,168.8c4.2-0.8,8.5,0,12.5,1.3c-1.8,2-3.2,4.3-4,6.8c-1.1,3.4-1.6,7-1.3,10.5c0.2,2.5,0.1,5-0.3,7.5
				c-0.4,3.2,0.9,6.6,3.3,8.7c-1.6,1.9-3.4,3.7-4.9,5.7c-0.7,0.8-1.6,1.8-2.8,1.6c-1.4-0.4-2.3-1.7-3.1-2.8
				c-2.1-3.4-3.4-7.1-4.5-10.9c-1.3-4.4-2.4-9-3-13.6c-0.3-3.5-0.1-7.2,1.7-10.4C30.5,170.7,33,169.2,35.7,168.8z"/>
			<g>
				<path class="st0" d="M71,184.3c1.5-1.1,3.6-0.9,5.4-0.7c-0.1,2.5-0.8,4.9-0.6,7.4c0.2,3.1,1.1,6.4-0.3,9.3
					c-1.9-3.9-4.5-7.6-5.3-11.9C69.8,187,69.8,185.3,71,184.3z M71.6,184.9c-0.5,0.4,0,1.1,0.5,1.3c1.1,0.6,2.5-0.3,2.6-1.5
					C73.7,184.2,72.4,184.3,71.6,184.9z"/>
			</g>
			<g>
				<path class="st0" d="M44.8,185.9c1.9-1.3,4.2-2.2,6.6-2.1c1.2,0.1,2.3,0.9,2.6,2.1c1.1,4.2,1.4,9-0.6,13
					c-0.7,1.6-1.3,3.2-1.8,4.8c-3.4,0-6.3-2.8-6.9-6.1c-0.4-1.8,0.1-3.7,0.2-5.5C45,190,44.8,188,44.8,185.9z M50.2,185
					c-0.3,0.1-0.6,0.3-0.5,0.7c0.2,1.2,1.9,2,2.9,1.2c0.5-0.3,0.9-1,0.4-1.4C52.2,184.8,51.1,184.7,50.2,185z"/>
			</g>
			<path class="st0" d="M75.4,206.3c0.5-0.4,1.2-0.7,1.8-0.3c2.5,1.3,5.3,0.7,8,0.3c-1.6,1.6-3.8,2.3-6,2.5c-1.4,0.2-3,0.2-4.4-0.3
				C74.8,207.8,74.8,206.9,75.4,206.3z"/>
			<path class="st0" d="M50.5,209.3c1.4-0.8,2-2.4,3.3-3.3c1.4-0.2,2.5,1.9,1.4,3c-2.1,2.9-6.4,3.4-9.5,1.9
				C47.2,210.1,49,210.2,50.5,209.3z"/>
		</g>
		<g>
			<g>
				<path class="st0" d="M1,139c2.6,0,5.3,0,7.9,0c1.2,0,2.6,0.2,3.5,1.1c1.3,1.1,1.5,3.1,1,4.6c-0.7,1.7-2.5,2.4-4.2,2.5
					c-2.3,0-4.5,0-6.8,0c0,2,0,4,0,6c-0.5,0-0.9,0-1.4,0C1,148.4,1,143.7,1,139z M2.5,140.1c0,2,0,3.9,0,5.9c2.1,0,4.2,0,6.3,0
					c1.2,0,2.5-0.4,3-1.6c0.4-1.1,0.3-2.4-0.4-3.3c-0.7-0.8-1.9-1-2.9-1C6.5,140.1,4.5,140.1,2.5,140.1z"/>
			</g>
			<path class="st0" d="M38.8,140.8c0.5,0,1,0,1.5,0c0,1,0,2,0,3c0.8,0,1.7,0,2.5,0c0,0.3,0,0.7,0,1c-0.8,0-1.7,0-2.5,0
				c0,2,0,4,0,5.9c0,0.5,0,1,0.4,1.3c0.6,0.3,1.4,0.2,2.1,0.2c0,0.3,0,0.6,0,0.9c-1.1,0.1-2.2,0.2-3.2-0.3c-0.6-0.3-0.8-1-0.8-1.6
				c0-2.1,0-4.3,0-6.4c-0.6,0-1.2,0-1.9,0c0-0.3,0-0.6,0-1c0.6,0,1.2,0,1.8,0C38.8,142.8,38.8,141.8,38.8,140.8z"/>
			<g>
				<path class="st0" d="M17.5,143.6c1.8-0.3,3.9-0.2,5.5,0.7c2.5,1.4,2.8,5.2,1.1,7.3c-1.5,1.7-3.9,1.9-6,1.7
					c-1.7-0.1-3.4-0.9-4.2-2.5c-0.7-1.4-0.7-3.2-0.1-4.7C14.5,144.7,16,143.9,17.5,143.6z M18.2,144.6c-1.4,0.2-2.7,1-3.1,2.4
					c-0.5,1.5-0.3,3.4,0.9,4.5c1,0.9,2.3,1.1,3.6,1c1.1,0,2.3-0.3,3.2-1.2c0.9-0.9,1-2.2,0.9-3.4c-0.1-1-0.6-2.1-1.5-2.6
					C21,144.5,19.5,144.4,18.2,144.6z"/>
			</g>
			<path class="st0" d="M27.2,144.3c1-0.6,2.1-0.7,3.2-0.8c1.6,0,3.3,0,4.6,0.9c0.8,0.5,1,1.4,1.1,2.2c-0.5,0-1,0-1.5,0
				c-0.1-0.7-0.4-1.4-1.1-1.7c-1.2-0.6-2.7-0.5-4-0.3c-0.8,0.1-1.8,0.6-1.9,1.5c-0.1,0.7,0.6,1.2,1.1,1.3c1.8,0.4,3.6,0.4,5.4,0.8
				c0.8,0.2,1.6,0.5,2.1,1.2c0.6,1,0.2,2.5-0.8,3.2c-1.3,0.8-2.8,0.8-4.3,0.8c-1.4-0.1-3-0.1-4.2-0.9c-0.7-0.5-1-1.4-1.1-2.3
				c0.5,0,1.1,0,1.6,0c0,1.1,1,2,2.1,2.1c1.6,0.2,3.3,0.4,4.8-0.4c1-0.5,0.9-2.2-0.2-2.5c-2.2-0.6-4.6-0.4-6.7-1.2
				C25.9,147.6,25.8,145.2,27.2,144.3z"/>
			<g>
				<path class="st0" d="M47.1,143.8c1.5-0.3,3.1-0.4,4.6,0.1c0.8,0.2,1.4,0.9,2.1,1.5c0-0.5,0-1,0.1-1.5c0.5,0,0.9,0,1.4,0
					c0.1,2.9,0,5.7,0.1,8.6c0,1.2-0.2,2.5-1.1,3.3c-1.2,1.1-2.9,1.3-4.5,1.3c-1.4,0-2.9-0.1-4.1-0.7c-0.9-0.5-1.3-1.4-1.5-2.3
					c0.5,0,0.9,0,1.4,0c0.3,0.6,0.5,1.4,1.2,1.7c1,0.5,2.1,0.5,3.2,0.5c1.2,0,2.6-0.3,3.3-1.3c0.7-1,0.6-2.3,0.6-3.5
					c-1.5,1.5-3.8,1.8-5.8,1.6c-1.3-0.1-2.6-0.6-3.4-1.6c-1-1.2-1.1-3-0.8-4.5C44.2,145.2,45.6,144.1,47.1,143.8z M48.3,144.6
					c-1,0.2-2.1,0.7-2.7,1.6c-0.7,1.1-0.7,2.5-0.2,3.7c0.5,1.2,1.8,1.8,3,2c1.6,0.2,3.4,0,4.5-1.2c1.3-1.5,1.1-4.2-0.6-5.4
					C51.2,144.5,49.7,144.4,48.3,144.6z"/>
			</g>
			<path class="st0" d="M59.7,143.9c1.1-0.5,2.2-0.4,3.4-0.4c0,0.4,0,0.8,0,1.2c-1.2,0-2.4-0.2-3.4,0.6c-1,0.7-1.3,1.9-1.3,3
				c0,1.6,0,3.2,0,4.8c-0.5,0-1,0-1.4,0c0-3.1-0.1-6.2,0-9.3c0.5,0,1,0,1.4,0c0,0.5,0,1.1,0,1.6C58.7,144.8,59.1,144.2,59.7,143.9z"
				/>
			<g>
				<path class="st0" d="M63.6,145.8c1-1.6,2.9-2.2,4.6-2.3c1.8-0.1,3.8,0.2,5.2,1.5c1,0.9,1.3,2.3,1.4,3.7c-3.4,0-6.9,0-10.3,0
					c0.1,0.9,0.4,1.9,1.1,2.5c1.3,1.2,3.4,1.3,5.1,1c1.1-0.2,2-1.1,2.4-2.2c0.5,0,1.1,0,1.6,0c-0.5,1.6-1.8,2.7-3.4,3.1
					c-2.1,0.5-4.6,0.4-6.4-0.9C62.8,150.8,62.4,147.8,63.6,145.8z M66.2,145.1c-1,0.5-1.5,1.7-1.8,2.8c2.9,0,5.9,0,8.8,0
					c-0.1-0.7-0.3-1.3-0.8-1.9C71,144.2,68.2,144,66.2,145.1z"/>
			</g>
			<g>
				<path class="st0" d="M63.2,165c4.1-1.1,8.5-1.5,12.7-0.7c3.8,0.7,7.5,2.5,10.2,5.2c1.2,1.2,2.5,2.6,2.9,4.3c0.8,3,0.5,6.1,0,9.1
					c-1.3,7.2-4.1,14-7.7,20.2c1.6,0,3.2-0.5,4.8-0.6c1.6-0.1,3.3,0.9,3.7,2.5c0.5,1.7-0.6,3.4-1.9,4.4c-3.2,2.8-7.6,3.8-11.8,3.5
					c-0.3,4.3-0.3,8.8-2.2,12.8c-0.8,1.8-2.1,3.4-3.8,4.4c-1.6,1-3.5,1.5-5.3,1.8c-2,0.4-4.2,0.2-6-1c-1.6-1-2.6-2.7-3.2-4.5
					c-1.4-3.7-1.3-7.8-1.5-11.7c-2.8,1.1-6.1,1.1-8.9,0.1c-1-0.4-1.9-1-2.7-1.7c-1.5,1.2-3.5,1.9-5.4,1.3c-2.4-0.7-4.1-2.7-5.4-4.7
					c-2.2-3.6-3.6-7.7-4.8-11.8c-1.4-4.7-2.5-9.5-3.1-14.3c-0.3-4.3,0-8.9,2.4-12.7c1.9-3.1,5.2-5.1,8.7-5.8c5-1,10.1,0,14.9,1.5
					c1.5-0.7,3.1-1.5,4.8-1.7C57.3,164.3,60.3,164.6,63.2,165z M63.1,166.9c-0.4,0.1-0.7-0.1-1.1-0.1c-4.1-0.8-8.6-0.5-12.1,1.9
					c-4.2-1.5-8.8-2.4-13.3-2c-3.4,0.3-6.7,1.9-8.6,4.8c-2.4,3.6-2.8,8.1-2.4,12.3c0.8,5.5,2.1,11,3.9,16.3c1.1,3.3,2.4,6.7,4.4,9.6
					c1,1.4,2.4,2.9,4.2,3.1c1.6,0.2,3.1-0.8,4.1-2c1.7-2.1,3.5-4.1,5.3-6.1c1.2,0.6,2.5,0.9,3.8,1c-0.7,0.9-1.3,2-2.5,2.3
					c-1.5,0.6-3.4,0.5-4.7,1.5c-0.8,0.6-0.8,1.8-0.1,2.4c1.3,1.2,3.2,1.5,4.9,1.7c2.4,0.2,4.9-0.6,6.7-2.2c0,3.8,0,7.7,0.4,11.5
					c0.2,2.2,1.2,4.5,2.9,6c1.6,1.4,3.9,1.7,5.9,1.3c2-0.4,4-1,5.6-2.3c1.7-1.5,2.4-3.7,2.7-5.8c0.6-3.8,1-7.6,1.5-11.4
					c4.3,0.7,9.1-0.1,12.3-3.2c0.7-0.6,1.3-1.8,0.7-2.6c-0.7-0.8-1.9-0.6-2.8-0.4c-2.2,0.4-4.6,0.8-6.7-0.1c3.8-6,6.8-12.5,8.4-19.4
					c0.6-2.6,1.1-5.3,1-8c-0.1-1.5-0.3-3.1-1.2-4.4c-2.3-3-5.6-5.2-9.2-6.2C72.5,165.2,67.6,165.5,63.1,166.9z"/>
			</g>
		</g>
	</g>
	<g>
		<path class="st0" d="M622.7,183.4c0-11.8,4.2-21.8,12.5-30.2c8.3-8.3,18.4-12.5,30.2-12.5c11.8,0,21.8,4.2,30.2,12.5
			c8.3,8.3,12.5,18.4,12.5,30.2c0,11.8-4.2,21.8-12.5,30.2c-8.3,8.3-18.4,12.5-30.2,12.5c-11.8,0-21.8-4.2-30.2-12.5
			C626.8,205.3,622.7,195.2,622.7,183.4L622.7,183.4z M627.3,183.4c0,10.4,3.7,19.4,11.2,26.8c7.4,7.4,16.4,11.2,26.8,11.2
			c10.4,0,19.4-3.7,26.8-11.2c7.4-7.4,11.2-16.4,11.2-26.8c0-10.4-3.7-19.4-11.2-26.8c-7.4-7.4-16.4-11.2-26.8-11.2
			c-10.4,0-19.4,3.7-26.8,11.2C631.1,164,627.3,173,627.3,183.4L627.3,183.4z M639.3,192.6c-0.2-0.2-0.2-0.4,0-0.7
			c0.4-0.4,1-0.6,1.7-0.5c0.7,0.1,1.1,0.2,1.2,0.3c0.8,0.3,1.6,1.1,2.6,2.3c0.9,1.2,1.7,2,2.3,2.4c2.7,2.2,5.4,2.4,8.2,0.5
			c0.2-0.8,0.6-1.4,1.1-2c0.5-0.6,1-0.9,1.4-1.2c0.4-0.2,1.2-0.6,2.3-1c-3.7-0.3-6.6-1-8.9-1.9c-2.3-0.9-4.1-2.1-5.4-3.6
			c-1.8-2-2.9-4.6-3.3-7.8c-0.4-3.2-0.1-6.2,0.8-8.8c0.7-1.7,1.6-3.2,2.8-4.5c-0.9-2.8-0.7-5.9,0.5-9.5c3.6,0.2,6.8,1.4,9.7,3.7
			c5.6-1.4,11.3-1.5,17.3-0.2c0.8-0.6,2-1.3,3.6-2.1c1.6-0.8,3.6-1.3,6.1-1.4c0.4,1.2,0.8,2.7,0.9,4.3s0.1,3.2-0.2,4.7
			c2.6,2.7,3.9,6.2,4,10.7c0,3.6-0.6,6.5-1.8,8.8s-3.4,4.3-6.5,5.8c-2.1,1-4.9,1.6-8.3,1.8c1.6,0.8,2.7,1.6,3.4,2.4s1.2,2.1,1.4,3.9
			v5.3c0,0,0.1,1.7,0.2,5.1c0.3,0.6,0.7,1,1.2,1.4c0.4,0.4,0.8,0.7,1.2,0.8c0.3,0.2,0.4,0.4,0.3,0.8c-0.1,0.3-0.6,0.5-1.3,0.5
			c-1.9,0-3.4-0.7-4.5-2c-0.3-0.6-0.5-1.2-0.5-2v-8c0-0.9-0.2-1.5-0.7-1.9c-0.4-0.4-0.9-0.6-1.3-0.8v10.5c0,1.9,0.2,3.1,0.7,3.7
			s0.7,1.1,0.8,1.7c0.1,0.1,0,0.2-0.2,0.3c-0.3,0.1-0.8,0-1.4-0.3c-1.4-0.3-2.4-1.1-3-2.3s-0.8-2.4-0.8-3.8v-10.3h-2.2v10.3
			c0,1.3-0.3,2.6-0.8,3.8c-0.8,1.6-2.2,2.4-4.3,2.5c-0.3-0.1-0.5-0.2-0.5-0.3c0.1-0.1,0.4-0.7,1-1.7c0.1-0.2,0.3-0.7,0.4-1.3
			c0.2-0.7,0.3-1.4,0.2-2.3v-10.5c-0.4,0.1-0.9,0.4-1.3,0.8c-0.4,0.4-0.6,1-0.6,1.9v8c0,0.8-0.2,1.4-0.5,2c-1,1.3-2.5,2-4.5,2
			c-0.8,0-1.2-0.2-1.3-0.5c-0.1-0.2-0.1-0.4,0.1-0.6c0.2-0.2,0.4-0.4,0.8-0.6c0.3-0.2,0.6-0.4,0.7-0.5c0.4-0.3,0.8-0.8,1-1.3
			c0.3-0.4,0.4-1.6,0.2-3.5c-0.2-1.9-0.2-3.1-0.1-3.7c-2.9,1-5.8,0.5-8.8-1.5c-0.9-0.9-1.8-2.2-2.7-3.8
			C642.7,195.7,641.3,194.3,639.3,192.6L639.3,192.6z"/>
	</g>
	<g>
		<g transform="translate(26.592321, 248.822656)">
			<path class="st0" d="M5.3-175v14.2h3.6v-3.7l3.3,3.3h5.5l-4.4-4.4c0,0,3.2-0.1,3.4-4.6c0-4.2-3.2-4.7-6.8-4.7H5.3L5.3-175z
				 M9.1-171.2h3.1v2.5H9.1V-171.2L9.1-171.2z"/>
			<path class="st0" d="M24.7-175c-2,0-4.7,0.2-4.7,3.9v9.8h3.7v-2.4h3.6v2.3H31v-10.3c0-3.2-3.6-3.4-5.5-3.4
				C25.2-175,25-175,24.7-175L24.7-175z M23.7-171.4h3.5v3.9h-3.5V-171.4L23.7-171.4z"/>
			<rect x="34.7" y="-175" class="st0" width="3.8" height="13.5"/>
			<path class="st0" d="M42.6-174.8v13.5h9.2v-3.6h-5.5v-10L42.6-174.8z"/>
			<path class="st0" d="M64-174.9v3.7h-6.2v1.3h2.6c1.4,0,4.3-0.1,4.3,4.3s-2,4.6-6,4.6h-4.9v-3.3h5.6c1.7,0,1.8-0.5,1.8-1
				s-0.9-0.7-2.6-0.7c-1.7,0-5-0.9-5-4.2s1.7-4.6,5-4.6C62-175,64-174.9,64-174.9L64-174.9z"/>
		</g>
		<g transform="translate(14.055544, 16.892288)">
			<path class="st0" d="M21.2,52.9h31.9c0,0-7.1-16.1-5.3-30.8c1.8-14.7,13.4-21.5,20-22.2C74.4-0.8,78,3.3,78,3.3l1.4-2.2
				c0,0-9.5-9.6-21.5-8.5c-12,1.1-20.3,9-25.4,18.6c-5.2,9.6-8.1,16.3-10.2,26.4S21.2,52.9,21.2,52.9L21.2,52.9z"/>
			<path class="st0" d="M14.8,36.8l6.2,0.5L20,43.5l-5.9-0.7L14.8,36.8z"/>
			<path class="st0" d="M24.6,23.6l1.7-4.7l-5.5-2.2l-1.8,5L24.6,23.6z"/>
			<path class="st0" d="M32.4,7.6l3.2-3.8L31.5,1l-3.4,3.7L32.4,7.6z"/>
			<path class="st0" d="M40.9-7.3l2.9,3.5l4-2.3l-2.9-3.2L40.9-7.3z"/>
			<path class="st0" d="M55-11.2l0.7,3.5l4.9-0.1L60.1-11L55-11.2z"/>
			<path class="st0" d="M71.6-7.5l-0.1,2.2l3.4,1.8l0.7-1.1L71.6-7.5z"/>
			<path class="st0" d="M70.9,1.7v1.8l3.2,0.4V2.4L70.9,1.7z"/>
			<path class="st0" d="M60.6,3.3l1.6,2.9l2.3-1.8L64,2.4L60.6,3.3z"/>
			<path class="st0" d="M55.7,7l2.4,3.6l-1.4,2.5l-3.5-3.8L55.7,7z"/>
			<path class="st0" d="M50.9,16.9L49.3,20l4.1,3.5l1-4L50.9,16.9z"/>
			<path class="st0" d="M49.2,27.8L49,32l5,2.2l-0.2-4L49.2,27.8z"/>
			<path class="st0" d="M50.7,42.7l1.2,4.3l6.4,0.4l-2.3-4.7H50.7z"/>
		</g>
		<path class="st0" d="M25.8,95.9c0,0,0,0,0-0.3c0-0.3,0-0.3,0-0.8c0-0.8,0-1.8,0-2.9c0-3.1,0-6.6,0-10.4C26,70.8,26,60,26,49.9
			c0-5.2,0-9.8-0.1-16.2c-0.3-19.5-0.2-23.2,1.5-26.8C29,3.4,32,2.5,41.4,2.5h56.1l-0.9-0.9v64.8c0,2,0,3.7,0.1,6.6
			c0.2,11.1,0,14.3-1.8,17.2c-2.1,3.4-6.6,4.9-15.7,4.9c-5.1,0-11.2,0-18,0c-5.4,0-11.2,0-17.2-0.1c-4.8,0-9.3,0-13.6-0.1
			c-1.5,0-2.8,0-4,0c-0.4,0-0.6,0-1.1,0c-0.3,0-0.3,0-0.4,0L25.8,95.9L25.8,95.9z M24,96.8l0.9,0c0.1,0,0.1,0,0.4,0
			c0.4,0,0.7,0,1.1,0c1.2,0,2.5,0,4,0c4.3,0,8.8,0,13.6,0.1c5.9,0,11.7,0.1,17.2,0.1c6.8,0,12.8,0,18,0c9.7,0,14.8-1.7,17.3-5.8
			c2.1-3.4,2.3-6.6,2.1-18.2c-0.1-2.9-0.1-4.6-0.1-6.6V1.6V0.7h-0.9H41.4c-10.1,0-13.7,1.1-15.8,5.5c-1,2.2-1.5,5.3-1.7,10
			c-0.1,3.6-0.1,5.7,0.1,17.6c0.1,6.4,0.1,10.9,0.1,16.2c0,10.1,0,20.9-0.1,31.7c0,3.8,0,7.3,0,10.4c0,1.1,0,2.1,0,2.9
			c0,0.5,0,0.5,0,0.8C24,95.8,24,96.8,24,96.8z"/>
	</g>
	<g>
		<g>
			<path class="st0" d="M527.1,191.4l-8.6,12l-0.8-3.1H512c0,0,0.6,2.8,1,4.3c0.4,1.4,1.1,2.9,1.2,4.3c0,1.6-0.8,4.7-0.8,4.7l5.5,0
				c0,0,0.6-3,1.2-4.3c0.2-0.5,0.7-1,1-1.4c0.9-1.2,12.1-16.4,12.1-16.4L527.1,191.4z"/>
			<path class="st0" d="M515.7,194.6c-1.2-0.7-4.1-0.4-6.6-0.4h-3.8c-2.4,0-3.8-0.2-4,0.8c-0.7,2.9-3.9,18.6-3.9,18.6h5.1l3.3-14.5
				h2.7c3.2,0,9-0.1,9-0.1S516.8,195.3,515.7,194.6z"/>
			<path class="st0" d="M496.2,196.1c-1.1-1.5-3.2-2-4.7-2.2c-3.8-0.4-7,0.6-8.8,2c-0.5,0.4-1,0.7-1.4,1.2c-0.1,0.2-0.3,0.3-0.4,0.5
				c-0.1,0.2-0.2,0.3-0.4,0.4c-0.2,0.2-0.3,0.7-0.5,1.1c-0.2,0.3-0.3,0.7-0.4,1c-1.1,2.6-2.1,7.6-1.2,10.2c0.1,0.4,0.5,0.9,0.6,1
				c0.1,0.2,0.3,0.4,0.4,0.6c0.5,0.6,1.3,1,2.2,1.2c4.2,1,12.7,0.6,12.7,0.6l1-4.6c0,0-6,0.3-8.9-0.1c-0.4-0.1-1.6-0.1-2.2-0.7
				c-0.5-0.5-1.2-1.6-0.7-2.3c0.3-0.5,1.6-0.4,2.7-0.4c3.5-0.1,10,0,10,0s1.2-5.5,0.6-7.8C496.7,197.3,496.5,196.5,496.2,196.1z
				 M492,201.6l-7.6,0c0,0-0.1-3.3,4.3-3.1c1.6,0,2.1,0.3,2.7,1.2C492.2,200.7,492,201.6,492,201.6z"/>
			<path class="st0" d="M473.5,194.2l-3.5,14.7c0,0-1.9,0-2.5,0c-1.9,0-2.5-0.1-2.9-1c-0.5-0.9,0-2.1,0.2-3.3c0.6-3.5,2-10.4,2-10.4
				l-5.1,0c0,0-1,4.5-1.4,6.6c-0.7,3.1-2,7.6-0.6,10.4c1.5,2.8,5,2.3,9,2.3h5.7c1.4-6.4,4.1-19.4,4.1-19.4L473.5,194.2z"/>
			<path class="st0" d="M457.3,196.3c-0.3-2.2-1.7-4.6-3.3-5.6c-0.1,0-0.3-0.3-0.4-0.3c-1.2-0.7-3-1.2-4.3-1.4
				c-6.7-0.7-10.6,2.3-12.9,6.3c-0.9,1.6-1.5,3.3-2,5.1c-0.5,2-0.9,4.4-0.6,6.6c0.2,1.3,0.9,3.2,2,4.3c2.6,2.7,7.7,2.3,13.1,2.3
				c1.7,0,5.7,0,6.9-0.1c0.4,0,1.5-4.6,1.4-4.7c-0.1-0.1-1.4,0-2.9-0.1C455.7,204.9,457.8,200.4,457.3,196.3z M450.4,203.5
				c-0.5,1.7-1,3.5-1.6,5.1c-4,0-7.6,0.5-8.8-2c-0.7-1.4-0.4-3.3,0-5.1c0.5-2.4,1-4.2,2.3-5.7c1.1-1.2,3.8-2.6,6.6-1.6
				c1,0.3,2.4,1.9,2.5,3.7C451.7,199.7,451,201.7,450.4,203.5z"/>
			<path class="st0" d="M426.8,198.8h5.5c0.3-1.5,0.7-3.2,1-4.7c-1.9,0-3.6,0-5.3,0C427.5,195.6,427.2,197.2,426.8,198.8z"/>
			<path class="st0" d="M424.4,209.2c-0.8,3.8-0.9,7.7-5.1,7.2c-0.4,1.5-0.9,3.4-1.4,5.1c1.7,0,3.3,0.2,4.7,0
				c0.9-0.1,2.4-0.5,2.7-0.8c0.1-0.1,0.2-0.1,0.4-0.2c1.8-1.4,2.3-3.4,2.9-6.1c1.1-4.3,2.4-10.5,3.1-14.3h-5.3
				C426.3,201.1,424.9,207,424.4,209.2z"/>
		</g>
		<g>
			<path class="st0" d="M392.3,196.7l0.1-0.4c-0.1,0,0.5-0.9,0.4-0.9c-4.2,4.1-3.8,9.5-1.8,13.4c1.4,2.7,4,5.3,7,6.6
				c1.4,0.6,3.6,1.2,5.9,1.2c4.9-0.1,8.3-2.4,10.2-6.2l0.1-0.3c-1.7,1.7-4.5,2.9-6.6,3.1C398.6,214.2,389.3,206.1,392.3,196.7z"/>
			<path class="st0" d="M404.3,198.1c1.2,1.9,3.5,3.6,7,2.9c0.9-0.2,2.9-1.7,3.3-2.5c-3.1,2.1-4.9,1.4-5.8,1.1
				c-0.2-0.1-0.7-0.3-1.1-0.5c-0.9-0.6-1.4-0.8-2.2-1.9c-0.4-0.6-0.8-1.5-0.9-2.1c-0.2-0.9-0.2-2.2,0.3-3.4
				c-1.4,1.2-1.6,3.6-1.1,5.2C403.8,197,404.1,197.8,404.3,198.1z"/>
			<path class="st0" d="M405.3,208.2c4.8,0.6,8.3-1.4,9.6-4.5c-1.4,1.5-3.8,2.6-6.1,2.5c-5.1,0-10.8-4.6-10.2-10.9
				c0.1-0.5,0.3-1.4,0.9-2.5c-1.7,2.1-2.7,3.9-2.4,6.8C397.5,203.7,401.3,207.7,405.3,208.2z"/>
		</g>
	</g>
	<g>
		<path class="st0" d="M853.3,20h-35l6.6,71.2l28.5,8.1l28.5-8.1l6.6-71.2H853.3z M871.2,79.1l-17.9,5.1l-17.9-5.1l-1.3-13.6h8.9
			l0.6,6.8l9.8,2.8l9.6-2.8l1-11.3h-10.6h-19.5l-0.1,0.2l2.5-26.7h17.1h18.3l1.9,14h-8.9l-0.3-5.1h-11h-9.9l-0.4,8.9h10.3h20.4
			L871.2,79.1z"/>
		<g class="st7">
			<polygon class="st5" points="863.9,61.1 853.3,61.1 853.3,75.1 862.9,72.3 			"/>
			<polygon class="st5" points="853.3,25.8 853.3,34.6 871.6,34.6 873.6,48.5 864.6,48.5 864.3,43.4 853.3,43.4 853.3,52.3 
				873.7,52.3 871.2,79.1 853.3,84.2 853.3,93.3 876.3,86.7 881.9,25.8 			"/>
		</g>
		<g>
			<polygon class="st0" points="846.5,9.5 840.2,9.5 840.2,14 846.5,14 849.8,14 850.9,14 850.9,0.7 846.5,0.7 			"/>
			<path class="st0" d="M866.3,0.8h-10.9c0,0,0,2.3,0,4.7c1.5,1.5,2.2,2.1,4.3,4.3c-1.2,0-4.3,0-4.3,0v4.2h10.9V9.7L862,5.4h4.3V0.8
				z"/>
		</g>
	</g>
	<g>
		<g>
			<path class="st0" d="M413.4,35.5c0.6-0.5,0.9-1.2,0.9-2.1c0-1-0.3-1.8-0.8-2.2c-0.5-0.4-1.3-0.6-2.2-0.6h-5.8v5.6h5.8
				C412.1,36.2,412.8,35.9,413.4,35.5z"/>
			<path class="st0" d="M411.7,38.8h-6.3v6.4h6.3c1.1,0,1.9-0.3,2.5-0.8c0.6-0.6,0.9-1.4,0.9-2.4c0-1-0.3-1.8-0.9-2.3
				C413.6,39,412.8,38.8,411.7,38.8z"/>
			<path class="st0" d="M421.5,20h-23.3c-3.2,0-5.8,2.6-5.8,5.8v23.3c0,3.2,2.6,5.8,5.8,5.8h23.3c3.2,0,5.8-2.6,5.8-5.8V25.9
				C427.3,22.7,424.7,20,421.5,20z M418.3,44.6c-0.3,0.7-0.7,1.3-1.3,1.8c-0.6,0.5-1.4,0.9-2.3,1.2c-1,0.3-2.1,0.4-3.4,0.4h-9.4
				V27.6h9.9c1.8,0,3.3,0.4,4.4,1.3s1.7,2.1,1.7,3.8c0,1-0.3,1.9-0.8,2.6c-0.5,0.7-1.2,1.3-2.2,1.7v0.1c1.3,0.3,2.2,0.9,2.9,1.8
				c0.6,0.9,1,2.1,1,3.5C418.7,43.2,418.6,43.9,418.3,44.6z"/>
		</g>
		<g>
			<path class="st0" d="M434.9,45.2V28.8h6.2c1.3,0,2.3,0.2,3,0.5c0.8,0.3,1.4,0.8,1.8,1.5c0.4,0.7,0.6,1.4,0.6,2.2
				c0,0.7-0.2,1.4-0.6,2c-0.4,0.6-1,1.1-1.7,1.5c1,0.3,1.8,0.8,2.3,1.5c0.5,0.7,0.8,1.5,0.8,2.5c0,0.8-0.2,1.5-0.5,2.1
				c-0.3,0.7-0.7,1.2-1.2,1.5c-0.5,0.4-1.1,0.6-1.8,0.8c-0.7,0.2-1.6,0.3-2.6,0.3H434.9z M437.1,35.7h3.5c1,0,1.7-0.1,2.1-0.2
				c0.6-0.2,1-0.4,1.2-0.8c0.3-0.4,0.4-0.9,0.4-1.4c0-0.5-0.1-1-0.4-1.4c-0.3-0.4-0.6-0.7-1.1-0.9c-0.5-0.2-1.3-0.2-2.5-0.2h-3.3
				V35.7z M437.1,43.3h4.1c0.7,0,1.2,0,1.5-0.1c0.5-0.1,0.9-0.2,1.3-0.4c0.3-0.2,0.6-0.5,0.8-0.9c0.2-0.4,0.3-0.9,0.3-1.4
				c0-0.6-0.2-1.1-0.5-1.6c-0.3-0.5-0.7-0.8-1.3-1c-0.6-0.2-1.4-0.3-2.4-0.3h-3.8V43.3z"/>
			<path class="st0" d="M449.3,39.3c0-2.2,0.6-3.8,1.8-4.9c1-0.9,2.3-1.3,3.7-1.3c1.6,0,3,0.5,4,1.6c1,1.1,1.6,2.5,1.6,4.4
				c0,1.5-0.2,2.7-0.7,3.6c-0.5,0.9-1.1,1.6-2,2c-0.9,0.5-1.8,0.7-2.9,0.7c-1.7,0-3-0.5-4-1.6C449.8,42.8,449.3,41.3,449.3,39.3z
				 M451.4,39.3c0,1.5,0.3,2.7,1,3.4c0.7,0.8,1.5,1.1,2.5,1.1c1,0,1.8-0.4,2.5-1.1c0.7-0.8,1-1.9,1-3.5c0-1.5-0.3-2.6-1-3.3
				c-0.7-0.8-1.5-1.1-2.5-1.1c-1,0-1.8,0.4-2.5,1.1C451.7,36.6,451.4,37.8,451.4,39.3z"/>
			<path class="st0" d="M462,39.3c0-2.2,0.6-3.8,1.8-4.9c1-0.9,2.3-1.3,3.7-1.3c1.6,0,3,0.5,4,1.6c1,1.1,1.6,2.5,1.6,4.4
				c0,1.5-0.2,2.7-0.7,3.6c-0.5,0.9-1.1,1.6-2,2c-0.9,0.5-1.8,0.7-2.9,0.7c-1.7,0-3-0.5-4-1.6C462.5,42.8,462,41.3,462,39.3z
				 M464.1,39.3c0,1.5,0.3,2.7,1,3.4c0.7,0.8,1.5,1.1,2.5,1.1c1,0,1.8-0.4,2.5-1.1c0.7-0.8,1-1.9,1-3.5c0-1.5-0.3-2.6-1-3.3
				c-0.7-0.8-1.5-1.1-2.5-1.1c-1,0-1.8,0.4-2.5,1.1C464.4,36.6,464.1,37.8,464.1,39.3z"/>
			<path class="st0" d="M479.9,43.4l0.3,1.8c-0.6,0.1-1.1,0.2-1.5,0.2c-0.7,0-1.3-0.1-1.7-0.3c-0.4-0.2-0.7-0.5-0.9-0.9
				c-0.2-0.4-0.2-1.2-0.2-2.4v-6.8h-1.5v-1.6h1.5v-2.9l2-1.2v4.2h2v1.6h-2v6.9c0,0.6,0,0.9,0.1,1.1c0.1,0.2,0.2,0.3,0.3,0.4
				c0.2,0.1,0.4,0.1,0.7,0.1C479.3,43.5,479.6,43.5,479.9,43.4z"/>
			<path class="st0" d="M481.1,41.7l2-0.3c0.1,0.8,0.4,1.4,0.9,1.8c0.5,0.4,1.2,0.6,2.1,0.6c0.9,0,1.6-0.2,2.1-0.6
				c0.4-0.4,0.7-0.8,0.7-1.3c0-0.5-0.2-0.8-0.6-1.1c-0.3-0.2-1-0.4-2.1-0.7c-1.5-0.4-2.5-0.7-3.1-1c-0.6-0.3-1-0.6-1.3-1.1
				c-0.3-0.5-0.4-1-0.4-1.6c0-0.5,0.1-1,0.4-1.5c0.2-0.5,0.6-0.8,1-1.1c0.3-0.2,0.7-0.4,1.3-0.6c0.5-0.2,1.1-0.2,1.7-0.2
				c0.9,0,1.8,0.1,2.5,0.4c0.7,0.3,1.2,0.6,1.6,1.1c0.3,0.5,0.6,1.1,0.7,1.8l-2,0.3c-0.1-0.6-0.3-1.1-0.8-1.4
				c-0.4-0.3-1-0.5-1.8-0.5c-0.9,0-1.6,0.2-2,0.5c-0.4,0.3-0.6,0.7-0.6,1.1c0,0.3,0.1,0.5,0.2,0.7c0.2,0.2,0.4,0.4,0.8,0.5
				c0.2,0.1,0.8,0.2,1.8,0.5c1.4,0.4,2.4,0.7,3,0.9c0.6,0.2,1,0.6,1.3,1.1c0.3,0.5,0.5,1,0.5,1.7c0,0.7-0.2,1.3-0.6,1.9
				c-0.4,0.6-1,1.1-1.7,1.4c-0.7,0.3-1.6,0.5-2.5,0.5c-1.5,0-2.7-0.3-3.5-1C481.8,43.9,481.3,43,481.1,41.7z"/>
			<path class="st0" d="M497.8,43.4l0.3,1.8c-0.6,0.1-1.1,0.2-1.5,0.2c-0.7,0-1.3-0.1-1.7-0.3c-0.4-0.2-0.7-0.5-0.9-0.9
				c-0.2-0.4-0.2-1.2-0.2-2.4v-6.8h-1.5v-1.6h1.5v-2.9l2-1.2v4.2h2v1.6h-2v6.9c0,0.6,0,0.9,0.1,1.1c0.1,0.2,0.2,0.3,0.3,0.4
				c0.2,0.1,0.4,0.1,0.7,0.1C497.1,43.5,497.4,43.5,497.8,43.4z"/>
			<path class="st0" d="M499.7,45.2V33.4h1.8v1.8c0.5-0.8,0.9-1.4,1.3-1.7c0.4-0.3,0.8-0.4,1.3-0.4c0.7,0,1.4,0.2,2.1,0.6l-0.7,1.9
				c-0.5-0.3-1-0.4-1.5-0.4c-0.4,0-0.8,0.1-1.2,0.4c-0.4,0.3-0.6,0.6-0.7,1.1c-0.2,0.7-0.3,1.5-0.3,2.3v6.2H499.7z"/>
			<path class="st0" d="M515.1,43.8c-0.7,0.6-1.5,1.1-2.2,1.3s-1.4,0.4-2.2,0.4c-1.3,0-2.3-0.3-3-1c-0.7-0.6-1.1-1.5-1.1-2.4
				c0-0.6,0.1-1.1,0.4-1.6c0.3-0.5,0.6-0.9,1-1.2c0.4-0.3,0.9-0.5,1.4-0.7c0.4-0.1,1-0.2,1.8-0.3c1.6-0.2,2.8-0.4,3.6-0.7
				c0-0.3,0-0.5,0-0.5c0-0.8-0.2-1.4-0.6-1.7c-0.5-0.5-1.3-0.7-2.3-0.7c-0.9,0-1.6,0.2-2.1,0.5c-0.5,0.3-0.8,0.9-1,1.8l-2-0.3
				c0.2-0.8,0.5-1.5,0.9-2c0.4-0.5,1-0.9,1.8-1.2c0.8-0.3,1.7-0.4,2.7-0.4c1,0,1.8,0.1,2.5,0.4c0.6,0.2,1.1,0.5,1.4,0.9
				c0.3,0.4,0.5,0.8,0.6,1.4c0.1,0.3,0.1,1,0.1,1.9v2.7c0,1.9,0,3.1,0.1,3.6c0.1,0.5,0.3,1,0.5,1.4h-2.1
				C515.3,44.8,515.2,44.3,515.1,43.8z M514.9,39.3c-0.7,0.3-1.8,0.6-3.3,0.8c-0.8,0.1-1.4,0.3-1.8,0.4c-0.3,0.1-0.6,0.4-0.8,0.7
				c-0.2,0.3-0.3,0.6-0.3,1c0,0.5,0.2,1,0.6,1.3c0.4,0.4,1,0.5,1.8,0.5c0.8,0,1.5-0.2,2.1-0.5c0.6-0.3,1-0.8,1.3-1.4
				c0.2-0.5,0.3-1.1,0.3-2V39.3z"/>
			<path class="st0" d="M520.1,49.8V33.4h1.8v1.5c0.4-0.6,0.9-1.1,1.5-1.4c0.5-0.3,1.2-0.5,2-0.5c1,0,1.9,0.3,2.7,0.8
				c0.8,0.5,1.4,1.3,1.8,2.2c0.4,1,0.6,2,0.6,3.1c0,1.2-0.2,2.3-0.7,3.3c-0.4,1-1.1,1.7-1.9,2.2c-0.8,0.5-1.7,0.8-2.6,0.8
				c-0.7,0-1.3-0.1-1.8-0.4c-0.5-0.3-1-0.6-1.3-1.1v5.8H520.1z M521.9,39.4c0,1.5,0.3,2.7,0.9,3.4c0.6,0.7,1.4,1.1,2.2,1.1
				c0.9,0,1.7-0.4,2.3-1.1c0.6-0.8,1-1.9,1-3.5c0-1.5-0.3-2.6-0.9-3.4c-0.6-0.8-1.4-1.1-2.2-1.1c-0.9,0-1.6,0.4-2.3,1.2
				C522.3,36.7,521.9,37.8,521.9,39.4z"/>
		</g>
	</g>
	<g>
		<g>
			<g transform="translate(150.000000, 31.000000)">
				<path class="st0" d="M76.5,182.8v-16h2.1l9.8,12.9v-12.9h2v16h-2.1l-9.8-13v13H76.5L76.5,182.8z"/>
				<path class="st0" d="M106.2,182.2c-1.3,0.5-2.7,0.7-4.2,0.7c-5.8,0-8.7-2.8-8.7-8.3c0-5.3,2.8-7.9,8.4-7.9
					c1.6,0,3.1,0.2,4.5,0.7v1.8c-1.4-0.5-2.8-0.8-4.2-0.8c-4.4,0-6.6,2.1-6.6,6.2c0,4.5,2.2,6.7,6.5,6.7c0.7,0,1.4-0.1,2.3-0.3v-5.4
					h2.1V182.2L106.2,182.2z"/>
				<path class="st0" d="M109.6,176.6v-9.8h2.1v9.8c0,3.1,1.5,4.6,4.6,4.6c3.1,0,4.6-1.6,4.6-4.6v-9.8h2.1v9.8
					c0,4.2-2.2,6.3-6.7,6.3C111.8,182.9,109.6,180.8,109.6,176.6L109.6,176.6L109.6,176.6z"/>
				<path class="st0" d="M128.6,166.8v14.3h8.4v1.7h-10.5v-16H128.6L128.6,166.8z"/>
				<path class="st0" d="M140,182.8h-2.2l8-18.1l8,18.1h-2.3l-2.1-5h-5.3l0.6-1.7h4l-3-7.2L140,182.8L140,182.8z"/>
				<path class="st0" d="M156,182.8v-16h6.8c3.1,0,4.6,1.3,4.6,3.8c0,2.1-1.5,3.6-4.5,4.6l5.5,7.6h-2.7l-5.1-7.2v-1.3
					c3.1-0.5,4.6-1.7,4.6-3.5c0-1.5-0.8-2.2-2.5-2.2h-4.6v14.3H156L156,182.8z"/>
			</g>
			<g>
				<g>
					<polygon class="st0" points="204.6,206.3 204.8,206.3 208.1,206.3 204.6,199.1 201.6,206.3 					"/>
					<path class="st0" d="M204.6,187.7l-16.4,5.9l2.5,21.7l13.9,7.7l14.1-7.8l2.7-21.7L204.6,187.7z M211.6,214.5l-2.2-5.2h-4.8
						h-4.3l-2.1,5.1l-3.8,0.1l10.2-22.7l10.7,22.8L211.6,214.5z"/>
				</g>
				<g class="st8">
					<polygon class="st9" points="204.8,206.3 208.1,206.3 204.6,199.1 204.6,199.2 204.6,206.3 204.6,206.3 					"/>
					<polygon class="st9" points="204.6,187.7 204.6,191.8 204.6,191.8 215.3,214.6 211.6,214.5 209.4,209.3 204.6,209.3 
						204.6,209.3 204.6,222.9 218.7,215.1 221.4,193.4 					"/>
				</g>
			</g>
		</g>
	</g>
	<g>
		<g>
			<path class="st0" d="M878.8,190.4h7.7l2.1,6.9h6.5l-8.3-26.9h-8l-8.2,26.9h6.3L878.8,190.4z M882.5,175L882.5,175
				c0.5,1.6,3.1,10.9,3.1,10.9h-6C879.6,185.9,882.1,176.6,882.5,175z"/>
			<rect x="897.5" y="177.8" class="st0" width="6.1" height="19.5"/>
			<path class="st0" d="M900.5,175.4c2,0,3.3-1.4,3.3-3c0-1.8-1.3-3.1-3.2-3.1s-3.2,1.3-3.2,3.1
				C897.3,174.1,898.5,175.4,900.5,175.4z"/>
			<path class="st0" d="M859.8,156v54.7h54.7V156H859.8z M911.1,207.3h-48v-48h48V207.3z"/>
		</g>
		<g>
			<path class="st0" d="M828.3,193.2c-1.8,0-4.2-0.8-5.3-1.5l-1.1,4.4c1.5,0.8,3.8,1.4,6.4,1.4c5.7,0,8.6-2.7,8.6-6.4
				c0-2.9-1.6-4.8-5.4-6.1c-2.4-0.9-3.2-1.3-3.2-2.3c0-1,0.8-1.6,2.3-1.6c1.7,0,3.4,0.7,4.3,1.1l1.1-4.3c-1.2-0.6-3.3-1.1-5.6-1.1
				c-4.9,0-8.1,2.8-8.1,6.5c0,2.4,1.5,4.6,5.7,6c2.3,0.8,2.9,1.3,2.9,2.3C830.9,192.6,830.2,193.2,828.3,193.2z"/>
			<path class="st0" d="M808,187.3c0.6,0.1,1.3,0.1,2.1,0.1c3.7,0,6.8-0.9,8.9-2.9c1.6-1.5,2.5-3.8,2.5-6.5c0-2.7-1.2-5-2.9-6.3
				c-1.8-1.5-4.5-2.2-8.4-2.2c-3.8,0-6.5,0.2-8.4,0.6v27h6.1L808,187.3L808,187.3z M808,174.4c0.4-0.1,1.3-0.2,2.5-0.2
				c3.1,0,4.8,1.5,4.9,4c0,2.8-2,4.5-5.3,4.5c-0.9,0-1.5,0-2.1-0.2V174.4L808,174.4z"/>
			<path class="st0" d="M792,156.2v54.7h54.7v-54.7H792z M843.4,207.5h-48v-48h48V207.5z"/>
		</g>
	</g>
	<g id="Page_1_3_">
		<g id="Layer_1_2_">
			<path id="Shape_35_" class="st0" d="M1024.9,139.5h-5.7l5.9,6.4v3H1013v-3.6h5.9l-5.9-6.4v-3h11.9V139.5L1024.9,139.5z
				 M1010.6,139.5h-5.7l5.9,6.4v3h-12.1v-3.6h5.9l-5.9-6.4v-3h11.9V139.5L1010.6,139.5z M996.5,139.6h-6.1v5.6h6.1v3.7h-10.4v-13
				h10.4V139.6L996.5,139.6z"/>
			<path class="st0" d="M971.5,154.8l6.2,69.5l27.8,7.7l27.9-7.7l6.2-69.5H971.5z M1026.8,170.7l-2.1,23.1h0l0,0.3l0,0.1l-1.5,16.2
				l-0.1,1.4l-17.5,4.8v0l0,0l-17.5-4.9l-1.2-13.4h3.9h4.6l0.6,6.8l9.5,2.6l0,0v0l9.5-2.6l1-11.1h-10.5v0h-9.4h0l-0.2-1.9l-0.4-4.3
				l-0.2-2.3h10.1v0h11.3l0.8-8.7h-12h0h-20.5h0l-0.2-1.9l-0.4-4.3l-0.2-2.3h21.3h0h21.4L1026.8,170.7z"/>
			<g>
				<polygon class="st5" points="1017.7,177 1005.6,177 1005.6,177 1005.6,185.7 1016.9,185.7 				"/>
				<polygon class="st5" points="1005.6,207.9 1005.6,207.9 1015.1,205.3 1016.1,194.2 1005.6,194.2 1005.6,207.9 1005.6,207.9 				
					"/>
				<polygon class="st5" points="1005.6,160.5 1005.6,168.4 1005.6,168.4 1027,168.4 1026.8,170.7 1024.7,193.9 1024.7,193.9 
					1024.7,194.2 1024.7,194.2 1023.2,210.5 1023.1,211.9 1005.7,216.7 1005.7,216.7 1005.6,216.7 1005.6,216.7 1005.6,226.2 
					1028.1,219.9 1033.5,160.5 				"/>
			</g>
		</g>
	</g>
</g>
</svg>
