<?xml version="1.0" encoding="utf-8"?>
<!-- Generator: Adobe Illustrator 20.0.0, SVG Export Plug-In . SVG Version: 6.00 Build 0)  -->
<svg class="email-svg" version="1.1" id="Capa_1" xmlns="http://www.w3.org/2000/svg" xmlns:xlink="http://www.w3.org/1999/xlink" x="0px" y="0px"
	 viewBox="0 0 49.7 49.7" style="enable-background:new 0 0 49.7 49.7;" xml:space="preserve">

<path class="st0" d="M24.8,0C11.1,0,0,11.1,0,24.8c0,13.7,11.1,24.8,24.8,24.8c13.7,0,24.8-11.1,24.8-24.8C49.7,11.1,38.5,0,24.8,0z
	 M12.1,14.7h25.4c0.2,0,0.4,0,0.6,0.1L24.8,26.3L11.5,14.8C11.7,14.8,11.9,14.7,12.1,14.7z M10.5,17.2l9,7.8l-9,7.6V17.2z
	 M37.5,34.9H12.1c-0.2,0-0.4,0-0.6-0.1l9.7-8.3l3.7,3.2l3.7-3.2l9.7,8.3C38,34.9,37.8,34.9,37.5,34.9z M39.2,32.6l-9-7.6l9-7.8V32.6
	z"/>
</svg>
