<?xml version="1.0" encoding="utf-8"?>
<!-- Generator: Adobe Illustrator 20.0.0, SVG Export Plug-In . SVG Version: 6.00 Build 0)  -->
<svg version="1.1" id="Layer_1" xmlns="http://www.w3.org/2000/svg" xmlns:xlink="http://www.w3.org/1999/xlink" x="0px" y="0px"
	 viewBox="0 0 50 100" style="enable-background:new 0 0 50 100;" xml:space="preserve">
<style type="text/css">
	.st0{opacity:0.75;fill:#FFFFFF;}
	.st1{fill:#FFFFFF;}
</style>
<path class="st0" d="M24.9,0C11.1,0,0,11.2,0,25s11.2,25,25,25s25-11.2,25-25C50.1,11.2,38.8,0,24.9,0z M12.1,14.8h25.6
	c0.2,0,0.4,0,0.6,0.1L24.9,26.5L11.5,14.9C11.7,14.9,11.9,14.8,12.1,14.8z M10.5,17.3l9.1,7.9l-9.1,7.7V17.3z M37.8,35.2H12.1
	c-0.2,0-0.4,0-0.6-0.1l9.8-8.4l3.7,3.2l3.7-3.2l9.8,8.4C38.3,35.2,38.1,35.2,37.8,35.2z M39.5,32.9l-9.1-7.7l9.1-7.9V32.9z"/>
<path class="st1" d="M24.9,50C11.1,50,0,61.2,0,75s11.2,25,25,25s25-11.2,25-25C50.1,61.2,38.8,50,24.9,50z M12.1,64.8h25.6
	c0.2,0,0.4,0,0.6,0.1L24.9,76.5L11.5,64.9C11.7,64.9,11.9,64.8,12.1,64.8z M10.5,67.3l9.1,7.9l-9.1,7.7V67.3z M37.8,85.2H12.1
	c-0.2,0-0.4,0-0.6-0.1l9.8-8.4l3.7,3.2l3.7-3.2l9.8,8.4C38.3,85.2,38.1,85.2,37.8,85.2z M39.5,82.9l-9.1-7.7l9.1-7.9V82.9z"/>
</svg>
