<?xml version="1.0" encoding="utf-8"?>
<!-- Generator: Adobe Illustrator 20.0.0, SVG Export Plug-In . SVG Version: 6.00 Build 0)  -->
<svg version="1.1" id="Layer_1" xmlns="http://www.w3.org/2000/svg" xmlns:xlink="http://www.w3.org/1999/xlink" x="0px" y="0px"
	 viewBox="0 0 50 100" style="enable-background:new 0 0 50 100;" xml:space="preserve">
<style type="text/css">
	.st0{opacity:0.75;}
	.st1{fill:#FFFFFF;}
</style>
<g class="st0">
	<path class="st1" d="M24.9,30c2.7,0,5-2.2,5-5c0-1.1-0.4-2.1-0.9-2.9c-0.9-1.3-2.4-2.1-4-2.1c-1.7,0-3.1,0.8-4,2.1
		c-0.6,0.8-0.9,1.8-0.9,2.9C20,27.8,22.2,30,24.9,30z"/>
	<path class="st1" d="M32.7,25c0,4.3-3.5,7.8-7.8,7.8s-7.8-3.5-7.8-7.8c0-1,0.2-2,0.6-2.9h-4.2v11.7c0,1.5,1.2,2.7,2.7,2.7h17.4
		c1.5,0,2.7-1.2,2.7-2.7V22.1h-4.2C32.5,23,32.7,24,32.7,25z"/>
	<rect x="31.5" y="14.1" class="st1" width="4.8" height="4.7"/>
	<path class="st1" d="M24.9,0C11.1,0,0,11.2,0,25c0,13.8,11.2,25,25,25s25-11.2,25-25C50.1,11.2,38.8,0,24.9,0z M39.3,22.1v11.7
		c0,3.1-2.5,5.5-5.5,5.5h-0.1H16.4h-0.1c-3,0-5.5-2.4-5.5-5.5V22.1v-5.8c0-0.2,0-0.4,0-0.6c0.1-1.1,0.5-2.1,1.2-2.9c0,0,0,0,0-0.1
		c0.1-0.1,0.2-0.2,0.2-0.3c0-0.1,0.1-0.1,0.1-0.2c0,0,0.1-0.1,0.2-0.1c0.1-0.1,0.2-0.2,0.3-0.2c0,0,0,0,0.1,0
		c0.8-0.6,1.8-1.1,2.9-1.2c0.2,0,0.4,0,0.6,0h17.4c0.2,0,0.4,0,0.6,0c1.1,0.1,2.1,0.5,2.9,1.2c0,0,0,0,0.1,0
		c0.1,0.1,0.2,0.2,0.3,0.2c0.1,0,0.1,0.1,0.2,0.1c0,0,0.1,0.1,0.1,0.2c0.1,0.1,0.2,0.2,0.2,0.3c0,0,0,0,0,0.1
		c0.6,0.8,1.1,1.8,1.2,2.9c0,0.2,0,0.4,0,0.6V22.1z"/>
</g>
<g>
	<path class="st1" d="M24.9,80c2.7,0,5-2.2,5-5c0-1.1-0.4-2.1-0.9-2.9c-0.9-1.3-2.4-2.1-4-2.1c-1.7,0-3.1,0.8-4,2.1
		c-0.6,0.8-0.9,1.8-0.9,2.9C20,77.8,22.2,80,24.9,80z"/>
	<path class="st1" d="M32.7,75c0,4.3-3.5,7.8-7.8,7.8s-7.8-3.5-7.8-7.8c0-1,0.2-2,0.6-2.9h-4.2v11.7c0,1.5,1.2,2.7,2.7,2.7h17.4
		c1.5,0,2.7-1.2,2.7-2.7V72.1h-4.2C32.5,73,32.7,74,32.7,75z"/>
	<rect x="31.5" y="64.1" class="st1" width="4.8" height="4.7"/>
	<path class="st1" d="M24.9,50C11.1,50,0,61.2,0,75c0,13.8,11.2,25,25,25s25-11.2,25-25C50.1,61.2,38.8,50,24.9,50z M39.3,72.1v11.7
		c0,3.1-2.5,5.5-5.5,5.5h-0.1H16.4h-0.1c-3,0-5.5-2.4-5.5-5.5V72.1v-5.8c0-0.2,0-0.4,0-0.6c0.1-1.1,0.5-2.1,1.2-2.9c0,0,0,0,0-0.1
		c0.1-0.1,0.2-0.2,0.2-0.3c0-0.1,0.1-0.1,0.1-0.2c0,0,0.1-0.1,0.2-0.1c0.1-0.1,0.2-0.2,0.3-0.2c0,0,0,0,0.1,0
		c0.8-0.6,1.8-1.1,2.9-1.2c0.2,0,0.4,0,0.6,0h17.4c0.2,0,0.4,0,0.6,0c1.1,0.1,2.1,0.5,2.9,1.2c0,0,0,0,0.1,0
		c0.1,0.1,0.2,0.2,0.3,0.2c0.1,0,0.1,0.1,0.2,0.1c0,0,0.1,0.1,0.1,0.2c0.1,0.1,0.2,0.2,0.2,0.3c0,0,0,0,0,0.1
		c0.6,0.8,1.1,1.8,1.2,2.9c0,0.2,0,0.4,0,0.6V72.1z"/>
</g>
</svg>
