<?xml version="1.0" encoding="utf-8"?>
<!-- Generator: Adobe Illustrator 20.0.0, SVG Export Plug-In . SVG Version: 6.00 Build 0)  -->
<svg version="1.1" id="Layer_1" xmlns="http://www.w3.org/2000/svg" xmlns:xlink="http://www.w3.org/1999/xlink" x="0px" y="0px"
	 viewBox="0 0 50 100" style="enable-background:new 0 0 50 100;" xml:space="preserve">
<style type="text/css">
	.st0{opacity:0.75;}
	.st1{fill:#FFFFFF;}
</style>
<g class="st0">
	<g>
		<g>
			<path class="st1" d="M29.6,21.5c-2.1,0-3.1,1.2-3.6,2v-1.7h-4c0.1,1.1,0,12.1,0,12.1h4v-6.8c0-0.4,0-0.7,0.1-1
				c0.3-0.7,0.9-1.5,2.1-1.5c1.4,0,2,1.1,2,2.7v6.5h4l0,0v-7C34.2,23.2,32.2,21.5,29.6,21.5z M25.9,23.5L25.9,23.5L25.9,23.5
				L25.9,23.5z"/>
			<rect x="15.6" y="21.8" class="st1" width="4" height="12.1"/>
			<path class="st1" d="M24.9,0C11.1,0,0,11.2,0,25s11.2,25,25,25s25-11.2,25-25C50.1,11.2,38.8,0,24.9,0z M38.3,36.4
				c0,1.1-0.9,1.9-2,1.9H13.6c-1.1,0-2-0.9-2-1.9V13.3c0-1.1,0.9-1.9,2-1.9h22.7c1.1,0,2,0.9,2,1.9V36.4z"/>
			<path class="st1" d="M17.7,15.9c-1.4,0-2.3,0.9-2.3,2.1c0,1.2,0.9,2.1,2.2,2.1l0,0c1.4,0,2.3-0.9,2.3-2.1
				C19.9,16.8,19,15.9,17.7,15.9z"/>
		</g>
	</g>
</g>
<g>
	<g>
		<g>
			<path class="st1" d="M29.6,71.5c-2.1,0-3.1,1.2-3.6,2v-1.7h-4c0.1,1.1,0,12.1,0,12.1h4v-6.8c0-0.4,0-0.7,0.1-1
				c0.3-0.7,0.9-1.5,2.1-1.5c1.4,0,2,1.1,2,2.7v6.5h4l0,0v-7C34.2,73.2,32.2,71.5,29.6,71.5z M25.9,73.5L25.9,73.5L25.9,73.5
				L25.9,73.5z"/>
			<rect x="15.6" y="71.8" class="st1" width="4" height="12.1"/>
			<path class="st1" d="M24.9,50C11.1,50,0,61.2,0,75s11.2,25,25,25s25-11.2,25-25C50.1,61.2,38.8,50,24.9,50z M38.3,86.4
				c0,1.1-0.9,1.9-2,1.9H13.6c-1.1,0-2-0.9-2-1.9V63.3c0-1.1,0.9-1.9,2-1.9h22.7c1.1,0,2,0.9,2,1.9V86.4z"/>
			<path class="st1" d="M17.7,65.9c-1.4,0-2.3,0.9-2.3,2.1s0.9,2.1,2.2,2.1l0,0c1.4,0,2.3-0.9,2.3-2.1S19,65.9,17.7,65.9z"/>
		</g>
	</g>
</g>
</svg>
