<?xml version="1.0" encoding="utf-8"?>
<!-- Generator: Adobe Illustrator 20.0.0, SVG Export Plug-In . SVG Version: 6.00 Build 0)  -->
<svg version="1.1" id="Layer_1" xmlns="http://www.w3.org/2000/svg" xmlns:xlink="http://www.w3.org/1999/xlink" x="0px" y="0px"
	 viewBox="0 0 550 260" style="enable-background:new 0 0 550 260;" xml:space="preserve">
<style type="text/css">
	.st0{fill:#FFFFFF;}
	.st1{opacity:0.68;}
	.st2{fill:#E0E0DF;}
	.st3{fill:#F2F2F2;}
</style>
<g id="Page_1_6_">
	<g id="Group_3_">
		<path class="st0" d="M424.3,34.7l6.2,69.5l27.8,7.7l27.9-7.7l6.2-69.5C492.4,34.7,424.3,34.7,424.3,34.7z M479.5,51.2l-0.4,4.3
			l-0.2,1.9l0,0h-20.5l0,0h-12l0.8,8.7h11.3l0,0H476h2.3l-0.2,2.3l-2,22.5l-0.1,1.4l-17.5,4.8l0,0l0,0L441,92.2l-1.2-13.4h3.9h4.6
			l0.6,6.8l9.5,2.6l0,0l0,0l9.5-2.6l1-11.1h-10.5l0,0h-19.1L437.2,51l-0.2-2.3h21.4l0,0h21.3L479.5,51.2z"/>
		<path id="Shape_10_" class="st0" d="M430.6,15.8h4.3v4.3h4v-4.3h4.3v13h-4.3v-4.4h-4v4.3h-4.3V15.8L430.6,15.8z"/>
		<path id="Shape_9_" class="st0" d="M448.9,20.1h-3.8v-4.3h12v4.3h-3.8v8.7H449L448.9,20.1L448.9,20.1L448.9,20.1z"/>
		<path id="Shape_8_" class="st0" d="M459,15.8h4.5l2.8,4.6l2.8-4.6h4.5v13h-4.3v-6.4l-3,4.6h-0.1l-3-4.6v6.4H459L459,15.8L459,15.8
			z"/>
		<path id="Shape_7_" class="st0" d="M475.8,15.8h4.3v8.7h6.1v4.3h-10.4V15.8L475.8,15.8z"/>
		<g class="st1">
			<polygon class="st2" points="468.8,74.7 458.3,74.7 458.3,88.3 467.8,85.8 			"/>
			<polygon class="st2" points="458.3,40.4 458.3,48.9 479.7,48.9 479.5,51.2 479.1,55.5 478.9,57.4 478.9,57.4 458.3,57.4 
				458.3,66.2 475.8,66.2 478.1,66.2 477.9,68.5 475.9,90.9 475.8,92.4 458.3,97.2 458.3,97.2 458.3,106.1 480.9,99.8 486.2,40.4 
							"/>
		</g>
	</g>
</g>
<g id="Page_1_5_">
	<g id="Layer_1_3_">
		<path id="Shape_6_" class="st0" d="M477.7,154.4H472l5.9,6.4v3h-12.1v-3.6h5.9l-5.9-6.4v-3h11.9L477.7,154.4L477.7,154.4z
			 M463.4,154.4h-5.7l5.9,6.4v3h-12.1v-3.6h5.9l-5.9-6.4v-3h11.9L463.4,154.4L463.4,154.4z M449.2,154.5h-6.1v5.6h6.1v3.7h-10.4v-13
			h10.4V154.5L449.2,154.5z"/>
		<path class="st0" d="M424.3,169.8l6.2,69.5l27.8,7.7l27.9-7.7l6.2-69.5H424.3z M479.5,185.7l-2.1,23.1l0,0v0.3v0.1l-1.5,16.2
			l-0.1,1.4l-17.5,4.8l0,0l0,0l-17.5-4.9l-1.2-13.4h3.9h4.6l0.6,6.8l9.5,2.6l0,0l0,0l9.5-2.6l1-11.1h-10.5l0,0h-9.4l0,0l-0.2-1.9
			l-0.4-4.3l-0.2-2.3h10.1l0,0h11.3l0.8-8.7h-12l0,0h-20.5l0,0l-0.2-1.9l-0.4-4.3l-0.2-2.3h21.3l0,0h21.4L479.5,185.7z"/>
		<g>
			<polygon class="st2" points="470.4,191.9 458.4,191.9 458.3,191.9 458.3,200.6 469.6,200.6 			"/>
			<polygon class="st2" points="458.4,222.8 458.4,222.8 467.9,220.2 468.9,209.2 458.3,209.2 458.3,222.8 			"/>
			<polygon class="st2" points="458.3,175.4 458.3,183.4 458.4,183.4 479.7,183.4 479.5,185.7 477.5,208.8 477.5,208.8 477.4,209.1 
				477.4,209.2 476,225.4 475.9,226.8 458.4,231.7 458.4,231.7 458.4,231.7 458.3,231.7 458.3,241.1 480.9,234.9 486.2,175.4 			"/>
		</g>
	</g>
</g>
<g>
	<path class="st0" d="M41.8,66.7c0-0.4-0.2-0.9-0.6-1.1L31,59.7c-0.2-0.1-0.4-0.2-0.6-0.2h-0.1c-0.2,0-0.4,0.1-0.6,0.2l-10.2,5.9
		c-0.4,0.2-0.6,0.6-0.6,1.1v15.8c0,0.2,0.1,0.4,0.3,0.5s0.4,0.1,0.6,0l6.1-3.5c0.4-0.2,0.6-0.6,0.6-1.1V71c0-0.4,0.2-0.8,0.6-1.1
		l2.6-1.5c0.2-0.1,0.4-0.2,0.6-0.2c0.2,0,0.4,0.1,0.6,0.2l2.6,1.5c0.4,0.2,0.6,0.6,0.6,1.1v7.4c0,0.4,0.2,0.8,0.6,1.1l6.1,3.5
		c0.2,0.1,0.4,0.1,0.6,0c0.2-0.1,0.3-0.3,0.3-0.5L41.8,66.7z"/>
	<path class="st0" d="M96.4,44.9c-0.2-0.1-0.4-0.1-0.6,0c-0.2,0.1-0.3,0.3-0.3,0.5v15.7c0,0.2-0.1,0.3-0.2,0.4
		c-0.1,0.1-0.3,0.1-0.4,0L92.3,60c-0.4-0.2-0.9-0.2-1.2,0l-10.2,5.9c-0.4,0.2-0.6,0.6-0.6,1.1v11.8c0,0.4,0.2,0.8,0.6,1.1l10.2,5.9
		c0.4,0.2,0.9,0.2,1.2,0l10.2-5.9c0.4-0.2,0.6-0.6,0.6-1.1V49.4c0-0.4-0.2-0.9-0.6-1.1L96.4,44.9z M95.4,74.9c0,0.1-0.1,0.2-0.2,0.3
		l-3.5,2c-0.1,0.1-0.2,0.1-0.3,0l-3.5-2c-0.1-0.1-0.2-0.2-0.2-0.3v-4.1c0-0.1,0.1-0.2,0.2-0.3l3.5-2c0.1-0.1,0.2-0.1,0.3,0l3.5,2
		c0.1,0.1,0.2,0.2,0.2,0.3V74.9z"/>
	<path class="st0" d="M133,70.8c0.4-0.2,0.6-0.6,0.6-1.1v-2.9c0-0.4-0.2-0.8-0.6-1.1l-10.2-5.9c-0.4-0.2-0.9-0.2-1.2,0l-10.2,5.9
		c-0.4,0.2-0.6,0.6-0.6,1.1v11.8c0,0.4,0.2,0.9,0.6,1.1l10.2,5.8c0.4,0.2,0.8,0.2,1.2,0l6.1-3.4c0.2-0.1,0.3-0.3,0.3-0.5
		s-0.1-0.4-0.3-0.5l-10.3-5.9c-0.2-0.1-0.3-0.3-0.3-0.5V71c0-0.2,0.1-0.4,0.3-0.5l3.2-1.8c0.2-0.1,0.4-0.1,0.6,0l3.2,1.8
		c0.2,0.1,0.3,0.3,0.3,0.5v2.9c0,0.2,0.1,0.4,0.3,0.5s0.4,0.1,0.6,0L133,70.8z"/>
	<path class="st0" d="M60.4,59.8c0.4-0.2,0.9-0.2,1.2,0l10.2,5.9c0.4,0.2,0.6,0.6,0.6,1.1v11.8c0,0.4-0.2,0.8-0.6,1.1l-10.2,5.9
		c-0.4,0.2-0.9,0.2-1.2,0l-10.2-5.9c-0.4-0.2-0.6-0.6-0.6-1.1V66.8c0-0.4,0.2-0.8,0.6-1.1L60.4,59.8z"/>
	<path class="st0" d="M152.9,85.7c-0.4,0-0.7-0.1-1-0.3l-3.2-1.9c-0.5-0.3-0.2-0.4-0.1-0.4c0.6-0.2,0.8-0.3,1.5-0.7
		c0.1,0,0.2,0,0.2,0l2.5,1.5c0.1,0,0.2,0,0.3,0l9.6-5.6c0.1-0.1,0.1-0.2,0.1-0.3V67c0-0.1-0.1-0.2-0.1-0.3l-9.6-5.6
		c-0.1-0.1-0.2-0.1-0.3,0l-9.6,5.6c-0.1,0.1-0.2,0.2-0.2,0.3v11.1c0,0.1,0.1,0.2,0.2,0.3l2.6,1.5c1.4,0.7,2.3-0.1,2.3-1v-11
		c0-0.2,0.1-0.3,0.3-0.3h1.2c0.2,0,0.3,0.1,0.3,0.3v11c0,1.9-1,3-2.9,3c-0.6,0-1,0-2.2-0.6l-2.5-1.5c-0.6-0.4-1-1-1-1.8V67
		c0-0.7,0.4-1.4,1-1.8l9.6-5.6c0.6-0.3,1.4-0.3,2,0l9.6,5.6c0.6,0.4,1,1,1,1.8v11.1c0,0.7-0.4,1.4-1,1.8l-9.6,5.6
		C153.6,85.7,153.2,85.7,152.9,85.7z"/>
	<path class="st0" d="M155.8,78.1c-4.2,0-5.1-1.9-5.1-3.6c0-0.2,0.1-0.3,0.3-0.3h1.2c0.1,0,0.3,0.1,0.3,0.2c0.2,1.3,0.7,1.9,3.3,1.9
		c2,0,2.9-0.5,2.9-1.5c0-0.6-0.2-1.1-3.4-1.4c-2.6-0.3-4.3-0.8-4.3-3c0-1.9,1.6-3.1,4.4-3.1c3.1,0,4.6,1.1,4.8,3.4
		c0,0.1,0,0.2-0.1,0.2C160,71,160,71,159.9,71h-1.3c-0.1,0-0.2-0.1-0.3-0.2c-0.3-1.3-1-1.8-3-1.8c-2.2,0-2.5,0.8-2.5,1.4
		c0,0.7,0.3,0.9,3.3,1.3s4.4,0.9,4.4,3C160.6,76.9,158.9,78.1,155.8,78.1z"/>
	<path class="st0" d="M122.1,70.2c0.1,0,0.2,0,0.2,0l2,1.1c0.1,0,0.1,0.1,0.1,0.2v2.3c0,0.1,0,0.2-0.1,0.2l-2,1.1
		c-0.1,0-0.2,0-0.2,0l-2-1.1c-0.1,0-0.1-0.1-0.1-0.2v-2.3c0-0.1,0-0.2,0.1-0.2L122.1,70.2z"/>
</g>
<g>
	<path class="st0" d="M49,197.3c0-11.8,4.2-21.8,12.5-30.2c8.3-8.3,18.4-12.5,30.2-12.5s21.8,4.2,30.2,12.5s12.5,18.4,12.5,30.2
		s-4.2,21.8-12.5,30.2S103.5,240,91.7,240s-21.8-4.2-30.2-12.5C53.1,219.1,49,209,49,197.3L49,197.3z M53.6,197.3
		c0,10.4,3.7,19.4,11.2,26.8c7.4,7.4,16.4,11.2,26.8,11.2c10.4,0,19.4-3.7,26.8-11.2c7.4-7.4,11.2-16.4,11.2-26.8
		c0-10.4-3.7-19.4-11.2-26.8c-7.4-7.4-16.4-11.2-26.8-11.2c-10.4,0-19.4,3.7-26.8,11.2C57.4,177.9,53.6,186.8,53.6,197.3L53.6,197.3
		z M65.6,206.4c-0.2-0.2-0.2-0.4,0-0.7c0.4-0.4,1-0.6,1.7-0.5s1.1,0.2,1.2,0.3c0.8,0.3,1.6,1.1,2.6,2.3c0.9,1.2,1.7,2,2.3,2.4
		c2.7,2.2,5.4,2.4,8.2,0.5c0.2-0.8,0.6-1.4,1.1-2s1-0.9,1.4-1.2c0.4-0.2,1.2-0.6,2.3-1c-3.7-0.3-6.6-1-8.9-1.9
		c-2.3-0.9-4.1-2.1-5.4-3.6c-1.8-2-2.9-4.6-3.3-7.8c-0.4-3.2-0.1-6.2,0.8-8.8c0.7-1.7,1.6-3.2,2.8-4.5c-0.9-2.8-0.7-5.9,0.5-9.5
		c3.6,0.2,6.8,1.4,9.7,3.7c5.6-1.4,11.3-1.5,17.3-0.2c0.8-0.6,2-1.3,3.6-2.1s3.6-1.3,6.1-1.4c0.4,1.2,0.8,2.7,0.9,4.3
		s0.1,3.2-0.2,4.7c2.6,2.7,3.9,6.2,4,10.7c0,3.6-0.6,6.5-1.8,8.8s-3.4,4.3-6.5,5.8c-2.1,1-4.9,1.6-8.3,1.8c1.6,0.8,2.7,1.6,3.4,2.4
		s1.2,2.1,1.4,3.9v5.3c0,0,0.1,1.7,0.2,5.1c0.3,0.6,0.7,1,1.2,1.4c0.4,0.4,0.8,0.7,1.2,0.8c0.3,0.2,0.4,0.4,0.3,0.8
		c-0.1,0.3-0.6,0.5-1.3,0.5c-1.9,0-3.4-0.7-4.5-2c-0.3-0.6-0.5-1.2-0.5-2v-8c0-0.9-0.2-1.5-0.7-1.9c-0.4-0.4-0.9-0.6-1.3-0.8v10.5
		c0,1.9,0.2,3.1,0.7,3.7s0.7,1.1,0.8,1.7c0.1,0.1,0,0.2-0.2,0.3s-0.8,0-1.4-0.3c-1.4-0.3-2.4-1.1-3-2.3s-0.8-2.4-0.8-3.8v-10.3H91
		v10.3c0,1.3-0.3,2.6-0.8,3.8c-0.8,1.6-2.2,2.4-4.3,2.5c-0.3-0.1-0.5-0.2-0.5-0.3c0.1-0.1,0.4-0.7,1-1.7c0.1-0.2,0.3-0.7,0.4-1.3
		c0.2-0.7,0.3-1.4,0.3-2.3V212c-0.4,0.1-0.9,0.4-1.3,0.8c-0.4,0.4-0.6,1-0.6,1.9v8c0,0.8-0.2,1.4-0.5,2c-1,1.3-2.5,2-4.5,2
		c-0.8,0-1.2-0.2-1.3-0.5c-0.1-0.2-0.1-0.4,0.1-0.6c0.2-0.2,0.4-0.4,0.8-0.6c0.3-0.2,0.6-0.4,0.7-0.5c0.4-0.3,0.8-0.8,1-1.3
		c0.3-0.4,0.4-1.6,0.2-3.5s-0.2-3.1-0.1-3.7c-2.9,1-5.8,0.5-8.8-1.5c-0.9-0.9-1.8-2.2-2.7-3.8C69,209.5,67.6,208.1,65.6,206.4
		L65.6,206.4z"/>
</g>
<g>
	<g>
		<path class="st0" d="M300.7,205.4h7.7l2.1,6.9h6.5l-8.3-26.9h-8l-8.2,26.9h6.3L300.7,205.4z M304.4,189.9L304.4,189.9
			c0.5,1.6,3.1,10.9,3.1,10.9h-6C301.6,200.8,304,191.5,304.4,189.9z"/>
		<rect x="319.4" y="192.8" class="st0" width="6.1" height="19.5"/>
		<path class="st0" d="M322.4,190.4c2,0,3.3-1.4,3.3-3c0-1.8-1.3-3.1-3.2-3.1s-3.2,1.3-3.2,3.1C319.2,189,320.5,190.4,322.4,190.4z"
			/>
		<path class="st0" d="M281.7,170.9v54.7h54.7v-54.7H281.7z M333.1,222.2h-48v-48h48V222.2z"/>
	</g>
	<g>
		<path class="st0" d="M250.3,208.2c-1.8,0-4.2-0.8-5.3-1.5l-1.1,4.4c1.5,0.8,3.8,1.4,6.4,1.4c5.7,0,8.6-2.7,8.6-6.4
			c0-2.9-1.6-4.8-5.4-6.1c-2.4-0.9-3.2-1.3-3.2-2.3s0.8-1.6,2.3-1.6c1.7,0,3.4,0.7,4.3,1.1l1.1-4.3c-1.2-0.6-3.3-1.1-5.6-1.1
			c-4.9,0-8.1,2.8-8.1,6.5c0,2.4,1.5,4.6,5.7,6c2.3,0.8,2.9,1.3,2.9,2.3C252.9,207.5,252.1,208.2,250.3,208.2z"/>
		<path class="st0" d="M230,202.3c0.6,0.1,1.3,0.1,2.1,0.1c3.7,0,6.8-0.9,8.9-2.9c1.6-1.5,2.5-3.8,2.5-6.5s-1.2-5-2.9-6.3
			c-1.8-1.5-4.5-2.2-8.4-2.2c-3.8,0-6.5,0.2-8.4,0.6v27h6.1L230,202.3L230,202.3z M230,189.4c0.4-0.1,1.3-0.2,2.5-0.2
			c3.1,0,4.8,1.5,4.9,4c0,2.8-2,4.5-5.3,4.5c-0.9,0-1.5,0-2.1-0.2L230,189.4L230,189.4z"/>
		<path class="st0" d="M214,171.1v54.7h54.7v-54.7H214z M265.4,222.4h-48v-48h48V222.4z"/>
	</g>
</g>
<g>
	<g>
		<path class="st0" d="M275.2,35h-35l6.6,71.2l28.4,8.1l28.4-8.1l6.6-71.2H275.2z M296.4,58.3h-0.9l0,0h-8.9h-0.3h-11h-12.1l0.6,8.9
			h7.8h3.7h20.4l-2.5,26.7L275.3,99l-17.9-5.1l-4.6-44.4h5.3h17.1h18.3h2.9V58.3z"/>
		<polygon class="st0" points="264.9,80.4 265.4,87.2 275.2,90 284.8,87.3 285.8,76 275.2,76 264.4,76 264.8,80.4 		"/>
	</g>
	<g>
		<polygon class="st0" points="268.4,24.5 262.2,24.5 262.2,29 268.4,29 271.7,29 272.8,29 272.8,15.7 268.4,15.7 		"/>
		<path class="st0" d="M288.2,15.7h-10.9c0,0,0,2.3,0,4.7c1.5,1.5,2.2,2.1,4.3,4.2c-1.2,0-4.3,0-4.3,0v4.2h10.9v-4.2l-4.3-4.3h4.3
			V15.7z"/>
	</g>
	<g>
		<polygon class="st3" points="285.8,76 275.2,76 275.2,90 284.8,87.3 		"/>
		<polygon class="st3" points="275.2,40.8 275.2,49.5 293.5,49.5 296.4,49.5 296.4,58.3 295.5,58.3 295.5,58.3 286.5,58.3 
			286.2,58.4 275.2,58.4 275.2,67.3 295.6,67.3 293.1,94 275.2,99.1 275.2,108.2 298.2,101.6 303.8,40.8 		"/>
	</g>
</g>
</svg>
