<?xml version="1.0" encoding="utf-8"?>
<!-- Generator: Adobe Illustrator 20.0.0, SVG Export Plug-In . SVG Version: 6.00 Build 0)  -->
<svg version="1.1" id="Layer_1" xmlns="http://www.w3.org/2000/svg" xmlns:xlink="http://www.w3.org/1999/xlink" x="0px" y="0px"
	 viewBox="0 0 1100 260" style="enable-background:new 0 0 1100 260;" xml:space="preserve">
<style type="text/css">
	.st0{fill:#FFFFFF;}
	.st1{opacity:0.68;}
	.st2{fill:#DFDFDF;}
	.st3{opacity:0.35;}
	.st4{fill:#A4A3A3;}
	.st5{fill:#F1F1F1;}
</style>
<g>
	<path class="st0" d="M259.7,66.8c0-4,0-7.9,0-11.9c0-4.6,0-9.2,0-13.8c0-0.6,0.2-0.8,0.8-0.8c0.7,0,0.8,0.2,0.8,0.8
		c0,1.1,0,2.1,0,3.2c0.2,0.1,0.2-0.1,0.3-0.2c1.3-2.6,3.4-4,6.3-4.2c3.4-0.2,6.1,1,7.8,4c2.1,3.9,2.1,7.9,0.4,11.9
		c-1.1,2.5-3.2,3.9-5.9,4.3c-2.7,0.3-5.4,0.1-7.4-2.1c-0.5-0.5-0.8-1.1-1.3-1.9c0,3.7,0,7.2,0,10.7
		C260.7,66.8,260.2,66.8,259.7,66.8z M261.2,50.3c-0.1,0.7,0.1,1.6,0.2,2.5c0.6,3.6,2.6,5.6,5.9,6s6.2-1.1,7.4-4.2
		c1.3-3.2,1.2-6.4-0.3-9.4c-1.3-2.8-3.7-4-6.8-3.8c-2.7,0.2-4.9,1.9-5.8,4.6C261.4,47.3,261.2,48.7,261.2,50.3z"/>
	<path class="st0" d="M222.3,48.5c0.4-0.7,0.4-1.4,0.6-2.1c1.7-5.9,8.5-8.4,13.2-4.8c2.8,2.1,3.5,5.1,3.5,8.4c0,0.6-0.4,0.5-0.8,0.5
		c-4.7,0-9.3,0-14,0c-0.8,0-1.1,0.1-1,1c0.2,1.7,0.6,3.4,1.7,4.8c1.7,2.2,4,2.9,6.7,2.6c2.8-0.4,4.5-2.1,5.4-4.6
		c0.1-0.3,0-0.9,0.6-0.9c1.1-0.2,1.2,0,0.9,1c-1.2,4.2-4.1,6.2-9,6c-3.7-0.1-6.6-2.8-7.5-6.7c-0.1-0.5-0.1-1-0.4-1.4
		c0-0.3,0-0.6,0-0.9c0.3-0.6,0.3-1.1,0-1.7C222.3,49.1,222.3,48.8,222.3,48.5z M231,49c2.1,0,4.3,0,6.4,0c0.3,0,0.7,0.2,0.6-0.4
		c-0.2-2.8-1.5-6-4.9-7c-4.4-1.3-8.7,1.5-9.2,7c0,0.6,0.4,0.4,0.6,0.4C226.7,49,228.8,49,231,49z"/>
	<path class="st0" d="M342.9,56.2c-1.1,2.5-3.2,3.6-5.8,3.9c-2.9,0.3-5.7,0.1-8-2.2c-1.1-1.1-1.6-2.5-1.7-4c0-0.3-0.1-0.7,0.3-0.6
		c0.4,0.1,1-0.4,1.2,0.4c1.3,4.8,6.6,6.8,10.8,4.1c2.4-1.6,2.3-4.7-0.2-6.1c-1.5-0.8-3.2-1.1-4.9-1.4c-1.7-0.3-3.3-0.8-4.8-1.7
		c-2.2-1.4-2.3-5.6-0.1-7.2c0.7-0.5,1.3-0.9,2.1-1.1c2.2-0.6,4.4-0.6,6.5,0c2.4,0.7,4.1,3,4,5.3c0,0.4-0.2,0.6-0.5,0.5
		s-0.9,0.3-0.9-0.4c-0.1-3.1-2.4-4.2-4.7-4.4c-1.5-0.1-2.9-0.1-4.3,0.5s-2.3,1.5-2.3,3.2c0,1.6,1,2.5,2.3,3c1.9,0.8,4,1,5.9,1.5
		c0.2,0,0.4,0.1,0.5,0.1c2.2,0.5,3.9,1.6,4.5,3.9C342.9,54.5,342.9,55.3,342.9,56.2z"/>
	<path class="st0" d="M222.3,49.4c0.3,0.6,0.3,1.1,0,1.7C222.3,50.5,222.3,50,222.3,49.4z"/>
	<path class="st0" d="M298.8,50.4c-2.4,0-4.7,0-7.1,0c-0.6,0-0.8,0.1-0.7,0.8c0.1,1,0.2,1.9,0.5,2.9c1,3.1,3.4,4.8,6.7,4.8
		c3.3,0,5.5-1.6,6.6-4.8c0.1-0.3,0-0.8,0.7-0.8c1,0,1.1,0,0.8,1c-1,3.7-3.7,5.9-7.4,6c-4.5,0.1-7.5-1.7-8.7-5.5
		c-1-3.1-1-6.2,0.2-9.2c1.5-3.9,4.6-5.8,8.9-5.5c3.5,0.2,6.3,2.9,7.1,6.7c0.2,1,0.3,1.9,0.3,2.9c0,0.7-0.2,0.9-0.8,0.8
		C303.5,50.3,301.2,50.4,298.8,50.4z M298.1,49c2.1,0,4.3,0,6.4,0c0.2,0,0.7,0.2,0.6-0.4c-0.2-2.6-1.3-5.7-4.5-6.9
		c-4.5-1.7-9.7,2.1-9.6,6.9c0,0.6,0.3,0.4,0.6,0.4C293.8,49,295.9,49,298.1,49z"/>
	<path class="st0" d="M317.9,60.2c-2.9,0-5.1-0.5-6.8-2.1c-1.1-1.1-1.7-2.5-1.8-4c0-0.3-0.2-0.7,0.4-0.6c0.4,0.1,1-0.4,1.1,0.4
		c0.4,3.3,3.4,5.4,7.4,5c1.2-0.1,2.3-0.3,3.3-1c2.5-1.5,2.4-4.8-0.2-6.1c-1.5-0.8-3.1-1.1-4.8-1.4c-1.7-0.3-3.4-0.8-4.9-1.8
		c-2.1-1.4-2.3-5.6-0.1-7.2c1-0.7,2-1.1,3.2-1.3c1.8-0.3,3.6-0.3,5.4,0.2c2.4,0.7,4.1,2.9,4,5.2c0,0.3,0,0.7-0.5,0.6
		c-0.4-0.1-0.9,0.3-1-0.4c-0.6-3-1.8-4.1-4.8-4.4c-1.5-0.2-3,0-4.4,0.7c-1.2,0.6-2,1.6-2,3c0,1.5,0.9,2.4,2.1,2.9
		c2,0.9,4.1,1,6.2,1.6c0.6,0.2,1.2,0.3,1.8,0.6c1.9,0.7,3,2.1,3.2,4.1c0.2,2.3-0.8,3.9-2.8,5C320.5,60,318.9,60.2,317.9,60.2z"/>
	<path class="st0" d="M256.7,40.4c-2.1,2.8-4.2,5.6-6.3,8.3c-0.5,0.6-0.5,1,0,1.7c2.4,3.1,4.7,6.2,7,9.3c-1.3,0.3-2.1,0.1-2.9-1.1
		c-1.8-2.7-3.7-5.2-5.7-7.9c-1.1,1.5-2.3,3-3.4,4.5c-0.8,1.1-1.7,2.1-2.4,3.3c-0.7,1-1.4,1.6-2.7,1.2c0-0.3,0.3-0.5,0.4-0.7
		c2.2-2.9,4.4-5.9,6.6-8.8c0.4-0.5,0.4-0.8,0-1.3c-2.2-2.8-4.3-5.6-6.5-8.5c1.4-0.4,1.9-0.3,2.8,0.9c1.7,2.3,3.5,4.6,5.3,7
		c1.2-1.6,2.3-3.1,3.4-4.5c0.6-0.8,1.3-1.5,1.7-2.4C254.6,40.4,255.4,40.1,256.7,40.4z"/>
	<path class="st0" d="M281.8,44.5c1.6-2.9,4-4.1,6.9-4.2c0.5,0,0.7,0.1,0.6,0.6c-0.1,0.4,0.2,0.9-0.6,0.9c-3.7-0.2-7,3-7,7.2
		c0,3.3,0,6.7,0,10c0,0.7-0.2,0.8-0.8,0.8c-0.7,0-0.7-0.3-0.7-0.8c0-6,0-11.9,0-17.9c0-0.6,0-0.8,0.7-0.8s0.8,0.2,0.8,0.9
		C281.8,42.2,281.8,43.3,281.8,44.5z"/>
</g>
<g>
	<path class="st0" d="M221.2,116.7c-0.6-0.8-1.1-2.1-1.1-2.1l0,0c0-0.1,0-0.1,0-0.1c-0.1,0.8-0.1,1.1-0.8,1.8
		c-1.1,0.9-6.9,5.7-7.4,15.6c-0.4,9.2,6.7,14.7,7.6,15.4c0.7,1.6,0.6,4.3,0.6,4.3l1,0.3c0,0-0.2-2.7,0.1-3.9c0.1-0.4,0.3-0.7,0.5-1
		c0.2-0.1,0.6-0.4,1.2-1l0,0l0,0c2.4-2.2,6.9-7.7,5.4-16.6C226.3,120.7,221.7,117.8,221.2,116.7z"/>
	<path class="st0" d="M327.7,130.9c-1.5-1.3-3.5-1.9-5.9-1.9c-2.9,0-4,0.1-5.5,0.1c-0.8,0-2.6-0.1-3.1-0.1c-0.1,0.2-0.6,0.9-0.5,1.1
		c0.7,0.1,1.2,0.2,1.5,0.2c0.7,0.2,1.1,0.4,1.2,1.2c0.1,1,0,4.2,0,5.8c0,2.3,0,4.3-0.1,6c-0.1,0.9-0.2,1.2-0.7,1.4
		c-0.3,0.1-0.5,0.1-1.1,0.2c-0.2,0-0.5,0.9-0.4,1.1l0,0c2.4,0,5.2,0.1,6.9,0.1c3.1,0,5.3-0.7,7-2c1.7-1.2,3.4-3.3,3.4-7
		C330.4,134.6,329.5,132.5,327.7,130.9z M325.3,143.5c-1.3,1.1-2.6,1.4-3.9,1.4c-1,0-2.2-0.2-2.8-0.7c-0.4-0.2-0.5-0.8-0.6-1.1
		c-0.1-0.4-0.1-3.5-0.1-5.8c0-2.2,0-5.9,0.1-6.4c0-0.1,0.2-0.3,0.2-0.4c0.3-0.1,0.8-0.2,1.4-0.2c1.8,0,3.4,0.3,4.6,1.1
		c2.2,1.3,3.2,3.5,3.2,6.3C327.5,140.5,326.6,142.3,325.3,143.5z"/>
	<path class="st0" d="M343,136.5c-0.1,0-0.1-0.1,0-0.1c1.4-0.6,2.5-1.9,2.5-3.4c0-3.2-2.9-3.9-5.1-3.9c-1.7,0-3.1,0.1-4.9,0.1
		c-1.9,0-2.6-0.1-2.9-0.1c-0.1,0.1-0.6,0.9-0.4,1.1c0.6,0.1,1.2,0.2,1.7,0.2c0.5,0.1,0.8,0.4,0.8,1.1c0,1,0,3,0,5.9
		c0,2.2,0,5.2-0.1,6c-0.1,1-0.2,1.2-0.8,1.4c-0.5,0.1-0.8,0.2-1.3,0.2c-0.2,0.1-0.5,1-0.3,1.1c1.9,0,5.2,0.1,6.4,0.1
		c1.6,0,3.2-0.2,4.5-0.8c2.1-0.9,3.6-2.4,3.6-4.7C346.9,138.3,345.1,137,343,136.5z M337.5,130.8c0-0.1,0.1-0.4,0.2-0.4
		c0.4-0.1,0.8-0.1,1-0.1c2.5,0,4.1,0.9,4.1,3.3c0,1-0.4,2-1.3,2.4c-0.3,0.2-0.9,0.3-2,0.3c-0.7,0-1.6,0-2-0.1
		c-0.1,0-0.1-0.1-0.1-0.1C337.4,134.4,337.5,131.8,337.5,130.8z M340.4,144.9c-0.7,0-1.7-0.1-2.1-0.3s-0.7-0.8-0.8-1.3
		c-0.1-1.1-0.1-3.8-0.1-5.6c0-0.1,0.1-0.1,0.2-0.1c0.2-0.1,1.3,0,1.4,0c3.2,0,5,1.4,5,3.8C344,143.8,342.3,144.9,340.4,144.9z"/>
	<path class="st0" d="M254.3,145.2c-0.6-0.1-1.1-0.2-1.4-0.3c-0.3-0.1-0.4-0.4-0.4-0.6c0-0.5,0-1.3,0-2.2c0-1,0-2,0-2.8
		c0-2.8-1.4-4.5-3.6-4.5c-1,0-2.4,0.7-3.8,1.7l-0.1,0.1c-0.1,0-0.1,0-0.2-0.1c-0.7-1.2-1.6-1.7-2.8-1.7c-0.7,0-2.1,0.4-3.7,1.7
		l-0.1,0.1c-0.1,0-0.2-0.1-0.2-0.2c0-0.3,0-0.6,0-0.9c0-0.1,0-0.2,0-0.3c0-0.2-0.1-0.3-0.1-0.4c-0.8,0.4-2.9,0.9-3.7,1
		c-0.3,0.1-0.4,0.2-0.5,0.4c0,0.1,0.1,0.3,0.4,0.3c0.6,0.2,1.1,0.4,1.5,0.6c0.3,0.2,0.3,0.5,0.3,0.7v0.1c0,1.9,0,4.7-0.1,6.2
		c0,0.6-0.2,0.9-0.7,1c-0.3,0.1-0.5,0.1-1.1,0.2c0,0-0.1,0.2-0.1,0.4c0,0.3,0,0.5,0.1,0.6c0.3,0,0.6,0,0.9,0c0.5,0,1.1-0.1,1.9-0.1
		c0.7,0,1.4,0,1.9,0.1c0.3,0,0.6,0,0.9,0c0.1-0.2,0.1-0.8,0.1-0.9c-0.2,0-0.3-0.1-0.4-0.1c-0.2,0-0.4-0.1-0.6-0.1
		c-0.5-0.1-0.7-0.5-0.7-0.8c0-0.9,0-3.1,0-4.9c0-0.5,0-1,0-1.4c0-0.2,0.1-0.5,0.2-0.6c0.8-0.6,1.7-0.9,2.5-0.9
		c1.3,0,2.1,0.7,2.4,2.1c0.2,0.9,0.1,4.4,0,5.6c0,0.5-0.2,0.7-0.6,0.9c-0.2,0.1-0.5,0.1-0.8,0.2c-0.1,0-0.2,0-0.3,0.1
		c0,0.1-0.1,0.2-0.1,0.4s0,0.4,0.1,0.5c0.2,0,0.7,0,1.1,0c0.5,0,1.2,0,1.5,0c1.2,0,2.1,0,2.9,0.1c0,0,0.1-0.1,0.1-0.2
		c0.1-0.3,0.1-0.6,0-0.7c-0.3-0.1-0.6-0.1-0.8-0.2c-0.1,0-0.2-0.1-0.4-0.1c-0.3-0.1-0.6-0.2-0.6-0.8c0-0.8,0-1.8,0-2.9
		c0-0.5,0-1.1,0-1.6c0-0.9,0-1.5-0.1-2l0,0c0-0.1,0-0.2,0.1-0.2c0.9-0.7,1.9-0.9,2.5-0.9c1.6,0,2.4,1.1,2.5,2.1
		c0.2,0.9,0.1,4.9,0.1,5.4c0,0.6-0.2,0.9-0.6,1c-0.3,0.1-0.5,0.1-0.9,0.2c-0.1,0.1,0,0.7,0,0.9c0.8,0,1.5-0.1,3-0.1
		c0.7,0,1.4,0,1.9,0.1c0.3,0,0.5,0,0.6,0C254.3,146,254.4,145.4,254.3,145.2L254.3,145.2z"/>
	<path class="st0" d="M262.3,134.8c-1.2,0-2.6,0.4-3.7,1.1c-1.6,1.1-2.4,2.6-2.4,4.6c0,2.8,1.5,5.9,5.6,5.9c1.2,0,2.5-0.5,3.3-1
		c1.7-1.1,2.6-2.8,2.6-5.1C267.7,137.1,265.4,134.8,262.3,134.8z M264.1,144.6c-0.5,0.4-1,0.6-1.7,0.6c-2.3,0-3.9-2.2-3.9-5.4
		c0-1.7,0.5-2.9,1.4-3.5c0.3-0.2,0.8-0.4,1.3-0.4c2.3,0,3.9,2.1,3.9,5.3C265.2,142.9,264.8,144,264.1,144.6z"/>
	<path class="st0" d="M305.3,134.8c-1.2,0-2.6,0.4-3.7,1.1c-1.6,1.1-2.4,2.6-2.4,4.6c0,2.8,1.5,5.9,5.6,5.9c1.2,0,2.5-0.5,3.3-1
		c1.7-1.1,2.6-2.8,2.6-5.1C310.6,137.1,308.4,134.8,305.3,134.8z M307.1,144.6c-0.5,0.4-1,0.6-1.7,0.6c-2.3,0-3.9-2.2-3.9-5.4
		c0-1.7,0.5-2.9,1.4-3.5c0.3-0.2,0.8-0.4,1.3-0.4c2.3,0,3.9,2.1,3.9,5.3C308.2,142.9,307.8,144,307.1,144.6z"/>
	<path class="st0" d="M295.1,137c0,0,0.2,0.1,0.6,0.1h0.1c0.4,0,0.9-0.2,1.1-0.5s0.3-0.8,0.3-1.1s-0.1-0.4-0.1-0.5
		c-0.4,0.3-0.8,0.6-1.7,0.6c-0.6,0-1.1-0.1-1.6-0.3c-0.9-0.3-1.5-0.6-2.7-0.6H291c-1.1,0-2.8,0.6-3.5,1.2c-1,0.7-1.6,1.8-1.6,3.1
		c0,1.9,0.9,3.2,2.5,3.7l0.1,0.1c0,0.1,0,0.1,0,0.2c-0.3,0.2-0.7,0.5-1.1,0.7c-0.3,0.2-0.5,0.3-0.7,0.4c-0.2,0.1-0.2,0.3-0.1,0.4
		c0,0,0,0,0,0.1c0.1,0.4,0.4,1.1,1.6,1.5c0.1,0,0.1,0.1,0.1,0.1c0,0.1,0,0.1-0.1,0.1c-1.4,1-2,1.5-2.3,1.8c-0.4,0.5-0.5,1-0.5,1.2
		c0,0.7,0.4,1.7,1.3,2.4s2,1,3.5,1c1.1,0,2.2-0.2,3.2-0.7c2.1-1,3.4-2.7,3.4-4.5c0-1.2-0.7-2.2-1.8-2.6c-0.8-0.3-2.5-0.4-3.9-0.5
		c-0.2,0-0.5,0-0.7,0c-1.1-0.1-1.3-0.5-1.3-0.9s0.5-0.7,0.7-0.7l0,0c0,0,0.2,0,0.3,0c0.2,0,0.3,0,0.3,0l0,0c1.1-0.1,2-0.5,2.9-1.1
		s1.7-1.5,1.7-3.5c0-0.2-0.1-0.8-0.2-1l0,0c0-0.1,0-0.1,0-0.2H295.1z M290.2,146.6c1.5,0,2.7,0.1,3.5,0.4c1,0.3,1.4,1,1.4,1.9
		c0,1.3-1.1,2.7-3.6,2.7c-1.3,0-2.2-0.3-2.9-0.9c-0.6-0.5-0.9-1.1-0.9-1.8s0.5-1.4,1.5-2C289.4,146.8,289.8,146.6,290.2,146.6z
		 M292.3,141.3c-0.3,0.3-0.9,0.5-1.3,0.5c-2,0-2.7-1.8-2.7-3.4c0-1.6,0.8-2.6,2.1-2.6c1.7,0,2.7,1.2,2.7,3.3
		C293.1,140,292.8,140.9,292.3,141.3z"/>
	<path class="st0" d="M282,144.8c-0.1-0.1-0.2-0.3-0.2-0.4c-0.1-0.8-0.1-3.3-0.1-4.9c0-1.3-0.2-2.5-0.8-3.3
		c-0.7-0.9-1.6-1.5-2.8-1.5c-1.1,0-2.5,0.7-3.7,1.7c0,0-0.2,0.2-0.2-0.1s0-0.8,0.1-1.2c0-0.3-0.2-0.5-0.2-0.5c-0.8,0.4-3,0.9-3.8,1
		c-0.6,0.1-0.7,0.7-0.1,0.9l0,0l0,0c0.7,0.2,1.1,0.4,1.4,0.6c0.2,0.2,0.2,0.5,0.2,0.7c0,1.8,0,4.6-0.1,6.2c0,0.6-0.2,0.8-0.6,0.9
		c-0.3,0.1-0.6,0.1-1,0.2c-0.1,0.1-0.1,0.9,0,1.1c0.3,0,1.7-0.1,2.8-0.1c1.6,0,2.4,0.1,2.8,0.1c0.2-0.2,0.2-0.9,0.1-1.1
		c-0.5,0-0.8-0.1-1.1-0.2c-0.4-0.1-0.6-0.3-0.6-0.8c-0.1-1.3-0.1-4-0.1-5.9c0-0.5,0.1-0.8,0.3-0.9c0.6-0.5,1.5-0.8,2.3-0.8
		s1.3,0.2,1.7,0.6c0.5,0.4,0.7,1.1,0.8,1.5c0.1,1,0.1,3.1,0.1,4.9c0,1-0.1,1.2-0.4,1.3c-0.2,0.1-0.6,0.2-1.1,0.2
		c-0.2,0.2-0.1,0.9,0,1.1c0.7,0,1.5-0.1,2.8-0.1c1.5,0,2.5,0.1,2.9,0.1c0.2-0.2,0.2-0.9,0.1-1.1C283,145.1,282.5,145,282,144.8z"/>
	<path class="st0" d="M351.2,141.8c-1.2,0-2.1,0.9-2.1,2.1c0,1.2,0.9,2.1,2.1,2.1s2.1-0.9,2.1-2.2
		C353.4,142.8,352.4,141.8,351.2,141.8z M351.2,145.9c-1.1,0-1.9-0.9-1.9-1.9c0-1.1,0.9-1.9,1.9-1.9c1.1,0,1.9,0.9,1.9,1.9
		C353.2,145.1,352.3,145.9,351.2,145.9z"/>
	<path class="st0" d="M352.1,143.4c0-0.5-0.2-0.8-0.8-0.8h-0.8v2.7h0.3v-1.2h0.4l0.6,1.2h0.4l-0.6-1.2
		C351.9,144,352.1,143.8,352.1,143.4z M350.8,143.9V143h0.4c0.4,0,0.6,0.1,0.6,0.5c0,0.3-0.1,0.5-0.5,0.5h-0.5V143.9z"/>
</g>
<g id="Page_1_2_">
	<g id="Group_2_">
		<path class="st0" d="M1000.4,34.3l6.2,69.5l27.8,7.7l27.9-7.7l6.2-69.5C1068.5,34.3,1000.4,34.3,1000.4,34.3z M1055.6,50.8
			l-0.4,4.3L1055,57l0,0h-20.5l0,0h-12l0.8,8.7h11.3l0,0h17.5h2.3l-0.2,2.3l-2,22.5l-0.1,1.4l-17.5,4.8l0,0l0,0l-17.5-4.9l-1.2-13.4
			h3.9h4.6l0.6,6.8l9.5,2.6l0,0l0,0l9.5-2.6l1-11.1h-10.5l0,0h-19.1l-2.1-23.5l-0.2-2.3h21.4l0,0h21.3L1055.6,50.8z"/>
		<path id="Shape_23_" class="st0" d="M1006.7,15.4h4.3v4.3h4v-4.3h4.3v13h-4.3V24h-4v4.3h-4.3V15.4L1006.7,15.4z"/>
		<path id="Shape_22_" class="st0" d="M1025,19.7h-3.8v-4.3h12v4.3h-3.8v8.7h-4.3L1025,19.7L1025,19.7L1025,19.7z"/>
		<path id="Shape_21_" class="st0" d="M1035.1,15.4h4.5l2.8,4.6l2.8-4.6h4.5v13h-4.3V22l-3,4.6h-0.1l-3-4.6v6.4h-4.2L1035.1,15.4
			L1035.1,15.4z"/>
		<path id="Shape_20_" class="st0" d="M1051.9,15.4h4.3v8.7h6.1v4.3h-10.4V15.4L1051.9,15.4z"/>
		<g class="st1">
			<polygon class="st2" points="1044.9,74.3 1034.4,74.3 1034.4,87.9 1043.9,85.4 			"/>
			<polygon class="st2" points="1034.4,40 1034.4,48.5 1055.8,48.5 1055.6,50.8 1055.2,55.1 1055,57 1055,57 1034.4,57 1034.4,65.8 
				1051.9,65.8 1054.2,65.8 1054,68.1 1052,90.5 1051.9,92 1034.4,96.8 1034.4,96.8 1034.4,105.7 1057,99.4 1062.3,40 			"/>
		</g>
	</g>
</g>
<g>
	<path class="st0" d="M641.6,66.3c0-0.4-0.2-0.9-0.6-1.1l-10.2-5.9c-0.2-0.1-0.4-0.2-0.6-0.2h-0.1c-0.2,0-0.4,0.1-0.6,0.2l-10.2,5.9
		c-0.4,0.2-0.6,0.6-0.6,1.1v15.8c0,0.2,0.1,0.4,0.3,0.5s0.4,0.1,0.6,0l6.1-3.5c0.4-0.2,0.6-0.6,0.6-1.1v-7.4c0-0.4,0.2-0.8,0.6-1.1
		l2.6-1.5c0.2-0.1,0.4-0.2,0.6-0.2c0.2,0,0.4,0.1,0.6,0.2l2.6,1.5c0.4,0.2,0.6,0.6,0.6,1.1V78c0,0.4,0.2,0.8,0.6,1.1l6.1,3.5
		c0.2,0.1,0.4,0.1,0.6,0c0.2-0.1,0.3-0.3,0.3-0.5L641.6,66.3z"/>
	<path class="st0" d="M696.2,44.5c-0.2-0.1-0.4-0.1-0.6,0c-0.2,0.1-0.3,0.3-0.3,0.5v15.7c0,0.2-0.1,0.3-0.2,0.4
		c-0.1,0.1-0.3,0.1-0.4,0l-2.6-1.5c-0.4-0.2-0.9-0.2-1.2,0l-10.2,5.9c-0.4,0.2-0.6,0.6-0.6,1.1v11.8c0,0.4,0.2,0.8,0.6,1.1l10.2,5.9
		c0.4,0.2,0.9,0.2,1.2,0l10.2-5.9c0.4-0.2,0.6-0.6,0.6-1.1V49c0-0.4-0.2-0.9-0.6-1.1L696.2,44.5z M695.2,74.5c0,0.1-0.1,0.2-0.2,0.3
		l-3.5,2c-0.1,0.1-0.2,0.1-0.3,0l-3.5-2c-0.1-0.1-0.2-0.2-0.2-0.3v-4.1c0-0.1,0.1-0.2,0.2-0.3l3.5-2c0.1-0.1,0.2-0.1,0.3,0l3.5,2
		c0.1,0.1,0.2,0.2,0.2,0.3V74.5z"/>
	<path class="st0" d="M732.8,70.4c0.4-0.2,0.6-0.6,0.6-1.1v-2.9c0-0.4-0.2-0.8-0.6-1.1l-10.2-5.9c-0.4-0.2-0.9-0.2-1.2,0l-10.2,5.9
		c-0.4,0.2-0.6,0.6-0.6,1.1v11.8c0,0.4,0.2,0.9,0.6,1.1l10.2,5.8c0.4,0.2,0.8,0.2,1.2,0l6.1-3.4c0.2-0.1,0.3-0.3,0.3-0.5
		s-0.1-0.4-0.3-0.5l-10.3-5.9c-0.2-0.1-0.3-0.3-0.3-0.5v-3.7c0-0.2,0.1-0.4,0.3-0.5l3.2-1.8c0.2-0.1,0.4-0.1,0.6,0l3.2,1.8
		c0.2,0.1,0.3,0.3,0.3,0.5v2.9c0,0.2,0.1,0.4,0.3,0.5s0.4,0.1,0.6,0L732.8,70.4z"/>
	<path class="st0" d="M660.2,59.4c0.4-0.2,0.9-0.2,1.2,0l10.2,5.9c0.4,0.2,0.6,0.6,0.6,1.1v11.8c0,0.4-0.2,0.8-0.6,1.1l-10.2,5.9
		c-0.4,0.2-0.9,0.2-1.2,0L650,79.3c-0.4-0.2-0.6-0.6-0.6-1.1V66.4c0-0.4,0.2-0.8,0.6-1.1L660.2,59.4z"/>
	<path class="st0" d="M752.7,85.3c-0.4,0-0.7-0.1-1-0.3l-3.2-1.9c-0.5-0.3-0.2-0.4-0.1-0.4c0.6-0.2,0.8-0.3,1.5-0.7
		c0.1,0,0.2,0,0.2,0l2.5,1.5c0.1,0,0.2,0,0.3,0l9.6-5.6c0.1-0.1,0.1-0.2,0.1-0.3v-11c0-0.1-0.1-0.2-0.1-0.3l-9.6-5.6
		c-0.1-0.1-0.2-0.1-0.3,0l-9.6,5.6c-0.1,0.1-0.2,0.2-0.2,0.3v11.1c0,0.1,0.1,0.2,0.2,0.3l2.6,1.5c1.4,0.7,2.3-0.1,2.3-1v-11
		c0-0.2,0.1-0.3,0.3-0.3h1.2c0.2,0,0.3,0.1,0.3,0.3v11c0,1.9-1,3-2.9,3c-0.6,0-1,0-2.2-0.6l-2.5-1.5c-0.6-0.4-1-1-1-1.8v-11
		c0-0.7,0.4-1.4,1-1.8l9.6-5.6c0.6-0.3,1.4-0.3,2,0l9.6,5.6c0.6,0.4,1,1,1,1.8v11.1c0,0.7-0.4,1.4-1,1.8l-9.6,5.6
		C753.4,85.3,753,85.3,752.7,85.3z"/>
	<path class="st0" d="M755.6,77.7c-4.2,0-5.1-1.9-5.1-3.6c0-0.2,0.1-0.3,0.3-0.3h1.2c0.1,0,0.3,0.1,0.3,0.2c0.2,1.3,0.7,1.9,3.3,1.9
		c2,0,2.9-0.5,2.9-1.5c0-0.6-0.2-1.1-3.4-1.4c-2.6-0.3-4.3-0.8-4.3-3c0-1.9,1.6-3.1,4.4-3.1c3.1,0,4.6,1.1,4.8,3.4
		c0,0.1,0,0.2-0.1,0.2c-0.1,0.1-0.1,0.1-0.2,0.1h-1.3c-0.1,0-0.2-0.1-0.3-0.2c-0.3-1.3-1-1.8-3-1.8c-2.2,0-2.5,0.8-2.5,1.4
		c0,0.7,0.3,0.9,3.3,1.3s4.4,0.9,4.4,3C760.4,76.5,758.7,77.7,755.6,77.7z"/>
	<path class="st0" d="M721.9,69.8c0.1,0,0.2,0,0.2,0l2,1.1c0.1,0,0.1,0.1,0.1,0.2v2.3c0,0.1,0,0.2-0.1,0.2l-2,1.1
		c-0.1,0-0.2,0-0.2,0l-2-1.1c-0.1,0-0.1-0.1-0.1-0.2v-2.3c0-0.1,0-0.2,0.1-0.2L721.9,69.8z"/>
	<g>
		<path class="st0" d="M771,62.3c0,1-0.8,1.9-1.9,1.9c-1,0-1.9-0.8-1.9-1.9c0-1.1,0.9-1.9,1.9-1.9C770.2,60.4,771,61.2,771,62.3z
			 M767.6,62.3c0,0.9,0.7,1.6,1.6,1.6c0.9,0,1.6-0.7,1.6-1.6c0-0.9-0.7-1.6-1.6-1.6S767.6,61.4,767.6,62.3z M768.5,61.3h0.7
			c0.2,0,0.7,0,0.7,0.6c0,0.4-0.2,0.5-0.4,0.5c0.3,0,0.3,0.2,0.3,0.5c0,0.2,0,0.5,0.1,0.6h-0.4c0-0.1-0.1-0.6-0.1-0.7
			c0-0.1-0.1-0.2-0.2-0.2h-0.4v0.8h-0.4v-2.1H768.5z M768.8,62.2h0.3c0.3,0,0.3-0.2,0.3-0.3c0-0.3-0.2-0.3-0.3-0.3h-0.3V62.2z"/>
	</g>
</g>
<g>
	<path class="st0" d="M527.4,140c-3.5,0-6.5,0.9-9,2.1c-0.9-1.8-1.8-3.5-2-4.7c-0.2-1.4-0.4-2.2-0.2-3.9s1.2-4,1.2-4.2
		s-0.2-1-2.2-1.1c-2,0-3.7,0.4-3.9,0.9c-0.2,0.5-0.6,1.7-0.8,3c-0.3,1.8-4,8.3-6.1,11.7c-0.7-1.3-1.3-2.5-1.4-3.4
		c-0.2-1.4-0.4-2.2-0.2-3.9c0.2-1.7,1.2-4,1.2-4.2s-0.2-1-2.2-1.1s-3.7,0.4-3.9,0.9c-0.2,0.5-0.4,1.8-0.8,3s-5.3,12-6.5,14.8
		c-0.7,1.4-1.2,2.6-1.6,3.4l0,0c0,0,0,0.1-0.1,0.1c-0.3,0.7-0.5,1-0.5,1l0,0c-0.3,0.5-0.6,0.9-0.7,0.9s-0.3-1.3,0-3.1
		c0.7-3.8,2.4-9.6,2.4-9.8c0-0.1,0.3-1.1-1.1-1.6s-1.9,0.3-2,0.3s-0.2,0.3-0.2,0.3s1.6-6.6-3-6.6c-2.9,0-6.8,3.1-8.8,6
		c-1.2,0.7-3.9,2.1-6.7,3.6c-1.1,0.6-2.2,1.2-3.2,1.8c-0.1-0.1-0.1-0.2-0.2-0.2c-5.5-5.9-15.8-10.1-15.4-18.1
		c0.2-2.9,1.2-10.5,19.7-19.8c15.3-7.5,27.4-5.4,29.5-0.8c3,6.6-6.5,18.9-22.3,20.6c-6,0.7-9.2-1.6-10-2.5s-1-1-1.3-0.8
		c-0.5,0.3-0.2,1.1,0,1.6c0.5,1.2,2.4,3.4,5.7,4.5c2.9,0.9,10,1.5,18.5-1.8c9.6-3.7,17-14,14.8-22.6c-2.2-8.7-16.7-11.6-30.4-6.7
		c-8.2,2.9-17,7.5-23.4,13.4c-7.6,7.1-8.8,13.2-8.3,15.8c1.8,9.1,14.4,15.1,19.4,19.5c-0.3,0.1-0.5,0.3-0.7,0.4
		c-2.5,1.3-12.1,6.3-14.5,11.6c-2.7,6,0.4,10.3,2.5,10.9c6.5,1.8,13.1-1.4,16.7-6.8c3.6-5.3,3.1-12.3,1.5-15.4c0,0,0-0.1-0.1-0.1
		c0.7-0.4,1.3-0.8,2-1.2c1.3-0.8,2.6-1.5,3.6-2c-0.6,1.7-1.1,3.7-1.3,6.6c-0.3,3.4,1.1,7.8,3,9.6c0.8,0.8,1.8,0.8,2.4,0.8
		c2.1,0,3.1-1.8,4.2-3.9c1.3-2.6,2.5-5.6,2.5-5.6s-1.5,8.1,2.5,8.1c1.5,0,2.9-1.9,3.6-2.8l0,0c0,0,0-0.1,0.1-0.2
		c0.1-0.2,0.2-0.4,0.2-0.4l0,0c0.6-1,1.9-3.3,3.8-7.1c2.5-4.9,4.9-11.1,4.9-11.1s0.2,1.5,1,4c0.4,1.5,1.3,3.1,2.1,4.6
		c-0.6,0.8-0.9,1.3-0.9,1.3l0,0c-0.5,0.6-1,1.3-1.5,1.9c-2,2.4-4.3,5.1-4.7,5.8c-0.4,0.9-0.3,1.6,0.4,2.1c0.5,0.4,1.5,0.5,2.4,0.4
		c1.8-0.1,3-0.6,3.6-0.8c1-0.3,2.1-0.9,3.1-1.6c1.9-1.4,3.1-3.5,3-6.2c-0.1-1.5-0.5-3-1.1-4.4c0.2-0.3,0.3-0.5,0.5-0.8
		c3.1-4.5,5.4-9.4,5.4-9.4s0.2,1.5,1,4c0.4,1.3,1.1,2.6,1.8,4c-2.9,2.3-4.7,5.1-5.3,6.8c-1.1,3.3-0.3,4.8,1.4,5.1
		c0.8,0.2,1.8-0.2,2.6-0.5c1-0.3,2.2-0.9,3.4-1.7c1.9-1.4,3.8-3.4,3.7-6.1c-0.1-1.2-0.4-2.4-0.8-3.6c2.4-1,5.6-1.6,9.6-1.1
		c8.6,1,10.3,6.4,10,8.7s-2.1,3.5-2.7,3.9s-0.8,0.5-0.7,0.8c0.1,0.4,0.4,0.4,0.9,0.3c0.7-0.1,4.5-1.8,4.7-6
		C541.4,145.8,536.3,139.9,527.4,140L527.4,140z M460.8,162.4c-2.9,3.1-6.9,4.3-8.6,3.3c-1.8-1.1-1.1-5.7,2.4-9c2.1-2,4.9-3.9,6.7-5
		c0.4-0.3,1-0.6,1.8-1.1c0.1-0.1,0.2-0.1,0.2-0.1l0,0c0.1-0.1,0.3-0.2,0.4-0.3C465.1,155,463.8,159.2,460.8,162.4L460.8,162.4z
		 M481.7,148.3c-1,2.4-3.1,8.6-4.4,8.3c-1.1-0.3-1.8-5-0.2-9.7c0.8-2.3,2.4-5.1,3.4-6.2c1.6-1.7,3.3-2.3,3.7-1.6
		C484.7,140,482.3,146.7,481.7,148.3L481.7,148.3z M498.9,156.5c-0.4,0.2-0.8,0.4-1,0.3c-0.1-0.1,0.2-0.4,0.2-0.4s2.2-2.3,3-3.4
		c0.5-0.6,1.1-1.3,1.7-2.2v0.2C502.7,153.9,500.1,155.7,498.9,156.5L498.9,156.5z M512.1,153.5c-0.3-0.2-0.3-0.9,0.8-3.2
		c0.4-0.9,1.3-2.4,3-3.8c0.2,0.6,0.3,1.1,0.3,1.7C516.1,151.6,513.6,152.9,512.1,153.5L512.1,153.5z"/>
</g>
<g>
	<g>
		<path class="st0" d="M106.8,154c1.5-0.8,3.3-0.9,4.9-0.9c1.8,0,3.8,0.2,5.2,1.3c0.9,0.7,1.3,1.9,1.3,3c-0.6,0-1.1,0-1.7,0
			c-0.2-1.1-0.7-2.3-1.8-2.7c-1.9-0.7-4.1-0.7-6.1-0.1c-1.6,0.4-2.2,2.7-0.9,3.8c0.9,0.7,2,0.8,3.1,1c2.1,0.5,4.4,0.5,6.4,1.5
			c2.1,1.1,2.1,4.5,0.2,5.8c-1.6,1.1-3.5,1.2-5.4,1.2c-2,0-4.2-0.2-5.8-1.5c-1-0.8-1.4-2.2-1.4-3.5c0.6,0,1.2,0,1.8,0
			c0.1,1.3,0.8,2.7,2.1,3.3c2.1,0.8,4.5,0.8,6.7,0.2c1.5-0.4,2.1-2.3,1.4-3.6c-0.3-0.6-1-0.9-1.6-1.1c-2.6-0.7-5.4-0.7-7.9-1.7
			C104.7,159,104.7,155.2,106.8,154z"/>
		<g>
			<path class="st0" d="M123.1,154.1c2-1,4.3-1.2,6.5-1c2.1,0.2,4.2,0.9,5.6,2.5c1.8,1.9,2.1,4.7,1.4,7.1c-0.4,1.3-1.3,2.4-2.3,3.3
				c0.8,0.6,1.6,1.1,2.4,1.7c-0.4,0.3-0.7,0.7-1.1,1c-0.8-0.5-1.6-1.2-2.5-1.7c-0.7,0-1.3,0.4-2,0.5c-1.9,0.3-3.8,0.4-5.7,0
				c-2-0.4-4-1.6-5.1-3.4c-1.1-1.8-1.2-4-0.7-6C120.1,156.5,121.4,155,123.1,154.1z M125.8,154.5c-1.9,0.5-3.8,1.8-4.4,3.8
				c-0.7,2.1-0.4,4.6,1.1,6.3c1.3,1.5,3.4,2.2,5.4,2.2c2.2,0.1,4.6-0.6,6-2.3c2-2.5,1.7-6.8-0.9-8.8
				C131,154.1,128.2,153.9,125.8,154.5z"/>
		</g>
		<path class="st0" d="M138.1,153.4c0.6,0,1.1,0,1.7,0c0,4.3,0,8.6,0,13c3.5,0.1,7,0,10.5,0c0,0.4,0,0.8,0,1.2c-4.1,0-8.1,0-12.2,0
			C138.1,162.8,138.1,158.1,138.1,153.4z"/>
		<path class="st0" d="M95.3,182.6c3.8-0.8,8-0.7,11.6,0.7c2.6,1,4.8,2.7,6.5,4.8c0.8,1,0.9,2.4,1,3.6c0,3-0.6,5.9-1.3,8.8
			c-1.5,5.3-3.7,10.4-6.5,15.2c-0.3,0.5-0.6,0.9-0.9,1.3c0-0.1-0.1-0.4-0.1-0.5c0.3-0.9,0.9-1.8,1.1-2.7c0.7-2.7,0.1-5.6-0.1-8.3
			c-0.3-2.6,0.6-5.1,0.6-7.7c0.1-1.3-0.4-2.5-0.9-3.6c-1.8-4-4.6-7.5-8.2-9.9C97.2,183.6,96.2,183.2,95.3,182.6z"/>
		<path class="st0" d="M84.6,182.9c4.7-0.6,9.7,0.7,13.4,3.7c3.1,2.4,5.5,5.8,6.9,9.5c-2.2-0.1-4.7-0.2-6.5,1.4
			c-1.6,1.4-1.8,3.7-1.5,5.6c0.8,4.6,3.6,8.6,5.6,12.7c0.5,1,1.3,1.8,1.9,2.7c-0.8,0.4-1.7,0.8-2.2,1.6c-0.8,1.3-0.5,2.9-0.7,4.3
			c-0.5,4.1-0.9,8.1-1.6,12.2c-0.3,1.9-1.1,4-3,5s-4,1.5-6.2,1.2c-2-0.4-3.3-2.2-3.8-4c-0.4-1.5-0.5-3.1-0.6-4.7
			c-0.2-3.8-0.2-7.6-0.1-11.4c0.1-1.5-0.7-3-2-3.7c-0.6-0.4-1.4-0.4-2.1-0.5c0.6-2.8,2.3-5.2,2.8-8c0.8-3.4,0.3-7-0.4-10.4
			c-0.4-1.7-1.7-3.2-3.4-3.6c-2.6-0.7-5.3,0.4-7.7,1.5c0.3-3.8,1.3-7.8,3.7-10.9C79.1,184.8,81.8,183.3,84.6,182.9z"/>
		<path class="st0" d="M64.5,183.2c4.2-0.8,8.5,0,12.5,1.3c-1.8,2-3.2,4.3-4,6.8c-1.1,3.4-1.6,7-1.3,10.5c0.2,2.5,0.1,5-0.3,7.5
			c-0.4,3.2,0.9,6.6,3.3,8.7c-1.6,1.9-3.4,3.7-4.9,5.7c-0.7,0.8-1.6,1.8-2.8,1.6c-1.4-0.4-2.3-1.7-3.1-2.8
			c-2.1-3.4-3.4-7.1-4.5-10.9c-1.3-4.4-2.4-9-3-13.6c-0.3-3.5-0.1-7.2,1.7-10.4C59.4,185.2,61.9,183.7,64.5,183.2z"/>
		<g>
			<path class="st0" d="M99.8,198.8c1.5-1.1,3.6-0.9,5.4-0.7c-0.1,2.5-0.8,4.9-0.6,7.4c0.2,3.1,1.1,6.4-0.3,9.3
				c-1.9-3.9-4.5-7.6-5.3-11.9C98.7,201.5,98.6,199.7,99.8,198.8z M100.4,199.4c-0.5,0.4,0,1.1,0.5,1.3c1.1,0.6,2.5-0.3,2.6-1.5
				C102.5,198.7,101.3,198.7,100.4,199.4z"/>
		</g>
		<g>
			<path class="st0" d="M73.6,200.4c1.9-1.3,4.2-2.2,6.6-2.1c1.2,0.1,2.3,0.9,2.6,2.1c1.1,4.2,1.4,9-0.6,13
				c-0.7,1.6-1.3,3.2-1.8,4.8c-3.4,0-6.3-2.8-6.9-6.1c-0.4-1.8,0.1-3.7,0.2-5.5C73.8,204.5,73.7,202.5,73.6,200.4z M79.1,199.4
				c-0.3,0.1-0.6,0.3-0.5,0.7c0.2,1.2,1.9,2,2.9,1.2c0.5-0.3,0.9-1,0.4-1.4C81.1,199.3,80,199.2,79.1,199.4z"/>
		</g>
		<path class="st0" d="M104.2,220.8c0.5-0.4,1.2-0.7,1.8-0.3c2.5,1.3,5.3,0.7,8,0.3c-1.6,1.6-3.8,2.3-6,2.5c-1.4,0.2-3,0.2-4.4-0.3
			C103.7,222.3,103.6,221.4,104.2,220.8z"/>
		<path class="st0" d="M79.3,223.8c1.4-0.8,2-2.4,3.3-3.3c1.4-0.2,2.5,1.9,1.4,3c-2.1,2.9-6.4,3.4-9.5,1.9
			C76.1,224.6,77.9,224.7,79.3,223.8z"/>
	</g>
	<g>
		<g>
			<path class="st0" d="M29.9,153.4c2.6,0,5.3,0,7.9,0c1.2,0,2.6,0.2,3.5,1.1c1.3,1.1,1.5,3.1,1,4.6c-0.7,1.7-2.5,2.4-4.2,2.5
				c-2.3,0-4.5,0-6.8,0c0,2,0,4,0,6c-0.5,0-0.9,0-1.4,0C29.9,162.9,29.9,158.2,29.9,153.4z M31.3,154.6c0,2,0,3.9,0,5.9
				c2.1,0,4.2,0,6.3,0c1.2,0,2.5-0.4,3-1.6c0.4-1.1,0.3-2.4-0.4-3.3c-0.7-0.8-1.9-1-2.9-1C35.3,154.6,33.3,154.6,31.3,154.6z"/>
		</g>
		<path class="st0" d="M67.6,155.3c0.5,0,1,0,1.5,0c0,1,0,2,0,3c0.8,0,1.7,0,2.5,0c0,0.3,0,0.7,0,1c-0.8,0-1.7,0-2.5,0
			c0,2,0,4,0,5.9c0,0.5,0,1,0.4,1.3c0.6,0.3,1.4,0.2,2.1,0.2c0,0.3,0,0.6,0,0.9c-1.1,0.1-2.2,0.2-3.2-0.3c-0.6-0.3-0.8-1-0.8-1.6
			c0-2.1,0-4.3,0-6.4c-0.6,0-1.2,0-1.9,0c0-0.3,0-0.6,0-1c0.6,0,1.2,0,1.8,0C67.6,157.3,67.6,156.3,67.6,155.3z"/>
		<g>
			<path class="st0" d="M46.3,158.1c1.8-0.3,3.9-0.2,5.5,0.7c2.5,1.4,2.8,5.2,1.1,7.3c-1.5,1.7-3.9,1.9-6,1.7
				c-1.7-0.1-3.4-0.9-4.2-2.5c-0.7-1.4-0.7-3.2-0.1-4.7C43.3,159.2,44.8,158.4,46.3,158.1z M47.1,159.1c-1.4,0.2-2.7,1-3.1,2.4
				c-0.5,1.5-0.3,3.4,0.9,4.5c1,0.9,2.3,1.1,3.6,1c1.1,0,2.3-0.3,3.2-1.2s1-2.2,0.9-3.4c-0.1-1-0.6-2.1-1.5-2.6
				C49.8,159,48.4,158.9,47.1,159.1z"/>
		</g>
		<path class="st0" d="M56,158.8c1-0.6,2.1-0.7,3.2-0.8c1.6,0,3.3,0,4.6,0.9c0.8,0.5,1,1.4,1.1,2.2c-0.5,0-1,0-1.5,0
			c-0.1-0.7-0.4-1.4-1.1-1.7c-1.2-0.6-2.7-0.5-4-0.3c-0.8,0.1-1.8,0.6-1.9,1.5c-0.1,0.7,0.6,1.2,1.1,1.3c1.8,0.4,3.6,0.4,5.4,0.8
			c0.8,0.2,1.6,0.5,2.1,1.2c0.6,1,0.2,2.5-0.8,3.2c-1.3,0.8-2.8,0.8-4.3,0.8c-1.4-0.1-3-0.1-4.2-0.9c-0.7-0.5-1-1.4-1.1-2.3
			c0.5,0,1.1,0,1.6,0c0,1.1,1,2,2.1,2.1c1.6,0.2,3.3,0.4,4.8-0.4c1-0.5,0.9-2.2-0.2-2.5c-2.2-0.6-4.6-0.4-6.7-1.2
			C54.7,162,54.7,159.7,56,158.8z"/>
		<g>
			<path class="st0" d="M76,158.2c1.5-0.3,3.1-0.4,4.6,0.1c0.8,0.2,1.4,0.9,2.1,1.5c0-0.5,0-1,0.1-1.5c0.5,0,0.9,0,1.4,0
				c0.1,2.9,0,5.7,0.1,8.6c0,1.2-0.2,2.5-1.1,3.3c-1.2,1.1-2.9,1.3-4.5,1.3c-1.4,0-2.9-0.1-4.1-0.7c-0.9-0.5-1.3-1.4-1.5-2.3
				c0.5,0,0.9,0,1.4,0c0.3,0.6,0.5,1.4,1.2,1.7c1,0.5,2.1,0.5,3.2,0.5c1.2,0,2.6-0.3,3.3-1.3c0.7-1,0.6-2.3,0.6-3.5
				c-1.5,1.5-3.8,1.8-5.8,1.6c-1.3-0.1-2.6-0.6-3.4-1.6c-1-1.2-1.1-3-0.8-4.5C73,159.6,74.4,158.6,76,158.2z M77.2,159.1
				c-1,0.2-2.1,0.7-2.7,1.6c-0.7,1.1-0.7,2.5-0.2,3.7s1.8,1.8,3,2c1.6,0.2,3.4,0,4.5-1.2c1.3-1.5,1.1-4.2-0.6-5.4
				C80.1,159,78.5,158.9,77.2,159.1z"/>
		</g>
		<path class="st0" d="M88.6,158.4c1.1-0.5,2.2-0.4,3.4-0.4c0,0.4,0,0.8,0,1.2c-1.2,0-2.4-0.2-3.4,0.6c-1,0.7-1.3,1.9-1.3,3
			c0,1.6,0,3.2,0,4.8c-0.5,0-1,0-1.4,0c0-3.1-0.1-6.2,0-9.3c0.5,0,1,0,1.4,0c0,0.5,0,1.1,0,1.6C87.5,159.3,87.9,158.7,88.6,158.4z"
			/>
		<g>
			<path class="st0" d="M92.4,160.3c1-1.6,2.9-2.2,4.6-2.3c1.8-0.1,3.8,0.2,5.2,1.5c1,0.9,1.3,2.3,1.4,3.7c-3.4,0-6.9,0-10.3,0
				c0.1,0.9,0.4,1.9,1.1,2.5c1.3,1.2,3.4,1.3,5.1,1c1.1-0.2,2-1.1,2.4-2.2c0.5,0,1.1,0,1.6,0c-0.5,1.6-1.8,2.7-3.4,3.1
				c-2.1,0.5-4.6,0.4-6.4-0.9C91.6,165.3,91.2,162.3,92.4,160.3z M95,159.5c-1,0.5-1.5,1.7-1.8,2.8c2.9,0,5.9,0,8.8,0
				c-0.1-0.7-0.3-1.3-0.8-1.9C99.8,158.7,97,158.5,95,159.5z"/>
		</g>
		<g>
			<path class="st0" d="M92,179.5c4.1-1.1,8.5-1.5,12.7-0.7c3.8,0.7,7.5,2.5,10.2,5.2c1.2,1.2,2.5,2.6,2.9,4.3c0.8,3,0.5,6.1,0,9.1
				c-1.3,7.2-4.1,14-7.7,20.2c1.6,0,3.2-0.5,4.8-0.6c1.6-0.1,3.3,0.9,3.7,2.5c0.5,1.7-0.6,3.4-1.9,4.4c-3.2,2.8-7.6,3.8-11.8,3.5
				c-0.3,4.3-0.3,8.8-2.2,12.8c-0.8,1.8-2.1,3.4-3.8,4.4c-1.6,1-3.5,1.5-5.3,1.8c-2,0.4-4.2,0.2-6-1c-1.6-1-2.6-2.7-3.2-4.5
				c-1.4-3.7-1.3-7.8-1.5-11.7c-2.8,1.1-6.1,1.1-8.9,0.1c-1-0.4-1.9-1-2.7-1.7c-1.5,1.2-3.5,1.9-5.4,1.3c-2.4-0.7-4.1-2.7-5.4-4.7
				c-2.2-3.6-3.6-7.7-4.8-11.8c-1.4-4.7-2.5-9.5-3.1-14.3c-0.3-4.3,0-8.9,2.4-12.7c1.9-3.1,5.2-5.1,8.7-5.8c5-1,10.1,0,14.9,1.5
				c1.5-0.7,3.1-1.5,4.8-1.7C86.2,178.8,89.1,179.1,92,179.5z M92,181.4c-0.4,0.1-0.7-0.1-1.1-0.1c-4.1-0.8-8.6-0.5-12.1,1.9
				c-4.2-1.5-8.8-2.4-13.3-2c-3.4,0.3-6.7,1.9-8.6,4.8c-2.4,3.6-2.8,8.1-2.4,12.3c0.8,5.5,2.1,11,3.9,16.3c1.1,3.3,2.4,6.7,4.4,9.6
				c1,1.4,2.4,2.9,4.2,3.1c1.6,0.2,3.1-0.8,4.1-2c1.7-2.1,3.5-4.1,5.3-6.1c1.2,0.6,2.5,0.9,3.8,1c-0.7,0.9-1.3,2-2.5,2.3
				c-1.5,0.6-3.4,0.5-4.7,1.5c-0.8,0.6-0.8,1.8-0.1,2.4c1.3,1.2,3.2,1.5,4.9,1.7c2.4,0.2,4.9-0.6,6.7-2.2c0,3.8,0,7.7,0.4,11.5
				c0.2,2.2,1.2,4.5,2.9,6c1.6,1.4,3.9,1.7,5.9,1.3s4-1,5.6-2.3c1.7-1.5,2.4-3.7,2.7-5.8c0.6-3.8,1-7.6,1.5-11.4
				c4.3,0.7,9.1-0.1,12.3-3.2c0.7-0.6,1.3-1.8,0.7-2.6c-0.7-0.8-1.9-0.6-2.8-0.4c-2.2,0.4-4.6,0.8-6.7-0.1c3.8-6,6.8-12.5,8.4-19.4
				c0.6-2.6,1.1-5.3,1-8c-0.1-1.5-0.3-3.1-1.2-4.4c-2.3-3-5.6-5.2-9.2-6.2C101.3,179.7,96.5,180,92,181.4z"/>
		</g>
	</g>
</g>
<g>
	<path class="st0" d="M652.2,196.9c0-11.8,4.2-21.8,12.5-30.2c8.3-8.3,18.4-12.5,30.2-12.5s21.8,4.2,30.2,12.5s12.5,18.4,12.5,30.2
		s-4.2,21.8-12.5,30.2s-18.4,12.5-30.2,12.5s-21.8-4.2-30.2-12.5C656.3,218.7,652.2,208.6,652.2,196.9L652.2,196.9z M656.8,196.9
		c0,10.4,3.7,19.4,11.2,26.8c7.4,7.4,16.4,11.2,26.8,11.2c10.4,0,19.4-3.7,26.8-11.2c7.4-7.4,11.2-16.4,11.2-26.8
		c0-10.4-3.7-19.4-11.2-26.8c-7.4-7.4-16.4-11.2-26.8-11.2c-10.4,0-19.4,3.7-26.8,11.2C660.6,177.5,656.8,186.4,656.8,196.9
		L656.8,196.9z M668.8,206c-0.2-0.2-0.2-0.4,0-0.7c0.4-0.4,1-0.6,1.7-0.5s1.1,0.2,1.2,0.3c0.8,0.3,1.6,1.1,2.6,2.3
		c0.9,1.2,1.7,2,2.3,2.4c2.7,2.2,5.4,2.4,8.2,0.5c0.2-0.8,0.6-1.4,1.1-2s1-0.9,1.4-1.2c0.4-0.2,1.2-0.6,2.3-1
		c-3.7-0.3-6.6-1-8.9-1.9c-2.3-0.9-4.1-2.1-5.4-3.6c-1.8-2-2.9-4.6-3.3-7.8c-0.4-3.2-0.1-6.2,0.8-8.8c0.7-1.7,1.6-3.2,2.8-4.5
		c-0.9-2.8-0.7-5.9,0.5-9.5c3.6,0.2,6.8,1.4,9.7,3.7c5.6-1.4,11.3-1.5,17.3-0.2c0.8-0.6,2-1.3,3.6-2.1s3.6-1.3,6.1-1.4
		c0.4,1.2,0.8,2.7,0.9,4.3s0.1,3.2-0.2,4.7c2.6,2.7,3.9,6.2,4,10.7c0,3.6-0.6,6.5-1.8,8.8s-3.4,4.3-6.5,5.8c-2.1,1-4.9,1.6-8.3,1.8
		c1.6,0.8,2.7,1.6,3.4,2.4s1.2,2.1,1.4,3.9v5.3c0,0,0.1,1.7,0.2,5.1c0.3,0.6,0.7,1,1.2,1.4c0.4,0.4,0.8,0.7,1.2,0.8
		c0.3,0.2,0.4,0.4,0.3,0.8c-0.1,0.3-0.6,0.5-1.3,0.5c-1.9,0-3.4-0.7-4.5-2c-0.3-0.6-0.5-1.2-0.5-2v-8c0-0.9-0.2-1.5-0.7-1.9
		c-0.4-0.4-0.9-0.6-1.3-0.8v10.5c0,1.9,0.2,3.1,0.7,3.7s0.7,1.1,0.8,1.7c0.1,0.1,0,0.2-0.2,0.3s-0.8,0-1.4-0.3
		c-1.4-0.3-2.4-1.1-3-2.3s-0.8-2.4-0.8-3.8v-10.3h-2.2v10.3c0,1.3-0.3,2.6-0.8,3.8c-0.8,1.6-2.2,2.4-4.3,2.5
		c-0.3-0.1-0.5-0.2-0.5-0.3c0.1-0.1,0.4-0.7,1-1.7c0.1-0.2,0.3-0.7,0.4-1.3c0.2-0.7,0.3-1.4,0.3-2.3v-10.5c-0.4,0.1-0.9,0.4-1.3,0.8
		c-0.4,0.4-0.6,1-0.6,1.9v8c0,0.8-0.2,1.4-0.5,2c-1,1.3-2.5,2-4.5,2c-0.8,0-1.2-0.2-1.3-0.5c-0.1-0.2-0.1-0.4,0.1-0.6
		c0.2-0.2,0.4-0.4,0.8-0.6c0.3-0.2,0.6-0.4,0.7-0.5c0.4-0.3,0.8-0.8,1-1.3c0.3-0.4,0.4-1.6,0.2-3.5s-0.2-3.1-0.1-3.7
		c-2.9,1-5.8,0.5-8.8-1.5c-0.9-0.9-1.8-2.2-2.7-3.8C672.2,209.1,670.8,207.7,668.8,206L668.8,206z"/>
</g>
<g>
	<g transform="translate(26.592321, 248.822656)">
		<path class="st0" d="M34.1-161.9v14.2h3.6v-3.7l3.3,3.3h5.5l-4.4-4.4c0,0,3.2-0.1,3.4-4.6c0-4.2-3.2-4.7-6.8-4.7h-4.6V-161.9z
			 M37.9-158.1H41v2.5h-3.1V-158.1L37.9-158.1z"/>
		<path class="st0" d="M53.5-161.9c-2,0-4.7,0.2-4.7,3.9v9.8h3.7v-2.4h3.6v2.3h3.7v-10.3c0-3.2-3.6-3.4-5.5-3.4
			C54.1-161.9,53.8-161.9,53.5-161.9L53.5-161.9z M52.6-158.3H56v3.9h-3.5L52.6-158.3L52.6-158.3z"/>
		<rect x="63.5" y="-161.8" class="st0" width="3.8" height="13.5"/>
		<path class="st0" d="M71.4-161.7v13.5h9.2v-3.6h-5.5v-10L71.4-161.7z"/>
		<path class="st0" d="M92.8-161.8v3.7h-6.2v1.3h2.6c1.4,0,4.3-0.1,4.3,4.3s-2,4.6-6,4.6h-4.9v-3.3h5.6c1.7,0,1.8-0.5,1.8-1
			s-0.9-0.7-2.6-0.7s-5-0.9-5-4.2s1.7-4.6,5-4.6S92.8-161.8,92.8-161.8L92.8-161.8z"/>
	</g>
	<g transform="translate(14.055544, 16.892288)">
		<path class="st0" d="M50,66h31.9c0,0-7.1-16.1-5.3-30.8C78.4,20.5,90,13.8,96.6,13c6.6-0.7,10.2,3.4,10.2,3.4l1.4-2.2
			c0,0-9.5-9.6-21.5-8.5s-20.3,9-25.4,18.6c-5.2,9.6-8.1,16.3-10.2,26.4C49.2,60.7,50,66,50,66L50,66z"/>
		<path class="st0" d="M43.7,50l6.2,0.5l-1.1,6.2L42.9,56L43.7,50z"/>
		<path class="st0" d="M53.5,36.8l1.7-4.7l-5.5-2.2l-1.8,5L53.5,36.8z"/>
		<path class="st0" d="M61.3,20.7l3.2-3.8l-4.2-2.8L57,17.8L61.3,20.7z"/>
		<path class="st0" d="M69.8,5.8l2.9,3.5l4-2.3l-2.9-3.2L69.8,5.8z"/>
		<path class="st0" d="M83.8,1.9l0.7,3.5l4.9-0.1L89,2.1L83.8,1.9z"/>
		<path class="st0" d="M100.5,5.6l-0.1,2.2l3.4,1.8l0.7-1.1L100.5,5.6z"/>
		<path class="st0" d="M99.7,14.8v1.8L103,17v-1.4L99.7,14.8z"/>
		<path class="st0" d="M89.4,16.4l1.6,2.9l2.3-1.8l-0.5-1.9L89.4,16.4z"/>
		<path class="st0" d="M84.5,20.1l2.4,3.6l-1.4,2.5L82,22.4L84.5,20.1z"/>
		<path class="st0" d="M79.7,30.1l-1.6,3.1l4.1,3.5l1-4L79.7,30.1z"/>
		<path class="st0" d="M78.1,41l-0.2,4.2l5,2.2l-0.2-4L78.1,41z"/>
		<path class="st0" d="M79.5,55.8l1.2,4.3l6.4,0.4l-2.3-4.7H79.5z"/>
	</g>
	<path class="st0" d="M54.7,109c0,0,0,0,0-0.3s0-0.3,0-0.8c0-0.8,0-1.8,0-2.9c0-3.1,0-6.6,0-10.4c0-10.8,0.1-21.6,0.1-31.7
		c0-5.2,0-9.8-0.1-16.2c-0.3-19.5-0.2-23.2,1.5-26.8c1.6-3.5,4.7-4.4,14.1-4.4h56.1l-0.9-0.9v64.8c0,2,0,3.7,0.1,6.6
		c0.2,11.1,0,14.3-1.8,17.2c-2.1,3.4-6.6,4.9-15.7,4.9c-5.1,0-11.2,0-18,0c-5.4,0-11.2,0-17.2-0.1c-4.8,0-9.3,0-13.6-0.1
		c-1.5,0-2.8,0-4,0c-0.4,0-0.6,0-1.1,0c-0.3,0-0.3,0-0.4,0L54.7,109L54.7,109z M52.8,109.9h0.9c0.1,0,0.1,0,0.4,0c0.4,0,0.7,0,1.1,0
		c1.2,0,2.5,0,4,0c4.3,0,8.8,0,13.6,0.1c5.9,0,11.7,0.1,17.2,0.1c6.8,0,12.8,0,18,0c9.7,0,14.8-1.7,17.3-5.8
		c2.1-3.4,2.3-6.6,2.1-18.2c-0.1-2.9-0.1-4.6-0.1-6.6V14.7v-0.9h-0.9H70.3c-10.1,0-13.7,1.1-15.8,5.5c-1,2.2-1.5,5.3-1.7,10
		c-0.1,3.6-0.1,5.7,0.1,17.6c0,6.3,0.1,10.9,0.1,16.1c0,10.1,0,20.9-0.1,31.7c0,3.8,0,7.3,0,10.4c0,1.1,0,2.1,0,2.9
		c0,0.5,0,0.5,0,0.8C52.8,109,52.8,109.9,52.8,109.9z"/>
</g>
<g>
	<g>
		<path class="st0" d="M555.7,205.8l-8.6,12l-0.8-3.1h-5.7c0,0,0.6,2.8,1,4.3c0.4,1.4,1.1,2.9,1.2,4.3c0,1.6-0.8,4.7-0.8,4.7h5.5
			c0,0,0.6-3,1.2-4.3c0.2-0.5,0.7-1,1-1.4c0.9-1.2,12.1-16.4,12.1-16.4L555.7,205.8z"/>
		<path class="st0" d="M544.2,209c-1.2-0.7-4.1-0.4-6.6-0.4h-3.8c-2.4,0-3.8-0.2-4,0.8c-0.7,2.9-3.9,18.6-3.9,18.6h5.1l3.3-14.5h2.7
			c3.2,0,9-0.1,9-0.1S545.4,209.7,544.2,209z"/>
		<path class="st0" d="M524.8,210.6c-1.1-1.5-3.2-2-4.7-2.2c-3.8-0.4-7,0.6-8.8,2c-0.5,0.4-1,0.7-1.4,1.2c-0.1,0.2-0.3,0.3-0.4,0.5
			s-0.2,0.3-0.4,0.4c-0.2,0.2-0.3,0.7-0.5,1.1c-0.2,0.3-0.3,0.7-0.4,1c-1.1,2.6-2.1,7.6-1.2,10.2c0.1,0.4,0.5,0.9,0.6,1
			c0.1,0.2,0.3,0.4,0.4,0.6c0.5,0.6,1.3,1,2.2,1.2c4.2,1,12.7,0.6,12.7,0.6l1-4.6c0,0-6,0.3-8.9-0.1c-0.4-0.1-1.6-0.1-2.2-0.7
			c-0.5-0.5-1.2-1.6-0.7-2.3c0.3-0.5,1.6-0.4,2.7-0.4c3.5-0.1,10,0,10,0s1.2-5.5,0.6-7.8C525.2,211.8,525.1,211,524.8,210.6z
			 M520.6,216.1H513c0,0-0.1-3.3,4.3-3.1c1.6,0,2.1,0.3,2.7,1.2C520.7,215.1,520.6,216.1,520.6,216.1z"/>
		<path class="st0" d="M502.1,208.6l-3.5,14.7c0,0-1.9,0-2.5,0c-1.9,0-2.5-0.1-2.9-1c-0.5-0.9,0-2.1,0.2-3.3c0.6-3.5,2-10.4,2-10.4
			h-5.1c0,0-1,4.5-1.4,6.6c-0.7,3.1-2,7.6-0.6,10.4c1.5,2.8,5,2.3,9,2.3h5.7c1.4-6.4,4.1-19.4,4.1-19.4L502.1,208.6z"/>
		<path class="st0" d="M485.8,210.7c-0.3-2.2-1.7-4.6-3.3-5.6c-0.1,0-0.3-0.3-0.4-0.3c-1.2-0.7-3-1.2-4.3-1.4
			c-6.7-0.7-10.6,2.3-12.9,6.3c-0.9,1.6-1.5,3.3-2,5.1c-0.5,2-0.9,4.4-0.6,6.6c0.2,1.3,0.9,3.2,2,4.3c2.6,2.7,7.7,2.3,13.1,2.3
			c1.7,0,5.7,0,6.9-0.1c0.4,0,1.5-4.6,1.4-4.7c-0.1-0.1-1.4,0-2.9-0.1C484.2,219.4,486.4,214.8,485.8,210.7z M479,218
			c-0.5,1.7-1,3.5-1.6,5.1c-4,0-7.6,0.5-8.8-2c-0.7-1.4-0.4-3.3,0-5.1c0.5-2.4,1-4.2,2.3-5.7c1.1-1.2,3.8-2.6,6.6-1.6
			c1,0.3,2.4,1.9,2.5,3.7C480.3,214.2,479.5,216.1,479,218z"/>
		<path class="st0" d="M455.3,213.3h5.5c0.3-1.5,0.7-3.2,1-4.7c-1.9,0-3.6,0-5.3,0C456.1,210,455.8,211.7,455.3,213.3z"/>
		<path class="st0" d="M453,223.6c-0.8,3.8-0.9,7.7-5.1,7.2c-0.4,1.5-0.9,3.4-1.4,5.1c1.7,0,3.3,0.2,4.7,0c0.9-0.1,2.4-0.5,2.7-0.8
			c0.1-0.1,0.2-0.1,0.4-0.2c1.8-1.4,2.3-3.4,2.9-6.1c1.1-4.3,2.4-10.5,3.1-14.3H455C454.9,215.5,453.5,221.5,453,223.6z"/>
	</g>
	<g>
		<path class="st0" d="M420.9,211.1l0.1-0.4c-0.1,0,0.5-0.9,0.4-0.9c-4.2,4.1-3.8,9.5-1.8,13.4c1.4,2.7,4,5.3,7,6.6
			c1.4,0.6,3.6,1.2,5.9,1.2c4.9-0.1,8.3-2.4,10.2-6.2l0.1-0.3c-1.7,1.7-4.5,2.9-6.6,3.1C427.1,228.7,417.8,220.6,420.9,211.1z"/>
		<path class="st0" d="M432.9,212.5c1.2,1.9,3.5,3.6,7,2.9c0.9-0.2,2.9-1.7,3.3-2.5c-3.1,2.1-4.9,1.4-5.8,1.1
			c-0.2-0.1-0.7-0.3-1.1-0.5c-0.9-0.6-1.4-0.8-2.2-1.9c-0.4-0.6-0.8-1.5-0.9-2.1c-0.2-0.9-0.2-2.2,0.3-3.4c-1.4,1.2-1.6,3.6-1.1,5.2
			C432.4,211.4,432.7,212.2,432.9,212.5z"/>
		<path class="st0" d="M433.8,222.7c4.8,0.6,8.3-1.4,9.6-4.5c-1.4,1.5-3.8,2.6-6.1,2.5c-5.1,0-10.8-4.6-10.2-10.9
			c0.1-0.5,0.3-1.4,0.9-2.5c-1.7,2.1-2.7,3.9-2.4,6.8C426,218.1,429.8,222.1,433.8,222.7z"/>
	</g>
</g>
<g>
	<g>
		<path class="st0" d="M443.2,49.6c0.6-0.5,0.9-1.2,0.9-2.1c0-1-0.3-1.8-0.8-2.2s-1.3-0.6-2.2-0.6h-5.8v5.6h5.8
			C441.9,50.4,442.6,50.1,443.2,49.6z"/>
		<path class="st0" d="M441.5,52.9h-6.3v6.4h6.3c1.1,0,1.9-0.3,2.5-0.8c0.6-0.6,0.9-1.4,0.9-2.4s-0.3-1.8-0.9-2.3
			C443.5,53.2,442.6,52.9,441.5,52.9z"/>
		<path class="st0" d="M451.3,34.2H428c-3.2,0-5.8,2.6-5.8,5.8v23.3c0,3.2,2.6,5.8,5.8,5.8h23.3c3.2,0,5.8-2.6,5.8-5.8V40
			C457.1,36.8,454.5,34.2,451.3,34.2z M448.1,58.8c-0.3,0.7-0.7,1.3-1.3,1.8c-0.6,0.5-1.4,0.9-2.3,1.2c-1,0.3-2.1,0.4-3.4,0.4h-9.4
			V41.8h9.9c1.8,0,3.3,0.4,4.4,1.3s1.7,2.1,1.7,3.8c0,1-0.3,1.9-0.8,2.6c-0.5,0.7-1.2,1.3-2.2,1.7v0.1c1.3,0.3,2.2,0.9,2.9,1.8
			c0.6,0.9,1,2.1,1,3.5C448.5,57.3,448.4,58.1,448.1,58.8z"/>
	</g>
	<g>
		<path class="st0" d="M464.8,59.4V43h6.2c1.3,0,2.3,0.2,3,0.5c0.8,0.3,1.4,0.8,1.8,1.5s0.6,1.4,0.6,2.2c0,0.7-0.2,1.4-0.6,2
			s-1,1.1-1.7,1.5c1,0.3,1.8,0.8,2.3,1.5s0.8,1.5,0.8,2.5c0,0.8-0.2,1.5-0.5,2.1c-0.3,0.7-0.7,1.2-1.2,1.5c-0.5,0.4-1.1,0.6-1.8,0.8
			c-0.7,0.2-1.6,0.3-2.6,0.3C471.1,59.4,464.8,59.4,464.8,59.4z M466.9,49.9h3.5c1,0,1.7-0.1,2.1-0.2c0.6-0.2,1-0.4,1.2-0.8
			c0.3-0.4,0.4-0.9,0.4-1.4s-0.1-1-0.4-1.4s-0.6-0.7-1.1-0.9s-1.3-0.2-2.5-0.2h-3.3L466.9,49.9L466.9,49.9z M466.9,57.5h4.1
			c0.7,0,1.2,0,1.5-0.1c0.5-0.1,0.9-0.2,1.3-0.4c0.3-0.2,0.6-0.5,0.8-0.9c0.2-0.4,0.3-0.9,0.3-1.4c0-0.6-0.2-1.1-0.5-1.6
			s-0.7-0.8-1.3-1c-0.6-0.2-1.4-0.3-2.4-0.3h-3.8V57.5z"/>
		<path class="st0" d="M479.1,53.5c0-2.2,0.6-3.8,1.8-4.9c1-0.9,2.3-1.3,3.7-1.3c1.6,0,3,0.5,4,1.6s1.6,2.5,1.6,4.4
			c0,1.5-0.2,2.7-0.7,3.6c-0.5,0.9-1.1,1.6-2,2c-0.9,0.5-1.8,0.7-2.9,0.7c-1.7,0-3-0.5-4-1.6C479.6,57,479.1,55.5,479.1,53.5z
			 M481.2,53.5c0,1.5,0.3,2.7,1,3.4c0.7,0.8,1.5,1.1,2.5,1.1s1.8-0.4,2.5-1.1c0.7-0.8,1-1.9,1-3.5c0-1.5-0.3-2.6-1-3.3
			c-0.7-0.8-1.5-1.1-2.5-1.1s-1.8,0.4-2.5,1.1S481.2,52,481.2,53.5z"/>
		<path class="st0" d="M491.9,53.5c0-2.2,0.6-3.8,1.8-4.9c1-0.9,2.3-1.3,3.7-1.3c1.6,0,3,0.5,4,1.6s1.6,2.5,1.6,4.4
			c0,1.5-0.2,2.7-0.7,3.6c-0.5,0.9-1.1,1.6-2,2c-0.9,0.5-1.8,0.7-2.9,0.7c-1.7,0-3-0.5-4-1.6C492.4,57,491.9,55.5,491.9,53.5z
			 M493.9,53.5c0,1.5,0.3,2.7,1,3.4c0.7,0.8,1.5,1.1,2.5,1.1s1.8-0.4,2.5-1.1c0.7-0.8,1-1.9,1-3.5c0-1.5-0.3-2.6-1-3.3
			c-0.7-0.8-1.5-1.1-2.5-1.1s-1.8,0.4-2.5,1.1C494.3,50.8,493.9,52,493.9,53.5z"/>
		<path class="st0" d="M509.8,57.6l0.3,1.8c-0.6,0.1-1.1,0.2-1.5,0.2c-0.7,0-1.3-0.1-1.7-0.3c-0.4-0.2-0.7-0.5-0.9-0.9
			c-0.2-0.4-0.2-1.2-0.2-2.4v-6.8h-1.5v-1.6h1.5v-2.9l2-1.2v4.2h2v1.6h-2V56c0,0.6,0,0.9,0.1,1.1c0.1,0.2,0.2,0.3,0.3,0.4
			c0.2,0.1,0.4,0.1,0.7,0.1C509.1,57.7,509.4,57.7,509.8,57.6z"/>
		<path class="st0" d="M510.9,55.9l2-0.3c0.1,0.8,0.4,1.4,0.9,1.8c0.5,0.4,1.2,0.6,2.1,0.6c0.9,0,1.6-0.2,2.1-0.6
			c0.4-0.4,0.7-0.8,0.7-1.3s-0.2-0.8-0.6-1.1c-0.3-0.2-1-0.4-2.1-0.7c-1.5-0.4-2.5-0.7-3.1-1s-1-0.6-1.3-1.1s-0.4-1-0.4-1.6
			c0-0.5,0.1-1,0.4-1.5c0.2-0.5,0.6-0.8,1-1.1c0.3-0.2,0.7-0.4,1.3-0.6c0.5-0.2,1.1-0.2,1.7-0.2c0.9,0,1.8,0.1,2.5,0.4
			c0.7,0.3,1.2,0.6,1.6,1.1s0.6,1.1,0.7,1.8l-2,0.3c-0.1-0.6-0.3-1.1-0.8-1.4c-0.4-0.3-1-0.5-1.8-0.5c-0.9,0-1.6,0.2-2,0.5
			s-0.6,0.7-0.6,1.1c0,0.3,0.1,0.5,0.2,0.7c0.2,0.2,0.4,0.4,0.8,0.5c0.2,0.1,0.8,0.2,1.8,0.5c1.4,0.4,2.4,0.7,3,0.9s1,0.6,1.3,1.1
			s0.5,1,0.5,1.7s-0.2,1.3-0.6,1.9c-0.4,0.6-1,1.1-1.7,1.4c-0.7,0.3-1.6,0.5-2.5,0.5c-1.5,0-2.7-0.3-3.5-1
			C511.7,58.1,511.2,57.1,510.9,55.9z"/>
		<path class="st0" d="M527.6,57.6l0.3,1.8c-0.6,0.1-1.1,0.2-1.5,0.2c-0.7,0-1.3-0.1-1.7-0.3s-0.7-0.5-0.9-0.9s-0.2-1.2-0.2-2.4
			v-6.8h-1.5v-1.6h1.5v-2.9l2-1.2v4.2h2v1.6h-2V56c0,0.6,0,0.9,0.1,1.1c0.1,0.2,0.2,0.3,0.3,0.4c0.2,0.1,0.4,0.1,0.7,0.1
			C526.9,57.7,527.2,57.7,527.6,57.6z"/>
		<path class="st0" d="M529.5,59.4V47.5h1.8v1.8c0.5-0.8,0.9-1.4,1.3-1.7c0.4-0.3,0.8-0.4,1.3-0.4c0.7,0,1.4,0.2,2.1,0.6l-0.7,1.9
			c-0.5-0.3-1-0.4-1.5-0.4c-0.4,0-0.8,0.1-1.2,0.4c-0.4,0.3-0.6,0.6-0.7,1.1c-0.2,0.7-0.3,1.5-0.3,2.3v6.2h-2.1V59.4z"/>
		<path class="st0" d="M544.9,58c-0.7,0.6-1.5,1.1-2.2,1.3s-1.4,0.4-2.2,0.4c-1.3,0-2.3-0.3-3-1c-0.7-0.6-1.1-1.5-1.1-2.4
			c0-0.6,0.1-1.1,0.4-1.6c0.3-0.5,0.6-0.9,1-1.2s0.9-0.5,1.4-0.7c0.4-0.1,1-0.2,1.8-0.3c1.6-0.2,2.8-0.4,3.6-0.7c0-0.3,0-0.5,0-0.5
			c0-0.8-0.2-1.4-0.6-1.7c-0.5-0.5-1.3-0.7-2.3-0.7c-0.9,0-1.6,0.2-2.1,0.5s-0.8,0.9-1,1.8l-2-0.3c0.2-0.8,0.5-1.5,0.9-2
			s1-0.9,1.8-1.2s1.7-0.4,2.7-0.4s1.8,0.1,2.5,0.4c0.6,0.2,1.1,0.5,1.4,0.9c0.3,0.4,0.5,0.8,0.6,1.4c0.1,0.3,0.1,1,0.1,1.9v2.7
			c0,1.9,0,3.1,0.1,3.6s0.3,1,0.5,1.4h-2.1C545.1,59,545,58.5,544.9,58z M544.8,53.5c-0.7,0.3-1.8,0.6-3.3,0.8
			c-0.8,0.1-1.4,0.3-1.8,0.4c-0.3,0.1-0.6,0.4-0.8,0.7s-0.3,0.6-0.3,1c0,0.5,0.2,1,0.6,1.3c0.4,0.4,1,0.5,1.8,0.5s1.5-0.2,2.1-0.5
			s1-0.8,1.3-1.4c0.2-0.5,0.3-1.1,0.3-2v-0.8H544.8z"/>
		<path class="st0" d="M549.9,64V47.5h1.8V49c0.4-0.6,0.9-1.1,1.5-1.4c0.5-0.3,1.2-0.5,2-0.5c1,0,1.9,0.3,2.7,0.8s1.4,1.3,1.8,2.2
			c0.4,1,0.6,2,0.6,3.1c0,1.2-0.2,2.3-0.7,3.3c-0.4,1-1.1,1.7-1.9,2.2c-0.8,0.5-1.7,0.8-2.6,0.8c-0.7,0-1.3-0.1-1.8-0.4
			c-0.5-0.3-1-0.6-1.3-1.1v6H549.9z M551.8,53.5c0,1.5,0.3,2.7,0.9,3.4c0.6,0.7,1.4,1.1,2.2,1.1c0.9,0,1.7-0.4,2.3-1.1
			c0.6-0.8,1-1.9,1-3.5c0-1.5-0.3-2.6-0.9-3.4c-0.6-0.8-1.4-1.1-2.2-1.1c-0.9,0-1.6,0.4-2.3,1.2C552.1,50.8,551.8,52,551.8,53.5z"/>
	</g>
</g>
<g>
	<g>
		<g transform="translate(150.000000, 31.000000)">
			<path class="st0" d="M105.8,196.3v-16h2.1l9.8,12.9v-12.9h2v16h-2.1l-9.8-13v13H105.8L105.8,196.3z"/>
			<path class="st0" d="M135.5,195.7c-1.3,0.5-2.7,0.7-4.2,0.7c-5.8,0-8.7-2.8-8.7-8.3c0-5.3,2.8-7.9,8.4-7.9c1.6,0,3.1,0.2,4.5,0.7
				v1.8c-1.4-0.5-2.8-0.8-4.2-0.8c-4.4,0-6.6,2.1-6.6,6.2c0,4.5,2.2,6.7,6.5,6.7c0.7,0,1.4-0.1,2.3-0.3v-5.4h2.1v6.6H135.5z"/>
			<path class="st0" d="M138.8,190.1v-9.8h2.1v9.8c0,3.1,1.5,4.6,4.6,4.6s4.6-1.6,4.6-4.6v-9.8h2.1v9.8c0,4.2-2.2,6.3-6.7,6.3
				C141.1,196.5,138.8,194.3,138.8,190.1L138.8,190.1L138.8,190.1z"/>
			<path class="st0" d="M157.9,180.3v14.3h8.4v1.7h-10.5v-16H157.9L157.9,180.3z"/>
			<path class="st0" d="M169.3,196.3h-2.2l8-18.1l8,18.1h-2.3l-2.1-5h-5.3l0.6-1.7h4l-3-7.2L169.3,196.3L169.3,196.3z"/>
			<path class="st0" d="M185.3,196.3v-16h6.8c3.1,0,4.6,1.3,4.6,3.8c0,2.1-1.5,3.6-4.5,4.6l5.5,7.6H195l-5.1-7.2v-1.3
				c3.1-0.5,4.6-1.7,4.6-3.5c0-1.5-0.8-2.2-2.5-2.2h-4.6v14.3h-2.1V196.3z"/>
		</g>
		<g>
			<g>
				<polygon class="st0" points="233.9,219.8 234.1,219.8 237.4,219.8 233.9,212.6 230.9,219.8 				"/>
				<path class="st0" d="M233.9,201.2l-16.4,5.9l2.5,21.7l13.9,7.7l14.1-7.8l2.7-21.7L233.9,201.2z M240.9,228l-2.2-5.2h-4.8h-4.3
					l-2.1,5.1l-3.8,0.1l10.2-22.7l10.7,22.8L240.9,228z"/>
			</g>
			<g class="st3">
				<polygon class="st4" points="234.1,219.8 237.4,219.8 233.9,212.6 233.9,212.7 233.9,219.8 233.9,219.8 				"/>
				<polygon class="st4" points="233.9,201.2 233.9,205.4 233.9,205.3 244.6,228.1 240.9,228 238.7,222.8 233.9,222.8 233.9,222.8 
					233.9,236.4 248,228.6 250.7,206.9 				"/>
			</g>
		</g>
	</g>
</g>
<g>
	<path class="st0" d="M908.5,205h7.7l2.1,6.9h6.5l-8.3-26.9h-8l-8.2,26.9h6.3L908.5,205z M912.2,189.5L912.2,189.5
		c0.5,1.6,3.1,10.9,3.1,10.9h-6C909.4,200.4,911.8,191.1,912.2,189.5z"/>
	<rect x="927.2" y="192.4" class="st0" width="6.1" height="19.5"/>
	<path class="st0" d="M930.2,190c2,0,3.3-1.4,3.3-3c0-1.8-1.3-3.1-3.2-3.1s-3.2,1.3-3.2,3.1C927,188.6,928.3,190,930.2,190z"/>
	<path class="st0" d="M889.5,170.5v54.7h54.7v-54.7H889.5z M940.9,221.8h-48v-48h48V221.8z"/>
</g>
<g>
	<path class="st0" d="M858.1,207.8c-1.8,0-4.2-0.8-5.3-1.5l-1.1,4.4c1.5,0.8,3.8,1.4,6.4,1.4c5.7,0,8.6-2.7,8.6-6.4
		c0-2.9-1.6-4.8-5.4-6.1c-2.4-0.9-3.2-1.3-3.2-2.3s0.8-1.6,2.3-1.6c1.7,0,3.4,0.7,4.3,1.1l1.1-4.3c-1.2-0.6-3.3-1.1-5.6-1.1
		c-4.9,0-8.1,2.8-8.1,6.5c0,2.4,1.5,4.6,5.7,6c2.3,0.8,2.9,1.3,2.9,2.3C860.7,207.1,859.9,207.8,858.1,207.8z"/>
	<path class="st0" d="M837.8,201.9c0.6,0.1,1.3,0.1,2.1,0.1c3.7,0,6.8-0.9,8.9-2.9c1.6-1.5,2.5-3.8,2.5-6.5s-1.2-5-2.9-6.3
		c-1.8-1.5-4.5-2.2-8.4-2.2c-3.8,0-6.5,0.2-8.4,0.6v27h6.1L837.8,201.9L837.8,201.9z M837.8,189c0.4-0.1,1.3-0.2,2.5-0.2
		c3.1,0,4.8,1.5,4.9,4c0,2.8-2,4.5-5.3,4.5c-0.9,0-1.5,0-2.1-0.2L837.8,189L837.8,189z"/>
	<path class="st0" d="M821.8,170.7v54.7h54.7v-54.7H821.8z M873.2,222h-48v-48h48V222z"/>
</g>
<g id="Page_1_3_">
	<g id="Layer_1_2_">
		<path id="Shape_35_" class="st0" d="M1053.8,154h-5.7l5.9,6.4v3h-12.1v-3.6h5.9l-5.9-6.4v-3h11.9L1053.8,154L1053.8,154z
			 M1039.5,154h-5.7l5.9,6.4v3h-12.1v-3.6h5.9l-5.9-6.4v-3h11.9L1039.5,154L1039.5,154z M1025.3,154.1h-6.1v5.6h6.1v3.7h-10.4v-13
			h10.4V154.1L1025.3,154.1z"/>
		<path class="st0" d="M1000.4,169.4l6.2,69.5l27.8,7.7l27.9-7.7l6.2-69.5H1000.4z M1055.6,185.3l-2.1,23.1l0,0v0.3v0.1L1052,225
			l-0.1,1.4l-17.5,4.8l0,0l0,0l-17.5-4.9l-1.2-13.4h3.9h4.6l0.6,6.8l9.5,2.6l0,0l0,0l9.5-2.6l1-11.1h-10.5l0,0h-9.4l0,0l-0.2-1.9
			l-0.4-4.3l-0.2-2.3h10.1l0,0h11.3l0.8-8.7h-12l0,0h-20.5l0,0l-0.2-1.9l-0.4-4.3l-0.2-2.3h21.3l0,0h21.4L1055.6,185.3z"/>
		<g>
			<polygon class="st2" points="1046.5,191.5 1034.5,191.5 1034.4,191.5 1034.4,200.2 1045.7,200.2 			"/>
			<polygon class="st2" points="1034.5,222.4 1034.5,222.4 1044,219.8 1045,208.8 1034.4,208.8 1034.4,222.4 			"/>
			<polygon class="st2" points="1034.4,175 1034.4,183 1034.5,183 1055.8,183 1055.6,185.3 1053.6,208.4 1053.6,208.4 1053.5,208.7 
				1053.5,208.8 1052.1,225 1052,226.4 1034.5,231.3 1034.5,231.3 1034.5,231.3 1034.4,231.3 1034.4,240.7 1057,234.5 1062.3,175 
							"/>
		</g>
	</g>
</g>
<g>
	<g>
		<path class="st0" d="M882.4,34.6h-35l6.6,71.2l28.4,8.1l28.4-8.1l6.6-71.2H882.4z M903.6,57.9h-0.9l0,0h-8.9h-0.3h-11h-12.1
			l0.6,8.9h7.8h3.7h20.4l-2.5,26.7l-17.9,5.1l-17.9-5.1L860,49.1h5.3h17.1h18.3h2.9V57.9z"/>
		<polygon class="st0" points="872.1,80 872.6,86.8 882.4,89.6 892,86.9 893,75.6 882.4,75.6 871.6,75.6 872,80 		"/>
	</g>
	<g>
		<polygon class="st0" points="875.6,24.1 869.4,24.1 869.4,28.6 875.6,28.6 878.9,28.6 880,28.6 880,15.3 875.6,15.3 		"/>
		<path class="st0" d="M895.4,15.3h-10.9c0,0,0,2.3,0,4.7c1.5,1.5,2.2,2.1,4.3,4.2c-1.2,0-4.3,0-4.3,0v4.2h10.9v-4.2l-4.3-4.3h4.3
			V15.3z"/>
	</g>
	<g>
		<polygon class="st5" points="893,75.6 882.4,75.6 882.4,89.6 892,86.9 		"/>
		<polygon class="st5" points="882.4,40.4 882.4,49.1 900.7,49.1 903.6,49.1 903.6,57.9 902.7,57.9 902.7,57.9 893.7,57.9 893.4,58 
			882.4,58 882.4,66.9 902.8,66.9 900.3,93.6 882.4,98.7 882.4,107.8 905.4,101.2 911,40.4 		"/>
	</g>
</g>
</svg>
