<?xml version="1.0" encoding="utf-8"?>
<!-- Generator: Adobe Illustrator 20.0.0, SVG Export Plug-In . SVG Version: 6.00 Build 0)  -->
<svg version="1.1" id="Layer_1" xmlns="http://www.w3.org/2000/svg" xmlns:xlink="http://www.w3.org/1999/xlink" x="0px" y="0px"
	 viewBox="0 0 366.6 260" style="enable-background:new 0 0 366.6 260;" xml:space="preserve">
<style type="text/css">
	.st0{fill:#FFFFFF;}
	.st1{opacity:0.68;}
	.st2{fill:#E0E0DF;}
	.st3{fill:#F2F2F2;}
</style>
<g id="Page_1_6_">
	<g id="Group_3_">
		<path class="st0" d="M240.3,34.7l6.2,69.5l27.8,7.7l27.9-7.7l6.2-69.5C308.4,34.7,240.3,34.7,240.3,34.7z M295.5,51.2l-0.4,4.3
			l-0.2,1.9l0,0h-20.5l0,0h-12l0.8,8.7h11.3l0,0H292h2.3l-0.2,2.3l-2,22.5l-0.1,1.4l-17.5,4.8l0,0l0,0L257,92.2l-1.2-13.4h3.9h4.6
			l0.6,6.8l9.5,2.6l0,0l0,0l9.5-2.6l1-11.1h-10.5l0,0h-19.1L253.2,51l-0.2-2.3h21.4l0,0h21.3L295.5,51.2z"/>
		<path id="Shape_10_" class="st0" d="M246.6,15.8h4.3v4.3h4v-4.3h4.3v13h-4.3v-4.4h-4v4.3h-4.3V15.8L246.6,15.8z"/>
		<path id="Shape_9_" class="st0" d="M264.9,20.1h-3.8v-4.3h12v4.3h-3.8v8.7H265L264.9,20.1L264.9,20.1L264.9,20.1z"/>
		<path id="Shape_8_" class="st0" d="M275,15.8h4.5l2.8,4.6l2.8-4.6h4.5v13h-4.3v-6.4l-3,4.6h-0.1l-3-4.6v6.4H275L275,15.8L275,15.8
			z"/>
		<path id="Shape_7_" class="st0" d="M291.8,15.8h4.3v8.7h6.1v4.3h-10.4V15.8L291.8,15.8z"/>
		<g class="st1">
			<polygon class="st2" points="284.8,74.7 274.3,74.7 274.3,88.3 283.8,85.8 			"/>
			<polygon class="st2" points="274.3,40.4 274.3,48.9 295.7,48.9 295.5,51.2 295.1,55.5 294.9,57.4 294.9,57.4 274.3,57.4 
				274.3,66.2 291.8,66.2 294.1,66.2 293.9,68.5 291.9,90.9 291.8,92.4 274.3,97.2 274.3,97.2 274.3,106.1 296.9,99.8 302.2,40.4 
							"/>
		</g>
	</g>
</g>
<g id="Page_1_5_">
	<g id="Layer_1_3_">
		<path id="Shape_6_" class="st0" d="M293.7,154.4H288l5.9,6.4v3h-12.1v-3.6h5.9l-5.9-6.4v-3h11.9L293.7,154.4L293.7,154.4z
			 M279.4,154.4h-5.7l5.9,6.4v3h-12.1v-3.6h5.9l-5.9-6.4v-3h11.9L279.4,154.4L279.4,154.4z M265.2,154.5h-6.1v5.6h6.1v3.7h-10.4v-13
			h10.4V154.5L265.2,154.5z"/>
		<path class="st0" d="M240.3,169.8l6.2,69.5l27.8,7.7l27.9-7.7l6.2-69.5H240.3z M295.5,185.7l-2.1,23.1l0,0v0.3v0.1l-1.5,16.2
			l-0.1,1.4l-17.5,4.8l0,0l0,0l-17.5-4.9l-1.2-13.4h3.9h4.6l0.6,6.8l9.5,2.6l0,0l0,0l9.5-2.6l1-11.1h-10.5l0,0h-9.4l0,0l-0.2-1.9
			l-0.4-4.3l-0.2-2.3h10.1l0,0h11.3l0.8-8.7h-12l0,0h-20.5l0,0l-0.2-1.9l-0.4-4.3l-0.2-2.3h21.3l0,0h21.4L295.5,185.7z"/>
		<g>
			<polygon class="st2" points="286.4,191.9 274.4,191.9 274.3,191.9 274.3,200.6 285.6,200.6 			"/>
			<polygon class="st2" points="274.4,222.8 274.4,222.8 283.9,220.2 284.9,209.2 274.3,209.2 274.3,222.8 			"/>
			<polygon class="st2" points="274.3,175.4 274.3,183.4 274.4,183.4 295.7,183.4 295.5,185.7 293.5,208.8 293.5,208.8 293.4,209.1 
				293.4,209.2 292,225.4 291.9,226.8 274.4,231.7 274.4,231.7 274.4,231.7 274.3,231.7 274.3,241.1 296.9,234.9 302.2,175.4 			"/>
		</g>
	</g>
</g>
<g>
	<g>
		<path class="st0" d="M116.7,205.4h7.7l2.1,6.9h6.5l-8.3-26.9h-8l-8.2,26.9h6.3L116.7,205.4z M120.4,189.9L120.4,189.9
			c0.5,1.6,3.1,10.9,3.1,10.9h-6C117.6,200.8,120,191.5,120.4,189.9z"/>
		<rect x="135.4" y="192.8" class="st0" width="6.1" height="19.5"/>
		<path class="st0" d="M138.4,190.4c2,0,3.3-1.4,3.3-3c0-1.8-1.3-3.1-3.2-3.1s-3.2,1.3-3.2,3.1C135.2,189,136.5,190.4,138.4,190.4z"
			/>
		<path class="st0" d="M97.7,170.9v54.7h54.7v-54.7H97.7z M149.1,222.2h-48v-48h48V222.2z"/>
	</g>
	<g>
		<path class="st0" d="M66.3,208.2c-1.8,0-4.2-0.8-5.3-1.5l-1.1,4.4c1.5,0.8,3.8,1.4,6.4,1.4c5.7,0,8.6-2.7,8.6-6.4
			c0-2.9-1.6-4.8-5.4-6.1c-2.4-0.9-3.2-1.3-3.2-2.3s0.8-1.6,2.3-1.6c1.7,0,3.4,0.7,4.3,1.1l1.1-4.3c-1.2-0.6-3.3-1.1-5.6-1.1
			c-4.9,0-8.1,2.8-8.1,6.5c0,2.4,1.5,4.6,5.7,6c2.3,0.8,2.9,1.3,2.9,2.3C68.9,207.5,68.1,208.2,66.3,208.2z"/>
		<path class="st0" d="M46,202.3c0.6,0.1,1.3,0.1,2.1,0.1c3.7,0,6.8-0.9,8.9-2.9c1.6-1.5,2.5-3.8,2.5-6.5s-1.2-5-2.9-6.3
			c-1.8-1.5-4.5-2.2-8.4-2.2c-3.8,0-6.5,0.2-8.4,0.6v27h6.1L46,202.3L46,202.3z M46,189.4c0.4-0.1,1.3-0.2,2.5-0.2
			c3.1,0,4.8,1.5,4.9,4c0,2.8-2,4.5-5.3,4.5c-0.9,0-1.5,0-2.1-0.2L46,189.4L46,189.4z"/>
		<path class="st0" d="M30,171.1v54.7h54.7v-54.7H30z M81.4,222.4h-48v-48h48V222.4z"/>
	</g>
</g>
<g>
	<g>
		<path class="st0" d="M91.2,35h-35l6.6,71.2l28.4,8.1l28.4-8.1l6.6-71.2H91.2z M112.4,58.3h-0.9l0,0h-8.9h-0.3h-11H79.2l0.6,8.9
			h7.8h3.7h20.4l-2.5,26.7L91.3,99l-17.9-5.1l-4.6-44.4h5.3h17.1h18.3h2.9V58.3z"/>
		<polygon class="st0" points="80.9,80.4 81.4,87.2 91.2,90 100.8,87.3 101.8,76 91.2,76 80.4,76 80.8,80.4 		"/>
	</g>
	<g>
		<polygon class="st0" points="84.4,24.5 78.2,24.5 78.2,29 84.4,29 87.7,29 88.8,29 88.8,15.7 84.4,15.7 		"/>
		<path class="st0" d="M104.2,15.7H93.3c0,0,0,2.3,0,4.7c1.5,1.5,2.2,2.1,4.3,4.2c-1.2,0-4.3,0-4.3,0v4.2h10.9v-4.2l-4.3-4.3h4.3
			V15.7z"/>
	</g>
	<g>
		<polygon class="st3" points="101.8,76 91.2,76 91.2,90 100.8,87.3 		"/>
		<polygon class="st3" points="91.2,40.8 91.2,49.5 109.5,49.5 112.4,49.5 112.4,58.3 111.5,58.3 111.5,58.3 102.5,58.3 102.2,58.4 
			91.2,58.4 91.2,67.3 111.6,67.3 109.1,94 91.2,99.1 91.2,108.2 114.2,101.6 119.8,40.8 		"/>
	</g>
</g>
</svg>
