<?xml version="1.0" encoding="utf-8"?>
<!-- Generator: Adobe Illustrator 20.0.0, SVG Export Plug-In . SVG Version: 6.00 Build 0)  -->
<svg version="1.1" id="Layer_1" xmlns="http://www.w3.org/2000/svg" xmlns:xlink="http://www.w3.org/1999/xlink" x="0px" y="0px"
	 viewBox="0 0 550 260" style="enable-background:new 0 0 550 260;" xml:space="preserve">
<style type="text/css">
	.st0{fill:#FFFFFF;}
	.st1{opacity:0.35;}
	.st2{fill:#A3A2A3;}
</style>
<g>
	<g>
		<path class="st0" d="M108.4,154.4c1.5-0.8,3.3-0.9,4.9-0.9c1.8,0,3.8,0.2,5.2,1.3c0.9,0.7,1.3,1.9,1.3,3c-0.6,0-1.1,0-1.7,0
			c-0.2-1.1-0.7-2.3-1.8-2.7c-1.9-0.7-4.1-0.7-6.1-0.1c-1.6,0.4-2.2,2.7-0.9,3.8c0.9,0.7,2,0.8,3.1,1c2.1,0.5,4.4,0.5,6.4,1.5
			c2.1,1.1,2.1,4.5,0.2,5.8c-1.6,1.1-3.5,1.2-5.4,1.2c-2,0-4.2-0.2-5.8-1.5c-1-0.8-1.4-2.2-1.4-3.5c0.6,0,1.2,0,1.8,0
			c0.1,1.3,0.8,2.7,2.1,3.3c2.1,0.8,4.5,0.8,6.7,0.2c1.5-0.4,2.1-2.3,1.4-3.6c-0.3-0.6-1-0.9-1.6-1.1c-2.6-0.7-5.4-0.7-7.9-1.7
			C106.3,159.4,106.3,155.6,108.4,154.4z"/>
		<g>
			<path class="st0" d="M124.7,154.5c2-1,4.3-1.2,6.5-1c2.1,0.2,4.2,0.9,5.6,2.5c1.8,1.9,2.1,4.7,1.4,7.1c-0.4,1.3-1.3,2.4-2.3,3.3
				c0.8,0.6,1.6,1.1,2.4,1.7c-0.4,0.3-0.7,0.7-1.1,1c-0.8-0.5-1.6-1.2-2.5-1.7c-0.7,0-1.3,0.4-2,0.5c-1.9,0.3-3.8,0.4-5.7,0
				c-2-0.4-4-1.6-5.1-3.4c-1.1-1.8-1.2-4-0.7-6C121.7,156.9,123,155.4,124.7,154.5z M127.4,154.9c-1.9,0.5-3.8,1.8-4.4,3.8
				c-0.7,2.1-0.4,4.6,1.1,6.3c1.3,1.5,3.4,2.2,5.4,2.2c2.2,0.1,4.6-0.6,6-2.3c2-2.5,1.7-6.8-0.9-8.8
				C132.6,154.5,129.8,154.3,127.4,154.9z"/>
		</g>
		<path class="st0" d="M139.7,153.8c0.6,0,1.1,0,1.7,0c0,4.3,0,8.6,0,13c3.5,0.1,7,0,10.5,0c0,0.4,0,0.8,0,1.2c-4.1,0-8.1,0-12.2,0
			C139.7,163.2,139.7,158.5,139.7,153.8z"/>
		<path class="st0" d="M96.9,183c3.8-0.8,8-0.7,11.6,0.7c2.6,1,4.8,2.7,6.5,4.8c0.8,1,0.9,2.4,1,3.6c0,3-0.6,5.9-1.3,8.8
			c-1.5,5.3-3.7,10.4-6.5,15.2c-0.3,0.5-0.6,0.9-0.9,1.3c0-0.1-0.1-0.4-0.1-0.5c0.3-0.9,0.9-1.8,1.1-2.7c0.7-2.7,0.1-5.6-0.1-8.3
			c-0.3-2.6,0.6-5.1,0.6-7.7c0.1-1.3-0.4-2.5-0.9-3.6c-1.8-4-4.6-7.5-8.2-9.9C98.8,184,97.8,183.6,96.9,183z"/>
		<path class="st0" d="M86.2,183.3c4.7-0.6,9.7,0.7,13.4,3.7c3.1,2.4,5.5,5.8,6.9,9.5c-2.2-0.1-4.7-0.2-6.5,1.4
			c-1.6,1.4-1.8,3.7-1.5,5.6c0.8,4.6,3.6,8.6,5.6,12.7c0.5,1,1.3,1.8,1.9,2.7c-0.8,0.4-1.7,0.8-2.2,1.6c-0.8,1.3-0.5,2.9-0.7,4.3
			c-0.5,4.1-0.9,8.1-1.6,12.2c-0.3,1.9-1.1,4-3,5s-4,1.5-6.2,1.2c-2-0.4-3.3-2.2-3.8-4c-0.4-1.5-0.5-3.1-0.6-4.7
			c-0.2-3.8-0.2-7.6-0.1-11.4c0.1-1.5-0.7-3-2-3.7c-0.6-0.4-1.4-0.4-2.1-0.5c0.6-2.8,2.3-5.2,2.8-8c0.8-3.4,0.3-7-0.4-10.4
			c-0.4-1.7-1.7-3.2-3.4-3.6c-2.6-0.7-5.3,0.4-7.7,1.5c0.3-3.8,1.3-7.8,3.7-10.9C80.7,185.2,83.4,183.7,86.2,183.3z"/>
		<path class="st0" d="M66.1,183.6c4.2-0.8,8.5,0,12.5,1.3c-1.8,2-3.2,4.3-4,6.8c-1.1,3.4-1.6,7-1.3,10.5c0.2,2.5,0.1,5-0.3,7.5
			c-0.4,3.2,0.9,6.6,3.3,8.7c-1.6,1.9-3.4,3.7-4.9,5.7c-0.7,0.8-1.6,1.8-2.8,1.6c-1.4-0.4-2.3-1.7-3.1-2.8
			c-2.1-3.4-3.4-7.1-4.5-10.9c-1.3-4.4-2.4-9-3-13.6c-0.3-3.5-0.1-7.2,1.7-10.4C61,185.6,63.5,184.1,66.1,183.6z"/>
		<g>
			<path class="st0" d="M101.4,199.2c1.5-1.1,3.6-0.9,5.4-0.7c-0.1,2.5-0.8,4.9-0.6,7.4c0.2,3.1,1.1,6.4-0.3,9.3
				c-1.9-3.9-4.5-7.6-5.3-11.9C100.3,201.9,100.2,200.1,101.4,199.2z M102,199.8c-0.5,0.4,0,1.1,0.5,1.3c1.1,0.6,2.5-0.3,2.6-1.5
				C104.1,199.1,102.9,199.1,102,199.8z"/>
		</g>
		<g>
			<path class="st0" d="M75.2,200.8c1.9-1.3,4.2-2.2,6.6-2.1c1.2,0.1,2.3,0.9,2.6,2.1c1.1,4.2,1.4,9-0.6,13
				c-0.7,1.6-1.3,3.2-1.8,4.8c-3.4,0-6.3-2.8-6.9-6.1c-0.4-1.8,0.1-3.7,0.2-5.5C75.4,204.9,75.3,202.9,75.2,200.8z M80.7,199.8
				c-0.3,0.1-0.6,0.3-0.5,0.7c0.2,1.2,1.9,2,2.9,1.2c0.5-0.3,0.9-1,0.4-1.4C82.7,199.7,81.6,199.6,80.7,199.8z"/>
		</g>
		<path class="st0" d="M105.8,221.2c0.5-0.4,1.2-0.7,1.8-0.3c2.5,1.3,5.3,0.7,8,0.3c-1.6,1.6-3.8,2.3-6,2.5c-1.4,0.2-3,0.2-4.4-0.3
			C105.3,222.7,105.2,221.8,105.8,221.2z"/>
		<path class="st0" d="M80.9,224.2c1.4-0.8,2-2.4,3.3-3.3c1.4-0.2,2.5,1.9,1.4,3c-2.1,2.9-6.4,3.4-9.5,1.9
			C77.7,225,79.5,225.1,80.9,224.2z"/>
	</g>
	<g>
		<g>
			<path class="st0" d="M31.5,153.8c2.6,0,5.3,0,7.9,0c1.2,0,2.6,0.2,3.5,1.1c1.3,1.1,1.5,3.1,1,4.6c-0.7,1.7-2.5,2.4-4.2,2.5
				c-2.3,0-4.5,0-6.8,0c0,2,0,4,0,6c-0.5,0-0.9,0-1.4,0C31.5,163.3,31.5,158.6,31.5,153.8z M32.9,155c0,2,0,3.9,0,5.9
				c2.1,0,4.2,0,6.3,0c1.2,0,2.5-0.4,3-1.6c0.4-1.1,0.3-2.4-0.4-3.3c-0.7-0.8-1.9-1-2.9-1C36.9,155,34.9,155,32.9,155z"/>
		</g>
		<path class="st0" d="M69.2,155.7c0.5,0,1,0,1.5,0c0,1,0,2,0,3c0.8,0,1.7,0,2.5,0c0,0.3,0,0.7,0,1c-0.8,0-1.7,0-2.5,0
			c0,2,0,4,0,5.9c0,0.5,0,1,0.4,1.3c0.6,0.3,1.4,0.2,2.1,0.2c0,0.3,0,0.6,0,0.9c-1.1,0.1-2.2,0.2-3.2-0.3c-0.6-0.3-0.8-1-0.8-1.6
			c0-2.1,0-4.3,0-6.4c-0.6,0-1.2,0-1.9,0c0-0.3,0-0.6,0-1c0.6,0,1.2,0,1.8,0C69.2,157.7,69.2,156.7,69.2,155.7z"/>
		<g>
			<path class="st0" d="M47.9,158.5c1.8-0.3,3.9-0.2,5.5,0.7c2.5,1.4,2.8,5.2,1.1,7.3c-1.5,1.7-3.9,1.9-6,1.7
				c-1.7-0.1-3.4-0.9-4.2-2.5c-0.7-1.4-0.7-3.2-0.1-4.7C44.9,159.6,46.4,158.8,47.9,158.5z M48.7,159.5c-1.4,0.2-2.7,1-3.1,2.4
				c-0.5,1.5-0.3,3.4,0.9,4.5c1,0.9,2.3,1.1,3.6,1c1.1,0,2.3-0.3,3.2-1.2s1-2.2,0.9-3.4c-0.1-1-0.6-2.1-1.5-2.6
				C51.4,159.4,50,159.3,48.7,159.5z"/>
		</g>
		<path class="st0" d="M57.6,159.2c1-0.6,2.1-0.7,3.2-0.8c1.6,0,3.3,0,4.6,0.9c0.8,0.5,1,1.4,1.1,2.2c-0.5,0-1,0-1.5,0
			c-0.1-0.7-0.4-1.4-1.1-1.7c-1.2-0.6-2.7-0.5-4-0.3c-0.8,0.1-1.8,0.6-1.9,1.5c-0.1,0.7,0.6,1.2,1.1,1.3c1.8,0.4,3.6,0.4,5.4,0.8
			c0.8,0.2,1.6,0.5,2.1,1.2c0.6,1,0.2,2.5-0.8,3.2c-1.3,0.8-2.8,0.8-4.3,0.8c-1.4-0.1-3-0.1-4.2-0.9c-0.7-0.5-1-1.4-1.1-2.3
			c0.5,0,1.1,0,1.6,0c0,1.1,1,2,2.1,2.1c1.6,0.2,3.3,0.4,4.8-0.4c1-0.5,0.9-2.2-0.2-2.5c-2.2-0.6-4.6-0.4-6.7-1.2
			C56.3,162.4,56.3,160.1,57.6,159.2z"/>
		<g>
			<path class="st0" d="M77.6,158.6c1.5-0.3,3.1-0.4,4.6,0.1c0.8,0.2,1.4,0.9,2.1,1.5c0-0.5,0-1,0.1-1.5c0.5,0,0.9,0,1.4,0
				c0.1,2.9,0,5.7,0.1,8.6c0,1.2-0.2,2.5-1.1,3.3c-1.2,1.1-2.9,1.3-4.5,1.3c-1.4,0-2.9-0.1-4.1-0.7c-0.9-0.5-1.3-1.4-1.5-2.3
				c0.5,0,0.9,0,1.4,0c0.3,0.6,0.5,1.4,1.2,1.7c1,0.5,2.1,0.5,3.2,0.5c1.2,0,2.6-0.3,3.3-1.3c0.7-1,0.6-2.3,0.6-3.5
				c-1.5,1.5-3.8,1.8-5.8,1.6c-1.3-0.1-2.6-0.6-3.4-1.6c-1-1.2-1.1-3-0.8-4.5C74.6,160,76,159,77.6,158.6z M78.8,159.5
				c-1,0.2-2.1,0.7-2.7,1.6c-0.7,1.1-0.7,2.5-0.2,3.7s1.8,1.8,3,2c1.6,0.2,3.4,0,4.5-1.2c1.3-1.5,1.1-4.2-0.6-5.4
				C81.7,159.4,80.1,159.3,78.8,159.5z"/>
		</g>
		<path class="st0" d="M90.2,158.8c1.1-0.5,2.2-0.4,3.4-0.4c0,0.4,0,0.8,0,1.2c-1.2,0-2.4-0.2-3.4,0.6c-1,0.7-1.3,1.9-1.3,3
			c0,1.6,0,3.2,0,4.8c-0.5,0-1,0-1.4,0c0-3.1-0.1-6.2,0-9.3c0.5,0,1,0,1.4,0c0,0.5,0,1.1,0,1.6C89.1,159.7,89.5,159.1,90.2,158.8z"
			/>
		<g>
			<path class="st0" d="M94,160.7c1-1.6,2.9-2.2,4.6-2.3c1.8-0.1,3.8,0.2,5.2,1.5c1,0.9,1.3,2.3,1.4,3.7c-3.4,0-6.9,0-10.3,0
				c0.1,0.9,0.4,1.9,1.1,2.5c1.3,1.2,3.4,1.3,5.1,1c1.1-0.2,2-1.1,2.4-2.2c0.5,0,1.1,0,1.6,0c-0.5,1.6-1.8,2.7-3.4,3.1
				c-2.1,0.5-4.6,0.4-6.4-0.9C93.2,165.7,92.8,162.7,94,160.7z M96.6,159.9c-1,0.5-1.5,1.7-1.8,2.8c2.9,0,5.9,0,8.8,0
				c-0.1-0.7-0.3-1.3-0.8-1.9C101.4,159.1,98.6,158.9,96.6,159.9z"/>
		</g>
		<g>
			<path class="st0" d="M93.6,179.9c4.1-1.1,8.5-1.5,12.7-0.7c3.8,0.7,7.5,2.5,10.2,5.2c1.2,1.2,2.5,2.6,2.9,4.3
				c0.8,3,0.5,6.1,0,9.1c-1.3,7.2-4.1,14-7.7,20.2c1.6,0,3.2-0.5,4.8-0.6c1.6-0.1,3.3,0.9,3.7,2.5c0.5,1.7-0.6,3.4-1.9,4.4
				c-3.2,2.8-7.6,3.8-11.8,3.5c-0.3,4.3-0.3,8.8-2.2,12.8c-0.8,1.8-2.1,3.4-3.8,4.4c-1.6,1-3.5,1.5-5.3,1.8c-2,0.4-4.2,0.2-6-1
				c-1.6-1-2.6-2.7-3.2-4.5c-1.4-3.7-1.3-7.8-1.5-11.7c-2.8,1.1-6.1,1.1-8.9,0.1c-1-0.4-1.9-1-2.7-1.7c-1.5,1.2-3.5,1.9-5.4,1.3
				c-2.4-0.7-4.1-2.7-5.4-4.7c-2.2-3.6-3.6-7.7-4.8-11.8c-1.4-4.7-2.5-9.5-3.1-14.3c-0.3-4.3,0-8.9,2.4-12.7
				c1.9-3.1,5.2-5.1,8.7-5.8c5-1,10.1,0,14.9,1.5c1.5-0.7,3.1-1.5,4.8-1.7C87.8,179.2,90.7,179.5,93.6,179.9z M93.6,181.8
				c-0.4,0.1-0.7-0.1-1.1-0.1c-4.1-0.8-8.6-0.5-12.1,1.9c-4.2-1.5-8.8-2.4-13.3-2c-3.4,0.3-6.7,1.9-8.6,4.8
				c-2.4,3.6-2.8,8.1-2.4,12.3c0.8,5.5,2.1,11,3.9,16.3c1.1,3.3,2.4,6.7,4.4,9.6c1,1.4,2.4,2.9,4.2,3.1c1.6,0.2,3.1-0.8,4.1-2
				c1.7-2.1,3.5-4.1,5.3-6.1c1.2,0.6,2.5,0.9,3.8,1c-0.7,0.9-1.3,2-2.5,2.3c-1.5,0.6-3.4,0.5-4.7,1.5c-0.8,0.6-0.8,1.8-0.1,2.4
				c1.3,1.2,3.2,1.5,4.9,1.7c2.4,0.2,4.9-0.6,6.7-2.2c0,3.8,0,7.7,0.4,11.5c0.2,2.2,1.2,4.5,2.9,6c1.6,1.4,3.9,1.7,5.9,1.3
				s4-1,5.6-2.3c1.7-1.5,2.4-3.7,2.7-5.8c0.6-3.8,1-7.6,1.5-11.4c4.3,0.7,9.1-0.1,12.3-3.2c0.7-0.6,1.3-1.8,0.7-2.6
				c-0.7-0.8-1.9-0.6-2.8-0.4c-2.2,0.4-4.6,0.8-6.7-0.1c3.8-6,6.8-12.5,8.4-19.4c0.6-2.6,1.1-5.3,1-8c-0.1-1.5-0.3-3.1-1.2-4.4
				c-2.3-3-5.6-5.2-9.2-6.2C102.9,180.1,98.1,180.4,93.6,181.8z"/>
		</g>
	</g>
</g>
<g>
	<g transform="translate(26.592321, 248.822656)">
		<path class="st0" d="M35.7-161.5v14.2h3.6v-3.7l3.3,3.3h5.5l-4.4-4.4c0,0,3.2-0.1,3.4-4.6c0-4.2-3.2-4.7-6.8-4.7h-4.6V-161.5z
			 M39.5-157.7h3.1v2.5h-3.1V-157.7L39.5-157.7z"/>
		<path class="st0" d="M55.1-161.5c-2,0-4.7,0.2-4.7,3.9v9.8h3.7v-2.4h3.6v2.3h3.7v-10.3c0-3.2-3.6-3.4-5.5-3.4
			C55.7-161.5,55.4-161.5,55.1-161.5L55.1-161.5z M54.2-157.9h3.4v3.9h-3.5L54.2-157.9L54.2-157.9z"/>
		<rect x="65.1" y="-161.4" class="st0" width="3.8" height="13.5"/>
		<path class="st0" d="M73-161.3v13.5h9.2v-3.6h-5.5v-10L73-161.3z"/>
		<path class="st0" d="M94.4-161.4v3.7h-6.2v1.3h2.6c1.4,0,4.3-0.1,4.3,4.3s-2,4.6-6,4.6h-4.9v-3.3h5.6c1.7,0,1.8-0.5,1.8-1
			s-0.9-0.7-2.6-0.7s-5-0.9-5-4.2s1.7-4.6,5-4.6S94.4-161.4,94.4-161.4L94.4-161.4z"/>
	</g>
	<g transform="translate(14.055544, 16.892288)">
		<path class="st0" d="M51.6,66.4h31.9c0,0-7.1-16.1-5.3-30.8c1.8-14.7,13.4-21.4,20-22.2c6.6-0.7,10.2,3.4,10.2,3.4l1.4-2.2
			c0,0-9.5-9.6-21.5-8.5s-20.3,9-25.4,18.6c-5.2,9.6-8.1,16.3-10.2,26.4C50.8,61.1,51.6,66.4,51.6,66.4L51.6,66.4z"/>
		<path class="st0" d="M45.3,50.4l6.2,0.5l-1.1,6.2l-5.9-0.7L45.3,50.4z"/>
		<path class="st0" d="M55.1,37.2l1.7-4.7l-5.5-2.2l-1.8,5L55.1,37.2z"/>
		<path class="st0" d="M62.9,21.1l3.2-3.8l-4.2-2.8l-3.3,3.7L62.9,21.1z"/>
		<path class="st0" d="M71.4,6.2l2.9,3.5l4-2.3l-2.9-3.2L71.4,6.2z"/>
		<path class="st0" d="M85.4,2.3l0.7,3.5L91,5.7l-0.4-3.2L85.4,2.3z"/>
		<path class="st0" d="M102.1,6L102,8.2l3.4,1.8l0.7-1.1L102.1,6z"/>
		<path class="st0" d="M101.3,15.2V17l3.3,0.4V16L101.3,15.2z"/>
		<path class="st0" d="M91,16.8l1.6,2.9l2.3-1.8L94.4,16L91,16.8z"/>
		<path class="st0" d="M86.1,20.5l2.4,3.6l-1.4,2.5l-3.5-3.8L86.1,20.5z"/>
		<path class="st0" d="M81.3,30.5l-1.6,3.1l4.1,3.5l1-4L81.3,30.5z"/>
		<path class="st0" d="M79.7,41.4l-0.2,4.2l5,2.2l-0.2-4L79.7,41.4z"/>
		<path class="st0" d="M81.1,56.2l1.2,4.3l6.4,0.4l-2.3-4.7H81.1z"/>
	</g>
	<path class="st0" d="M56.3,109.4c0,0,0,0,0-0.3s0-0.3,0-0.8c0-0.8,0-1.8,0-2.9c0-3.1,0-6.6,0-10.4c0-10.8,0.1-21.6,0.1-31.7
		c0-5.2,0-9.8-0.1-16.2c-0.3-19.5-0.2-23.2,1.5-26.8c1.6-3.5,4.7-4.4,14.1-4.4H128l-0.9-0.9v64.8c0,2,0,3.7,0.1,6.6
		c0.2,11.1,0,14.3-1.8,17.2c-2.1,3.4-6.6,4.9-15.7,4.9c-5.1,0-11.2,0-18,0c-5.4,0-11.2,0-17.2-0.1c-4.8,0-9.3,0-13.6-0.1
		c-1.5,0-2.8,0-4,0c-0.4,0-0.6,0-1.1,0c-0.3,0-0.3,0-0.4,0L56.3,109.4L56.3,109.4z M54.4,110.3h0.9c0.1,0,0.1,0,0.4,0
		c0.4,0,0.7,0,1.1,0c1.2,0,2.5,0,4,0c4.3,0,8.8,0,13.6,0.1c5.9,0,11.7,0.1,17.2,0.1c6.8,0,12.8,0,18,0c9.7,0,14.8-1.7,17.3-5.8
		c2.1-3.4,2.3-6.6,2.1-18.2c-0.1-2.9-0.1-4.6-0.1-6.6V15.1v-0.9H128H71.9c-10.1,0-13.7,1.1-15.8,5.5c-1,2.2-1.5,5.3-1.7,10
		c-0.1,3.6-0.1,5.7,0.1,17.6c0,6.3,0.1,10.9,0.1,16.1c0,10.1,0,20.9-0.1,31.7c0,3.8,0,7.3,0,10.4c0,1.1,0,2.1,0,2.9
		c0,0.5,0,0.5,0,0.8C54.4,109.4,54.4,110.3,54.4,110.3z"/>
</g>
<g>
	<path class="st0" d="M494.2,140.4c-3.5,0-6.5,0.9-9,2.1c-0.9-1.8-1.8-3.5-2-4.7c-0.2-1.4-0.4-2.2-0.2-3.9s1.2-4,1.2-4.2
		s-0.2-1-2.2-1.1c-2,0-3.7,0.4-3.9,0.9c-0.2,0.5-0.6,1.7-0.8,3c-0.3,1.8-4,8.3-6.1,11.7c-0.7-1.3-1.3-2.5-1.4-3.4
		c-0.2-1.4-0.4-2.2-0.2-3.9c0.2-1.7,1.2-4,1.2-4.2s-0.2-1-2.2-1.1s-3.7,0.4-3.9,0.9c-0.2,0.5-0.4,1.8-0.8,3s-5.3,12-6.5,14.8
		c-0.7,1.4-1.2,2.6-1.6,3.4l0,0c0,0,0,0.1-0.1,0.1c-0.3,0.7-0.5,1-0.5,1l0,0c-0.3,0.5-0.6,0.9-0.7,0.9s-0.3-1.3,0-3.1
		c0.7-3.8,2.4-9.6,2.4-9.8c0-0.1,0.3-1.1-1.1-1.6s-1.9,0.3-2,0.3s-0.2,0.3-0.2,0.3s1.6-6.6-3-6.6c-2.9,0-6.8,3.1-8.8,6
		c-1.2,0.7-3.9,2.1-6.7,3.6c-1.1,0.6-2.2,1.2-3.2,1.8c-0.1-0.1-0.1-0.2-0.2-0.2c-5.5-5.9-15.8-10.1-15.4-18.1
		c0.2-2.9,1.2-10.5,19.7-19.8c15.3-7.5,27.4-5.4,29.5-0.8c3,6.6-6.5,18.9-22.3,20.6c-6,0.7-9.2-1.6-10-2.5s-1-1-1.3-0.8
		c-0.5,0.3-0.2,1.1,0,1.6c0.5,1.2,2.4,3.4,5.7,4.5c2.9,0.9,10,1.5,18.5-1.8c9.6-3.7,17-14,14.8-22.6c-2.2-8.7-16.7-11.6-30.4-6.7
		c-8.2,2.9-17,7.5-23.4,13.4c-7.6,7.1-8.8,13.2-8.3,15.8c1.8,9.1,14.4,15.1,19.4,19.5c-0.3,0.1-0.5,0.3-0.7,0.4
		c-2.5,1.3-12.1,6.3-14.5,11.6c-2.7,6,0.4,10.3,2.5,10.9c6.5,1.8,13.1-1.4,16.7-6.8c3.6-5.3,3.1-12.3,1.5-15.4c0,0,0-0.1-0.1-0.1
		c0.7-0.4,1.3-0.8,2-1.2c1.3-0.8,2.6-1.5,3.6-2c-0.6,1.7-1.1,3.7-1.3,6.6c-0.3,3.4,1.1,7.8,3,9.6c0.8,0.8,1.8,0.8,2.4,0.8
		c2.1,0,3.1-1.8,4.2-3.9c1.3-2.6,2.5-5.6,2.5-5.6s-1.5,8.1,2.5,8.1c1.5,0,2.9-1.9,3.6-2.8l0,0c0,0,0-0.1,0.1-0.2
		c0.1-0.2,0.2-0.4,0.2-0.4l0,0c0.6-1,1.9-3.3,3.8-7.1c2.5-4.9,4.9-11.1,4.9-11.1s0.2,1.5,1,4c0.4,1.5,1.3,3.1,2.1,4.6
		c-0.6,0.8-0.9,1.3-0.9,1.3l0,0c-0.5,0.6-1,1.3-1.5,1.9c-2,2.4-4.3,5.1-4.7,5.8c-0.4,0.9-0.3,1.6,0.4,2.1c0.5,0.4,1.5,0.5,2.4,0.4
		c1.8-0.1,3-0.6,3.6-0.8c1-0.3,2.1-0.9,3.1-1.6c1.9-1.4,3.1-3.5,3-6.2c-0.1-1.5-0.5-3-1.1-4.4c0.2-0.3,0.3-0.5,0.5-0.8
		c3.1-4.5,5.4-9.4,5.4-9.4s0.2,1.5,1,4c0.4,1.3,1.1,2.6,1.8,4c-2.9,2.3-4.7,5.1-5.3,6.8c-1.1,3.3-0.3,4.8,1.4,5.1
		c0.8,0.2,1.8-0.2,2.6-0.5c1-0.3,2.2-0.9,3.4-1.7c1.9-1.4,3.8-3.4,3.7-6.1c-0.1-1.2-0.4-2.4-0.8-3.6c2.4-1,5.6-1.6,9.6-1.1
		c8.6,1,10.3,6.4,10,8.7s-2.1,3.5-2.7,3.9s-0.8,0.5-0.7,0.8c0.1,0.4,0.4,0.4,0.9,0.3c0.7-0.1,4.5-1.8,4.7-6
		C508.2,146.2,503.1,140.3,494.2,140.4L494.2,140.4z M427.6,162.8c-2.9,3.1-6.9,4.3-8.6,3.3c-1.8-1.1-1.1-5.7,2.4-9
		c2.1-2,4.9-3.9,6.7-5c0.4-0.3,1-0.6,1.8-1.1c0.1-0.1,0.2-0.1,0.2-0.1l0,0c0.1-0.1,0.3-0.2,0.4-0.3
		C431.9,155.4,430.6,159.6,427.6,162.8L427.6,162.8z M448.5,148.7c-1,2.4-3.1,8.6-4.4,8.3c-1.1-0.3-1.8-5-0.2-9.7
		c0.8-2.3,2.4-5.1,3.4-6.2c1.6-1.7,3.3-2.3,3.7-1.6C451.5,140.4,449.1,147.1,448.5,148.7L448.5,148.7z M465.7,156.9
		c-0.4,0.2-0.8,0.4-1,0.3c-0.1-0.1,0.2-0.4,0.2-0.4s2.2-2.3,3-3.4c0.5-0.6,1.1-1.3,1.7-2.2v0.2C469.5,154.3,466.9,156.1,465.7,156.9
		L465.7,156.9z M478.9,153.9c-0.3-0.2-0.3-0.9,0.8-3.2c0.4-0.9,1.3-2.4,3-3.8c0.2,0.6,0.3,1.1,0.3,1.7
		C482.9,152,480.4,153.3,478.9,153.9L478.9,153.9z"/>
</g>
<g>
	<g>
		<path class="st0" d="M524.1,206.2l-8.6,12l-0.8-3.1H509c0,0,0.6,2.8,1,4.3c0.4,1.4,1.1,2.9,1.2,4.3c0,1.6-0.8,4.7-0.8,4.7h5.5
			c0,0,0.6-3,1.2-4.3c0.2-0.5,0.7-1,1-1.4c0.9-1.2,12.1-16.4,12.1-16.4L524.1,206.2z"/>
		<path class="st0" d="M512.6,209.4c-1.2-0.7-4.1-0.4-6.6-0.4h-3.8c-2.4,0-3.8-0.2-4,0.8c-0.7,2.9-3.9,18.6-3.9,18.6h5.1l3.3-14.5
			h2.7c3.2,0,9-0.1,9-0.1S513.8,210.1,512.6,209.4z"/>
		<path class="st0" d="M493.2,211c-1.1-1.5-3.2-2-4.7-2.2c-3.8-0.4-7,0.6-8.8,2c-0.5,0.4-1,0.7-1.4,1.2c-0.1,0.2-0.3,0.3-0.4,0.5
			s-0.2,0.3-0.4,0.4c-0.2,0.2-0.3,0.7-0.5,1.1c-0.2,0.3-0.3,0.7-0.4,1c-1.1,2.6-2.1,7.6-1.2,10.2c0.1,0.4,0.5,0.9,0.6,1
			c0.1,0.2,0.3,0.4,0.4,0.6c0.5,0.6,1.3,1,2.2,1.2c4.2,1,12.7,0.6,12.7,0.6l1-4.6c0,0-6,0.3-8.9-0.1c-0.4-0.1-1.6-0.1-2.2-0.7
			c-0.5-0.5-1.2-1.6-0.7-2.3c0.3-0.5,1.6-0.4,2.7-0.4c3.5-0.1,10,0,10,0s1.2-5.5,0.6-7.8C493.6,212.2,493.5,211.4,493.2,211z
			 M489,216.5h-7.6c0,0-0.1-3.3,4.3-3.1c1.6,0,2.1,0.3,2.7,1.2C489.1,215.5,489,216.5,489,216.5z"/>
		<path class="st0" d="M470.5,209l-3.5,14.7c0,0-1.9,0-2.5,0c-1.9,0-2.5-0.1-2.9-1c-0.5-0.9,0-2.1,0.2-3.3c0.6-3.5,2-10.4,2-10.4
			h-5.1c0,0-1,4.5-1.4,6.6c-0.7,3.1-2,7.6-0.6,10.4c1.5,2.8,5,2.3,9,2.3h5.7c1.4-6.4,4.1-19.4,4.1-19.4L470.5,209z"/>
		<path class="st0" d="M454.2,211.1c-0.3-2.2-1.7-4.6-3.3-5.6c-0.1,0-0.3-0.3-0.4-0.3c-1.2-0.7-3-1.2-4.3-1.4
			c-6.7-0.7-10.6,2.3-12.9,6.3c-0.9,1.6-1.5,3.3-2,5.1c-0.5,2-0.9,4.4-0.6,6.6c0.2,1.3,0.9,3.2,2,4.3c2.6,2.7,7.7,2.3,13.1,2.3
			c1.7,0,5.7,0,6.9-0.1c0.4,0,1.5-4.6,1.4-4.7c-0.1-0.1-1.4,0-2.9-0.1C452.6,219.8,454.8,215.2,454.2,211.1z M447.4,218.4
			c-0.5,1.7-1,3.5-1.6,5.1c-4,0-7.6,0.5-8.8-2c-0.7-1.4-0.4-3.3,0-5.1c0.5-2.4,1-4.2,2.3-5.7c1.1-1.2,3.8-2.6,6.6-1.6
			c1,0.3,2.4,1.9,2.5,3.7C448.7,214.6,447.9,216.5,447.4,218.4z"/>
		<path class="st0" d="M423.7,213.7h5.5c0.3-1.5,0.7-3.2,1-4.7c-1.9,0-3.6,0-5.3,0C424.5,210.4,424.2,212.1,423.7,213.7z"/>
		<path class="st0" d="M421.4,224c-0.8,3.8-0.9,7.7-5.1,7.2c-0.4,1.5-0.9,3.4-1.4,5.1c1.7,0,3.3,0.2,4.7,0c0.9-0.1,2.4-0.5,2.7-0.8
			c0.1-0.1,0.2-0.1,0.4-0.2c1.8-1.4,2.3-3.4,2.9-6.1c1.1-4.3,2.4-10.5,3.1-14.3h-5.3C423.3,215.9,421.9,221.9,421.4,224z"/>
	</g>
	<g>
		<path class="st0" d="M389.3,211.5l0.1-0.4c-0.1,0,0.5-0.9,0.4-0.9c-4.2,4.1-3.8,9.5-1.8,13.4c1.4,2.7,4,5.3,7,6.6
			c1.4,0.6,3.6,1.2,5.9,1.2c4.9-0.1,8.3-2.4,10.2-6.2l0.1-0.3c-1.7,1.7-4.5,2.9-6.6,3.1C395.5,229.1,386.2,221,389.3,211.5z"/>
		<path class="st0" d="M401.3,212.9c1.2,1.9,3.5,3.6,7,2.9c0.9-0.2,2.9-1.7,3.3-2.5c-3.1,2.1-4.9,1.4-5.8,1.1
			c-0.2-0.1-0.7-0.3-1.1-0.5c-0.9-0.6-1.4-0.8-2.2-1.9c-0.4-0.6-0.8-1.5-0.9-2.1c-0.2-0.9-0.2-2.2,0.3-3.4c-1.4,1.2-1.6,3.6-1.1,5.2
			C400.8,211.8,401.1,212.6,401.3,212.9z"/>
		<path class="st0" d="M402.2,223.1c4.8,0.6,8.3-1.4,9.6-4.5c-1.4,1.5-3.8,2.6-6.1,2.5c-5.1,0-10.8-4.6-10.2-10.9
			c0.1-0.5,0.3-1.4,0.9-2.5c-1.7,2.1-2.7,3.9-2.4,6.8C394.4,218.5,398.2,222.5,402.2,223.1z"/>
	</g>
</g>
<g>
	<g>
		<path class="st0" d="M410.3,50c0.6-0.5,0.9-1.2,0.9-2.1c0-1-0.3-1.8-0.8-2.2s-1.3-0.6-2.2-0.6h-5.8v5.6h5.8
			C409,50.8,409.7,50.5,410.3,50z"/>
		<path class="st0" d="M408.6,53.3h-6.3v6.4h6.3c1.1,0,1.9-0.3,2.5-0.8c0.6-0.6,0.9-1.4,0.9-2.4s-0.3-1.8-0.9-2.3
			C410.6,53.6,409.7,53.3,408.6,53.3z"/>
		<path class="st0" d="M418.4,34.6h-23.3c-3.2,0-5.8,2.6-5.8,5.8v23.3c0,3.2,2.6,5.8,5.8,5.8h23.3c3.2,0,5.8-2.6,5.8-5.8V40.4
			C424.2,37.2,421.6,34.6,418.4,34.6z M415.2,59.2c-0.3,0.7-0.7,1.3-1.3,1.8c-0.6,0.5-1.4,0.9-2.3,1.2c-1,0.3-2.1,0.4-3.4,0.4h-9.4
			V42.2h9.9c1.8,0,3.3,0.4,4.4,1.3s1.7,2.1,1.7,3.8c0,1-0.3,1.9-0.8,2.6c-0.5,0.7-1.2,1.3-2.2,1.7v0.1c1.3,0.3,2.2,0.9,2.9,1.8
			c0.6,0.9,1,2.1,1,3.5C415.6,57.7,415.5,58.5,415.2,59.2z"/>
	</g>
	<g>
		<path class="st0" d="M431.9,59.8V43.4h6.2c1.3,0,2.3,0.2,3,0.5c0.8,0.3,1.4,0.8,1.8,1.5s0.6,1.4,0.6,2.2c0,0.7-0.2,1.4-0.6,2
			s-1,1.1-1.7,1.5c1,0.3,1.8,0.8,2.3,1.5s0.8,1.5,0.8,2.5c0,0.8-0.2,1.5-0.5,2.1c-0.3,0.7-0.7,1.2-1.2,1.5c-0.5,0.4-1.1,0.6-1.8,0.8
			c-0.7,0.2-1.6,0.3-2.6,0.3C438.2,59.8,431.9,59.8,431.9,59.8z M434,50.3h3.5c1,0,1.7-0.1,2.1-0.2c0.6-0.2,1-0.4,1.2-0.8
			c0.3-0.4,0.4-0.9,0.4-1.4s-0.1-1-0.4-1.4s-0.6-0.7-1.1-0.9s-1.3-0.2-2.5-0.2h-3.3L434,50.3L434,50.3z M434,57.9h4.1
			c0.7,0,1.2,0,1.5-0.1c0.5-0.1,0.9-0.2,1.3-0.4c0.3-0.2,0.6-0.5,0.8-0.9c0.2-0.4,0.3-0.9,0.3-1.4c0-0.6-0.2-1.1-0.5-1.6
			s-0.7-0.8-1.3-1c-0.6-0.2-1.4-0.3-2.4-0.3H434V57.9z"/>
		<path class="st0" d="M446.2,53.9c0-2.2,0.6-3.8,1.8-4.9c1-0.9,2.3-1.3,3.7-1.3c1.6,0,3,0.5,4,1.6s1.6,2.5,1.6,4.4
			c0,1.5-0.2,2.7-0.7,3.6c-0.5,0.9-1.1,1.6-2,2c-0.9,0.5-1.8,0.7-2.9,0.7c-1.7,0-3-0.5-4-1.6C446.7,57.4,446.2,55.9,446.2,53.9z
			 M448.3,53.9c0,1.5,0.3,2.7,1,3.4c0.7,0.8,1.5,1.1,2.5,1.1s1.8-0.4,2.5-1.1c0.7-0.8,1-1.9,1-3.5c0-1.5-0.3-2.6-1-3.3
			c-0.7-0.8-1.5-1.1-2.5-1.1s-1.8,0.4-2.5,1.1S448.3,52.4,448.3,53.9z"/>
		<path class="st0" d="M459,53.9c0-2.2,0.6-3.8,1.8-4.9c1-0.9,2.3-1.3,3.7-1.3c1.6,0,3,0.5,4,1.6s1.6,2.5,1.6,4.4
			c0,1.5-0.2,2.7-0.7,3.6c-0.5,0.9-1.1,1.6-2,2c-0.9,0.5-1.8,0.7-2.9,0.7c-1.7,0-3-0.5-4-1.6C459.5,57.4,459,55.9,459,53.9z
			 M461,53.9c0,1.5,0.3,2.7,1,3.4c0.7,0.8,1.5,1.1,2.5,1.1s1.8-0.4,2.5-1.1c0.7-0.8,1-1.9,1-3.5c0-1.5-0.3-2.6-1-3.3
			c-0.7-0.8-1.5-1.1-2.5-1.1s-1.8,0.4-2.5,1.1C461.4,51.2,461,52.4,461,53.9z"/>
		<path class="st0" d="M476.9,58l0.3,1.8c-0.6,0.1-1.1,0.2-1.5,0.2c-0.7,0-1.3-0.1-1.7-0.3c-0.4-0.2-0.7-0.5-0.9-0.9
			c-0.2-0.4-0.2-1.2-0.2-2.4v-6.8h-1.5V48h1.5v-2.9l2-1.2v4.2h2v1.6h-2v6.7c0,0.6,0,0.9,0.1,1.1c0.1,0.2,0.2,0.3,0.3,0.4
			c0.2,0.1,0.4,0.1,0.7,0.1C476.2,58.1,476.5,58.1,476.9,58z"/>
		<path class="st0" d="M478,56.3l2-0.3c0.1,0.8,0.4,1.4,0.9,1.8c0.5,0.4,1.2,0.6,2.1,0.6c0.9,0,1.6-0.2,2.1-0.6
			c0.4-0.4,0.7-0.8,0.7-1.3s-0.2-0.8-0.6-1.1c-0.3-0.2-1-0.4-2.1-0.7c-1.5-0.4-2.5-0.7-3.1-1s-1-0.6-1.3-1.1s-0.4-1-0.4-1.6
			c0-0.5,0.1-1,0.4-1.5c0.2-0.5,0.6-0.8,1-1.1c0.3-0.2,0.7-0.4,1.3-0.6c0.5-0.2,1.1-0.2,1.7-0.2c0.9,0,1.8,0.1,2.5,0.4
			c0.7,0.3,1.2,0.6,1.6,1.1s0.6,1.1,0.7,1.8l-2,0.3c-0.1-0.6-0.3-1.1-0.8-1.4c-0.4-0.3-1-0.5-1.8-0.5c-0.9,0-1.6,0.2-2,0.5
			s-0.6,0.7-0.6,1.1c0,0.3,0.1,0.5,0.2,0.7c0.2,0.2,0.4,0.4,0.8,0.5c0.2,0.1,0.8,0.2,1.8,0.5c1.4,0.4,2.4,0.7,3,0.9s1,0.6,1.3,1.1
			s0.5,1,0.5,1.7s-0.2,1.3-0.6,1.9c-0.4,0.6-1,1.1-1.7,1.4c-0.7,0.3-1.6,0.5-2.5,0.5c-1.5,0-2.7-0.3-3.5-1
			C478.8,58.5,478.3,57.5,478,56.3z"/>
		<path class="st0" d="M494.7,58l0.3,1.8c-0.6,0.1-1.1,0.2-1.5,0.2c-0.7,0-1.3-0.1-1.7-0.3s-0.7-0.5-0.9-0.9s-0.2-1.2-0.2-2.4v-6.8
			h-1.5V48h1.5v-2.9l2-1.2v4.2h2v1.6h-2v6.7c0,0.6,0,0.9,0.1,1.1c0.1,0.2,0.2,0.3,0.3,0.4c0.2,0.1,0.4,0.1,0.7,0.1
			C494,58.1,494.3,58.1,494.7,58z"/>
		<path class="st0" d="M496.6,59.8V47.9h1.8v1.8c0.5-0.8,0.9-1.4,1.3-1.7c0.4-0.3,0.8-0.4,1.3-0.4c0.7,0,1.4,0.2,2.1,0.6l-0.7,1.9
			c-0.5-0.3-1-0.4-1.5-0.4c-0.4,0-0.8,0.1-1.2,0.4c-0.4,0.3-0.6,0.6-0.7,1.1c-0.2,0.7-0.3,1.5-0.3,2.3v6.2h-2.1L496.6,59.8
			L496.6,59.8z"/>
		<path class="st0" d="M512,58.4c-0.7,0.6-1.5,1.1-2.2,1.3s-1.4,0.4-2.2,0.4c-1.3,0-2.3-0.3-3-1c-0.7-0.6-1.1-1.5-1.1-2.4
			c0-0.6,0.1-1.1,0.4-1.6c0.3-0.5,0.6-0.9,1-1.2s0.9-0.5,1.4-0.7c0.4-0.1,1-0.2,1.8-0.3c1.6-0.2,2.8-0.4,3.6-0.7c0-0.3,0-0.5,0-0.5
			c0-0.8-0.2-1.4-0.6-1.7c-0.5-0.5-1.3-0.7-2.3-0.7c-0.9,0-1.6,0.2-2.1,0.5s-0.8,0.9-1,1.8l-2-0.3c0.2-0.8,0.5-1.5,0.9-2
			s1-0.9,1.8-1.2s1.7-0.4,2.7-0.4s1.8,0.1,2.5,0.4c0.6,0.2,1.1,0.5,1.4,0.9c0.3,0.4,0.5,0.8,0.6,1.4c0.1,0.3,0.1,1,0.1,1.9V55
			c0,1.9,0,3.1,0.1,3.6s0.3,1,0.5,1.4h-2.1C512.2,59.4,512.1,58.9,512,58.4z M511.9,53.9c-0.7,0.3-1.8,0.6-3.3,0.8
			c-0.8,0.1-1.4,0.3-1.8,0.4c-0.3,0.1-0.6,0.4-0.8,0.7s-0.3,0.6-0.3,1c0,0.5,0.2,1,0.6,1.3c0.4,0.4,1,0.5,1.8,0.5s1.5-0.2,2.1-0.5
			s1-0.8,1.3-1.4c0.2-0.5,0.3-1.1,0.3-2v-0.8H511.9z"/>
		<path class="st0" d="M517,64.4V47.9h1.8v1.5c0.4-0.6,0.9-1.1,1.5-1.4c0.5-0.3,1.2-0.5,2-0.5c1,0,1.9,0.3,2.7,0.8s1.4,1.3,1.8,2.2
			c0.4,1,0.6,2,0.6,3.1c0,1.2-0.2,2.3-0.7,3.3c-0.4,1-1.1,1.7-1.9,2.2c-0.8,0.5-1.7,0.8-2.6,0.8c-0.7,0-1.3-0.1-1.8-0.4
			c-0.5-0.3-1-0.6-1.3-1.1v6C519.1,64.4,517,64.4,517,64.4z M518.9,53.9c0,1.5,0.3,2.7,0.9,3.4c0.6,0.7,1.4,1.1,2.2,1.1
			c0.9,0,1.7-0.4,2.3-1.1c0.6-0.8,1-1.9,1-3.5c0-1.5-0.3-2.6-0.9-3.4c-0.6-0.8-1.4-1.1-2.2-1.1c-0.9,0-1.6,0.4-2.3,1.2
			C519.2,51.2,518.9,52.4,518.9,53.9z"/>
	</g>
</g>
<g>
	<path class="st0" d="M252.2,67.2c0-4,0-7.9,0-11.9c0-4.6,0-9.2,0-13.8c0-0.6,0.2-0.8,0.8-0.8c0.7,0,0.8,0.2,0.8,0.8
		c0,1.1,0,2.1,0,3.2c0.2,0.1,0.2-0.1,0.3-0.2c1.3-2.6,3.4-4,6.3-4.2c3.4-0.2,6.1,1,7.8,4c2.1,3.9,2.1,7.9,0.4,11.9
		c-1.1,2.5-3.2,3.9-5.9,4.3c-2.7,0.3-5.4,0.1-7.4-2.1c-0.5-0.5-0.8-1.1-1.3-1.9c0,3.7,0,7.2,0,10.7
		C253.2,67.2,252.7,67.2,252.2,67.2z M253.7,50.7c-0.1,0.7,0.1,1.6,0.2,2.5c0.6,3.6,2.6,5.6,5.9,6s6.2-1.1,7.4-4.2
		c1.3-3.2,1.2-6.4-0.3-9.4c-1.3-2.8-3.7-4-6.8-3.8c-2.7,0.2-4.9,1.9-5.8,4.6C253.9,47.7,253.7,49.1,253.7,50.7z"/>
	<path class="st0" d="M214.8,48.9c0.4-0.7,0.4-1.4,0.6-2.1c1.7-5.9,8.5-8.4,13.2-4.8c2.8,2.1,3.5,5.1,3.5,8.4c0,0.6-0.4,0.5-0.8,0.5
		c-4.7,0-9.3,0-14,0c-0.8,0-1.1,0.1-1,1c0.2,1.7,0.6,3.4,1.7,4.8c1.7,2.2,4,2.9,6.7,2.6c2.8-0.4,4.5-2.1,5.4-4.6
		c0.1-0.3,0-0.9,0.6-0.9c1.1-0.2,1.2,0,0.9,1c-1.2,4.2-4.1,6.2-9,6c-3.7-0.1-6.6-2.8-7.5-6.7c-0.1-0.5-0.1-1-0.4-1.4
		c0-0.3,0-0.6,0-0.9c0.3-0.6,0.3-1.1,0-1.7C214.8,49.5,214.8,49.2,214.8,48.9z M223.5,49.4c2.1,0,4.3,0,6.4,0c0.3,0,0.7,0.2,0.6-0.4
		c-0.2-2.8-1.5-6-4.9-7c-4.4-1.3-8.7,1.5-9.2,7c0,0.6,0.4,0.4,0.6,0.4C219.1,49.4,221.2,49.4,223.5,49.4z"/>
	<path class="st0" d="M335.4,56.6c-1.1,2.5-3.2,3.6-5.8,3.9c-2.9,0.3-5.7,0.1-8-2.2c-1.1-1.1-1.6-2.5-1.7-4c0-0.3-0.1-0.7,0.3-0.6
		c0.4,0.1,1-0.4,1.2,0.4c1.3,4.8,6.6,6.8,10.8,4.1c2.4-1.6,2.3-4.7-0.2-6.1c-1.5-0.8-3.2-1.1-4.9-1.4c-1.7-0.3-3.3-0.8-4.8-1.7
		c-2.2-1.4-2.3-5.6-0.1-7.2c0.7-0.5,1.3-0.9,2.1-1.1c2.2-0.6,4.4-0.6,6.5,0c2.4,0.7,4.1,3,4,5.3c0,0.4-0.2,0.6-0.5,0.5
		s-0.9,0.3-0.9-0.4c-0.1-3.1-2.4-4.2-4.7-4.4c-1.5-0.1-2.9-0.1-4.3,0.5s-2.3,1.5-2.3,3.2c0,1.6,1,2.5,2.3,3c1.9,0.8,4,1,5.9,1.5
		c0.2,0,0.4,0.1,0.5,0.1c2.2,0.5,3.9,1.6,4.5,3.9C335.4,54.9,335.4,55.7,335.4,56.6z"/>
	<path class="st0" d="M214.8,49.8c0.3,0.6,0.3,1.1,0,1.7C214.8,50.9,214.8,50.4,214.8,49.8z"/>
	<path class="st0" d="M291.2,50.8c-2.4,0-4.7,0-7.1,0c-0.6,0-0.8,0.1-0.7,0.8c0.1,1,0.2,1.9,0.5,2.9c1,3.1,3.4,4.8,6.7,4.8
		c3.3,0,5.5-1.6,6.6-4.8c0.1-0.3,0-0.8,0.7-0.8c1,0,1.1,0,0.8,1c-1,3.7-3.7,5.9-7.4,6c-4.5,0.1-7.5-1.7-8.7-5.5
		c-1-3.1-1-6.2,0.2-9.2c1.5-3.9,4.6-5.8,8.9-5.5c3.5,0.2,6.3,2.9,7.1,6.7c0.2,1,0.3,1.9,0.3,2.9c0,0.7-0.2,0.9-0.8,0.8
		C296,50.7,293.7,50.8,291.2,50.8z M290.6,49.4c2.1,0,4.3,0,6.4,0c0.2,0,0.7,0.2,0.6-0.4c-0.2-2.6-1.3-5.7-4.5-6.9
		c-4.5-1.7-9.7,2.1-9.6,6.9c0,0.6,0.3,0.4,0.6,0.4C286.2,49.4,288.4,49.4,290.6,49.4z"/>
	<path class="st0" d="M310.4,60.6c-2.9,0-5.1-0.5-6.8-2.1c-1.1-1.1-1.7-2.5-1.8-4c0-0.3-0.2-0.7,0.4-0.6c0.4,0.1,1-0.4,1.1,0.4
		c0.4,3.3,3.4,5.4,7.4,5c1.2-0.1,2.3-0.3,3.3-1c2.5-1.5,2.4-4.8-0.2-6.1c-1.5-0.8-3.1-1.1-4.8-1.4c-1.7-0.3-3.4-0.8-4.9-1.8
		c-2.1-1.4-2.3-5.6-0.1-7.2c1-0.7,2-1.1,3.2-1.3c1.8-0.3,3.6-0.3,5.4,0.2c2.4,0.7,4.1,2.9,4,5.2c0,0.3,0,0.7-0.5,0.6
		c-0.4-0.1-0.9,0.3-1-0.4c-0.6-3-1.8-4.1-4.8-4.4c-1.5-0.2-3,0-4.4,0.7c-1.2,0.6-2,1.6-2,3c0,1.5,0.9,2.4,2.1,2.9
		c2,0.9,4.1,1,6.2,1.6c0.6,0.2,1.2,0.3,1.8,0.6c1.9,0.7,3,2.1,3.2,4.1c0.2,2.3-0.8,3.9-2.8,5C313,60.4,311.4,60.6,310.4,60.6z"/>
	<path class="st0" d="M249.2,40.8c-2.1,2.8-4.2,5.6-6.3,8.3c-0.5,0.6-0.5,1,0,1.7c2.4,3.1,4.7,6.2,7,9.3c-1.3,0.3-2.1,0.1-2.9-1.1
		c-1.8-2.7-3.7-5.2-5.7-7.9c-1.1,1.5-2.3,3-3.4,4.5c-0.8,1.1-1.7,2.1-2.4,3.3c-0.7,1-1.4,1.6-2.7,1.2c0-0.3,0.3-0.5,0.4-0.7
		c2.2-2.9,4.4-5.9,6.6-8.8c0.4-0.5,0.4-0.8,0-1.3c-2.2-2.8-4.3-5.6-6.5-8.5c1.4-0.4,1.9-0.3,2.8,0.9c1.7,2.3,3.5,4.6,5.3,7
		c1.2-1.6,2.3-3.1,3.4-4.5c0.6-0.8,1.3-1.5,1.7-2.4C247.1,40.8,247.9,40.5,249.2,40.8z"/>
	<path class="st0" d="M274.2,44.9c1.6-2.9,4-4.1,6.9-4.2c0.5,0,0.7,0.1,0.6,0.6c-0.1,0.4,0.2,0.9-0.6,0.9c-3.7-0.2-7,3-7,7.2
		c0,3.3,0,6.7,0,10c0,0.7-0.2,0.8-0.8,0.8c-0.7,0-0.7-0.3-0.7-0.8c0-6,0-11.9,0-17.9c0-0.6,0-0.8,0.7-0.8s0.8,0.2,0.8,0.9
		C274.2,42.6,274.2,43.7,274.2,44.9z"/>
</g>
<g>
	<path class="st0" d="M216.9,117.1c-0.6-0.8-1.1-2.1-1.1-2.1l0,0c0-0.1,0-0.1,0-0.1c-0.1,0.8-0.1,1.1-0.8,1.8
		c-1.1,0.9-6.9,5.7-7.4,15.6c-0.4,9.2,6.7,14.7,7.6,15.4c0.7,1.6,0.6,4.3,0.6,4.3l1,0.3c0,0-0.2-2.7,0.1-3.9c0.1-0.4,0.3-0.7,0.5-1
		c0.2-0.1,0.6-0.4,1.2-1l0,0l0,0c2.4-2.2,6.9-7.7,5.4-16.6C222,121.1,217.4,118.2,216.9,117.1z"/>
	<path class="st0" d="M323.4,131.3c-1.5-1.3-3.5-1.9-5.9-1.9c-2.9,0-4,0.1-5.5,0.1c-0.8,0-2.6-0.1-3.1-0.1c-0.1,0.2-0.6,0.9-0.5,1.1
		c0.7,0.1,1.2,0.2,1.5,0.2c0.7,0.2,1.1,0.4,1.2,1.2c0.1,1,0,4.2,0,5.8c0,2.3,0,4.3-0.1,6c-0.1,0.9-0.2,1.2-0.7,1.4
		c-0.3,0.1-0.5,0.1-1.1,0.2c-0.2,0-0.5,0.9-0.4,1.1l0,0c2.4,0,5.2,0.1,6.9,0.1c3.1,0,5.3-0.7,7-2c1.7-1.2,3.4-3.3,3.4-7
		C326.1,135,325.2,132.9,323.4,131.3z M321,143.9c-1.3,1.1-2.6,1.4-3.9,1.4c-1,0-2.2-0.2-2.8-0.7c-0.4-0.2-0.5-0.8-0.6-1.1
		c-0.1-0.4-0.1-3.5-0.1-5.8c0-2.2,0-5.9,0.1-6.4c0-0.1,0.2-0.3,0.2-0.4c0.3-0.1,0.8-0.2,1.4-0.2c1.8,0,3.4,0.3,4.6,1.1
		c2.2,1.3,3.2,3.5,3.2,6.3C323.2,140.9,322.3,142.7,321,143.9z"/>
	<path class="st0" d="M338.7,136.9c-0.1,0-0.1-0.1,0-0.1c1.4-0.6,2.5-1.9,2.5-3.4c0-3.2-2.9-3.9-5.1-3.9c-1.7,0-3.1,0.1-4.9,0.1
		c-1.9,0-2.6-0.1-2.9-0.1c-0.1,0.1-0.6,0.9-0.4,1.1c0.6,0.1,1.2,0.2,1.7,0.2c0.5,0.1,0.8,0.4,0.8,1.1c0,1,0,3,0,5.9
		c0,2.2,0,5.2-0.1,6c-0.1,1-0.2,1.2-0.8,1.4c-0.5,0.1-0.8,0.2-1.3,0.2c-0.2,0.1-0.5,1-0.3,1.1c1.9,0,5.2,0.1,6.4,0.1
		c1.6,0,3.2-0.2,4.5-0.8c2.1-0.9,3.6-2.4,3.6-4.7C342.6,138.7,340.8,137.4,338.7,136.9z M333.2,131.2c0-0.1,0.1-0.4,0.2-0.4
		c0.4-0.1,0.8-0.1,1-0.1c2.5,0,4.1,0.9,4.1,3.3c0,1-0.4,2-1.3,2.4c-0.3,0.2-0.9,0.3-2,0.3c-0.7,0-1.6,0-2-0.1
		c-0.1,0-0.1-0.1-0.1-0.1C333.1,134.8,333.2,132.2,333.2,131.2z M336.1,145.3c-0.7,0-1.7-0.1-2.1-0.3s-0.7-0.8-0.8-1.3
		c-0.1-1.1-0.1-3.8-0.1-5.6c0-0.1,0.1-0.1,0.2-0.1c0.2-0.1,1.3,0,1.4,0c3.2,0,5,1.4,5,3.8C339.7,144.2,338,145.3,336.1,145.3z"/>
	<path class="st0" d="M250,145.6c-0.6-0.1-1.1-0.2-1.4-0.3c-0.3-0.1-0.4-0.4-0.4-0.6c0-0.5,0-1.3,0-2.2c0-1,0-2,0-2.8
		c0-2.8-1.4-4.5-3.6-4.5c-1,0-2.4,0.7-3.8,1.7l-0.1,0.1c-0.1,0-0.1,0-0.2-0.1c-0.7-1.2-1.6-1.7-2.8-1.7c-0.7,0-2.1,0.4-3.7,1.7
		l-0.1,0.1c-0.1,0-0.2-0.1-0.2-0.2c0-0.3,0-0.6,0-0.9c0-0.1,0-0.2,0-0.3c0-0.2-0.1-0.3-0.1-0.4c-0.8,0.4-2.9,0.9-3.7,1
		c-0.3,0.1-0.4,0.2-0.5,0.4c0,0.1,0.1,0.3,0.4,0.3c0.6,0.2,1.1,0.4,1.5,0.6c0.3,0.2,0.3,0.5,0.3,0.7v0.1c0,1.9,0,4.7-0.1,6.2
		c0,0.6-0.2,0.9-0.7,1c-0.3,0.1-0.5,0.1-1.1,0.2c0,0-0.1,0.2-0.1,0.4c0,0.3,0,0.5,0.1,0.6c0.3,0,0.6,0,0.9,0c0.5,0,1.1-0.1,1.9-0.1
		c0.7,0,1.4,0,1.9,0.1c0.3,0,0.6,0,0.9,0c0.1-0.2,0.1-0.8,0.1-0.9c-0.2,0-0.3-0.1-0.4-0.1c-0.2,0-0.4-0.1-0.6-0.1
		c-0.5-0.1-0.7-0.5-0.7-0.8c0-0.9,0-3.1,0-4.9c0-0.5,0-1,0-1.4c0-0.2,0.1-0.5,0.2-0.6c0.8-0.6,1.7-0.9,2.5-0.9
		c1.3,0,2.1,0.7,2.4,2.1c0.2,0.9,0.1,4.4,0,5.6c0,0.5-0.2,0.7-0.6,0.9c-0.2,0.1-0.5,0.1-0.8,0.2c-0.1,0-0.2,0-0.3,0.1
		c0,0.1-0.1,0.2-0.1,0.4s0,0.4,0.1,0.5c0.2,0,0.7,0,1.1,0c0.5,0,1.2,0,1.5,0c1.2,0,2.1,0,2.9,0.1c0,0,0.1-0.1,0.1-0.2
		c0.1-0.3,0.1-0.6,0-0.7c-0.3-0.1-0.6-0.1-0.8-0.2c-0.1,0-0.2-0.1-0.4-0.1c-0.3-0.1-0.6-0.2-0.6-0.8c0-0.8,0-1.8,0-2.9
		c0-0.5,0-1.1,0-1.6c0-0.9,0-1.5-0.1-2l0,0c0-0.1,0-0.2,0.1-0.2c0.9-0.7,1.9-0.9,2.5-0.9c1.6,0,2.4,1.1,2.5,2.1
		c0.2,0.9,0.1,4.9,0.1,5.4c0,0.6-0.2,0.9-0.6,1c-0.3,0.1-0.5,0.1-0.9,0.2c-0.1,0.1,0,0.7,0,0.9c0.8,0,1.5-0.1,3-0.1
		c0.7,0,1.4,0,1.9,0.1c0.3,0,0.5,0,0.6,0C250,146.4,250.1,145.8,250,145.6L250,145.6z"/>
	<path class="st0" d="M258,135.2c-1.2,0-2.6,0.4-3.7,1.1c-1.6,1.1-2.4,2.6-2.4,4.6c0,2.8,1.5,5.9,5.6,5.9c1.2,0,2.5-0.5,3.3-1
		c1.7-1.1,2.6-2.8,2.6-5.1C263.4,137.5,261.1,135.2,258,135.2z M259.8,145c-0.5,0.4-1,0.6-1.7,0.6c-2.3,0-3.9-2.2-3.9-5.4
		c0-1.7,0.5-2.9,1.4-3.5c0.3-0.2,0.8-0.4,1.3-0.4c2.3,0,3.9,2.1,3.9,5.3C260.9,143.3,260.5,144.4,259.8,145z"/>
	<path class="st0" d="M301,135.2c-1.2,0-2.6,0.4-3.7,1.1c-1.6,1.1-2.4,2.6-2.4,4.6c0,2.8,1.5,5.9,5.6,5.9c1.2,0,2.5-0.5,3.3-1
		c1.7-1.1,2.6-2.8,2.6-5.1C306.3,137.5,304.1,135.2,301,135.2z M302.8,145c-0.5,0.4-1,0.6-1.7,0.6c-2.3,0-3.9-2.2-3.9-5.4
		c0-1.7,0.5-2.9,1.4-3.5c0.3-0.2,0.8-0.4,1.3-0.4c2.3,0,3.9,2.1,3.9,5.3C303.9,143.3,303.5,144.4,302.8,145z"/>
	<path class="st0" d="M290.8,137.4c0,0,0.2,0.1,0.6,0.1h0.1c0.4,0,0.9-0.2,1.1-0.5s0.3-0.8,0.3-1.1s-0.1-0.4-0.1-0.5
		c-0.4,0.3-0.8,0.6-1.7,0.6c-0.6,0-1.1-0.1-1.6-0.3c-0.9-0.3-1.5-0.6-2.7-0.6h-0.1c-1.1,0-2.8,0.6-3.5,1.2c-1,0.7-1.6,1.8-1.6,3.1
		c0,1.9,0.9,3.2,2.5,3.7l0.1,0.1c0,0.1,0,0.1,0,0.2c-0.3,0.2-0.7,0.5-1.1,0.7c-0.3,0.2-0.5,0.3-0.7,0.4c-0.2,0.1-0.2,0.3-0.1,0.4
		c0,0,0,0,0,0.1c0.1,0.4,0.4,1.1,1.6,1.5c0.1,0,0.1,0.1,0.1,0.1c0,0.1,0,0.1-0.1,0.1c-1.4,1-2,1.5-2.3,1.8c-0.4,0.5-0.5,1-0.5,1.2
		c0,0.7,0.4,1.7,1.3,2.4s2,1,3.5,1c1.1,0,2.2-0.2,3.2-0.7c2.1-1,3.4-2.7,3.4-4.5c0-1.2-0.7-2.2-1.8-2.6c-0.8-0.3-2.5-0.4-3.9-0.5
		c-0.2,0-0.5,0-0.7,0c-1.1-0.1-1.3-0.5-1.3-0.9s0.5-0.7,0.7-0.7l0,0c0,0,0.2,0,0.3,0c0.2,0,0.3,0,0.3,0l0,0c1.1-0.1,2-0.5,2.9-1.1
		s1.7-1.5,1.7-3.5c0-0.2-0.1-0.8-0.2-1l0,0c0-0.1,0-0.1,0-0.2H290.8z M285.9,147c1.5,0,2.7,0.1,3.5,0.4c1,0.3,1.4,1,1.4,1.9
		c0,1.3-1.1,2.7-3.6,2.7c-1.3,0-2.2-0.3-2.9-0.9c-0.6-0.5-0.9-1.1-0.9-1.8s0.5-1.4,1.5-2C285.1,147.2,285.5,147,285.9,147z
		 M288,141.7c-0.3,0.3-0.9,0.5-1.3,0.5c-2,0-2.7-1.8-2.7-3.4c0-1.6,0.8-2.6,2.1-2.6c1.7,0,2.7,1.2,2.7,3.3
		C288.8,140.4,288.5,141.3,288,141.7z"/>
	<path class="st0" d="M277.7,145.2c-0.1-0.1-0.2-0.3-0.2-0.4c-0.1-0.8-0.1-3.3-0.1-4.9c0-1.3-0.2-2.5-0.8-3.3
		c-0.7-0.9-1.6-1.5-2.8-1.5c-1.1,0-2.5,0.7-3.7,1.7c0,0-0.2,0.2-0.2-0.1s0-0.8,0.1-1.2c0-0.3-0.2-0.5-0.2-0.5c-0.8,0.4-3,0.9-3.8,1
		c-0.6,0.1-0.7,0.7-0.1,0.9l0,0l0,0c0.7,0.2,1.1,0.4,1.4,0.6c0.2,0.2,0.2,0.5,0.2,0.7c0,1.8,0,4.6-0.1,6.2c0,0.6-0.2,0.8-0.6,0.9
		c-0.3,0.1-0.6,0.1-1,0.2c-0.1,0.1-0.1,0.9,0,1.1c0.3,0,1.7-0.1,2.8-0.1c1.6,0,2.4,0.1,2.8,0.1c0.2-0.2,0.2-0.9,0.1-1.1
		c-0.5,0-0.8-0.1-1.1-0.2c-0.4-0.1-0.6-0.3-0.6-0.8c-0.1-1.3-0.1-4-0.1-5.9c0-0.5,0.1-0.8,0.3-0.9c0.6-0.5,1.5-0.8,2.3-0.8
		s1.3,0.2,1.7,0.6c0.5,0.4,0.7,1.1,0.8,1.5c0.1,1,0.1,3.1,0.1,4.9c0,1-0.1,1.2-0.4,1.3c-0.2,0.1-0.6,0.2-1.1,0.2
		c-0.2,0.2-0.1,0.9,0,1.1c0.7,0,1.5-0.1,2.8-0.1c1.5,0,2.5,0.1,2.9,0.1c0.2-0.2,0.2-0.9,0.1-1.1
		C278.7,145.5,278.2,145.4,277.7,145.2z"/>
</g>
<g>
	<g>
		<g transform="translate(150.000000, 31.000000)">
			<path class="st0" d="M98.2,196.7v-16h2.1l9.8,12.9v-12.9h2v16H110l-9.8-13v13H98.2L98.2,196.7z"/>
			<path class="st0" d="M127.9,196.1c-1.3,0.5-2.7,0.7-4.2,0.7c-5.8,0-8.7-2.8-8.7-8.3c0-5.3,2.8-7.9,8.4-7.9c1.6,0,3.1,0.2,4.5,0.7
				v1.8c-1.4-0.5-2.8-0.8-4.2-0.8c-4.4,0-6.6,2.1-6.6,6.2c0,4.5,2.2,6.7,6.5,6.7c0.7,0,1.4-0.1,2.3-0.3v-5.4h2.1v6.6H127.9z"/>
			<path class="st0" d="M131.2,190.5v-9.8h2.1v9.8c0,3.1,1.5,4.6,4.6,4.6s4.6-1.6,4.6-4.6v-9.8h2.1v9.8c0,4.2-2.2,6.3-6.7,6.3
				C133.5,196.9,131.2,194.7,131.2,190.5L131.2,190.5L131.2,190.5z"/>
			<path class="st0" d="M150.3,180.7V195h8.4v1.7h-10.5v-16H150.3L150.3,180.7z"/>
			<path class="st0" d="M161.7,196.7h-2.2l8-18.1l8,18.1h-2.3l-2.1-5h-5.3l0.6-1.7h4l-3-7.2L161.7,196.7L161.7,196.7z"/>
			<path class="st0" d="M177.7,196.7v-16h6.8c3.1,0,4.6,1.3,4.6,3.8c0,2.1-1.5,3.6-4.5,4.6l5.5,7.6h-2.7l-5.1-7.2v-1.3
				c3.1-0.5,4.6-1.7,4.6-3.5c0-1.5-0.8-2.2-2.5-2.2h-4.6v14.3h-2.1L177.7,196.7L177.7,196.7z"/>
		</g>
		<g>
			<g>
				<polygon class="st0" points="226.3,220.2 226.5,220.2 229.8,220.2 226.3,213 223.3,220.2 				"/>
				<path class="st0" d="M226.3,201.6l-16.4,5.9l2.5,21.7l13.9,7.7l14.1-7.8l2.7-21.7L226.3,201.6z M233.3,228.4l-2.2-5.2h-4.8H222
					l-2.1,5.1l-3.8,0.1l10.2-22.7l10.7,22.8L233.3,228.4z"/>
			</g>
			<g class="st1">
				<polygon class="st2" points="226.5,220.2 229.8,220.2 226.3,213 226.3,213.1 226.3,220.2 226.3,220.2 				"/>
				<polygon class="st2" points="226.3,201.6 226.3,205.8 226.3,205.7 237,228.5 233.3,228.4 231.1,223.2 226.3,223.2 226.3,223.2 
					226.3,236.8 240.4,229 243.1,207.3 				"/>
			</g>
		</g>
	</g>
</g>
</svg>
